<?xml version="1.0" encoding="utf-8"?>
<!-- Generator: Adobe Illustrator 24.1.2, SVG Export Plug-In . SVG Version: 6.00 Build 0)  -->
<svg version="1.1" id="Layer_1" xmlns="http://www.w3.org/2000/svg" xmlns:xlink="http://www.w3.org/1999/xlink" x="0px" y="0px"
	 viewBox="0 0 64 64" style="enable-background:new 0 0 64 64;" xml:space="preserve">
<style type="text/css">
	.st0{fill:#1A1A1A; opacity:0.75}
	.st1{fill:#FF6600; opacity:0.75}
	.st2{fill:#FFFFFF; opacity:0.75}
</style>
<path class="st0" d="M64,32c0-8.8-3.1-16.4-9.4-22.6C48.4,3.1,40.9,0,32,0C23.2,0,15.6,3.1,9.4,9.4C3.1,15.6,0,23.2,0,32
	s3.1,16.4,9.4,22.6C15.6,60.9,23.2,64,32,64c8.8,0,16.3-3.1,22.6-9.4C60.9,48.4,64,40.9,64,32 M50.7,13.2c5.2,5.2,7.7,11.4,7.7,18.7
	s-2.6,13.6-7.7,18.7c-5.2,5.2-11.4,7.8-18.8,7.8s-13.6-2.6-18.8-7.8c-5.2-5.2-7.7-11.4-7.7-18.7s2.6-13.6,7.7-18.7
	C18.3,8,24.6,5.4,31.9,5.4S45.5,8,50.7,13.2 M44.1,19.8c0-0.2-0.2-0.3-0.4-0.3c-1.8-1.8-3.9-3.2-6.2-4l0.1-0.1
	c-1.6-0.6-3.4-0.9-5.5-0.9l-5.5-4.3h-0.6l-1.9,6c-1.9,1.2-3.1,2-3.6,2.6l-0.8,0.7c-0.6,0.7-1.2,1.4-1.6,2.1c-0.7,1-1.3,1.9-1.8,3
	c-0.6,1.3-1,2.6-1.3,3.9c-0.3,1.1-0.4,2.2-0.4,3.5l-3.9,5.3v0.4l5.5,1.6c0.8,1.7,1.9,3.3,3.5,4.8l0.8,0.8l0.1-0.3
	c1.8,1.5,3.7,2.6,5.9,3.3h-0.1c1.9,0.5,3.7,0.8,5.3,0.8l6,3.8l2.6-6v-0.1l3.8-2.8l0.7-0.8c1.2-1.3,2.3-3.1,3.4-5.3
	c0.6-1.6,0.9-3.6,0.9-5.9v-0.3l4.2-5.2l-5.9-2.5C46,22.1,44.9,20.7,44.1,19.8z"/>
<g>
	<path class="st2" d="M35,30.8c-0.2-0.8-0.7-1.5-1.5-2c-0.8-0.6-1.6-0.8-2.5-0.6c-1,0.6-1.7,1.1-2,1.5c-0.4,0.7-0.5,1.6-0.3,2.6
		c0.3,0.9,0.8,1.6,1.6,2c0.7,0.6,1.5,0.8,2.5,0.5c0.8-0.2,1.4-0.7,1.9-1.5C35.1,32.7,35.2,31.8,35,30.8z"/>
</g>
</svg>
