<svg width="272" height="120" viewBox="0 0 272 120" fill="none" xmlns="http://www.w3.org/2000/svg">
<path d="M77.9 51.9C75.9 51.9 74.1 52.2 72.5 52.9C71 53.6 69.6 54.5 68.6 55.7C67.6 56.9 66.8 58.2 66.2 59.8C65.6 61.3 65.3 63.1 65.3 65C65.3 67.1 65.6 68.9 66.3 70.6C66.9 72.2 67.7 73.6001 68.8 74.7001C69.9 75.9001 71.1 76.7 72.5 77.3C73.9 77.9 75.4 78.2001 77 78.2001C77.9 78.2001 78.7 78.1 79.7 78C80.7 77.9 81.5 77.7 82.4 77.3C83.3 77 84.1 76.5 85 76C85.9 75.5 86.6 74.8 87.3 73.9L85.4 71.4C85.1 71 84.7 70.8 84.2 70.8C83.9 70.8 83.6 70.9 83.4 71C83.2 71.1 83 71.2 82.7 71.4C82.5 71.6 82.2 71.8 82 72C81.8 72.2 81.5 72.4 81.1 72.6C80.8 72.8 80.3 72.9 79.9 73C79.4 73.1 78.9 73.1 78.3 73.1C76.5 73.1 75 72.4 74 71C72.9 69.7 72.5 67.6 72.5 65C72.5 63.8 72.6 62.6 72.9 61.6C73.1 60.6 73.5 59.8 74.1 59.1C74.6 58.4 75.2 57.9 75.9 57.5C76.7 57.1 77.5 56.9 78.6 56.9C79.4 56.9 80.1 57 80.6 57.2C81.1 57.4 81.6 57.6 82 57.8C82.4 58 82.8 58.2 83.1 58.4C83.4 58.6 83.8 58.7 84.1 58.7C84.5 58.7 84.8 58.6 85 58.5C85.2 58.4 85.4 58.1 85.6 57.9L87.3 55.5C86.1 54.3 84.8 53.5 83.4 52.8C82 52.1 79.9 51.9 77.9 51.9ZM98.4 52.2H91.6V77.7001H98.4V52.2ZM96.6 41.2C96.1 41 95.5 40.8 94.9 40.8C94.3 40.8 93.8 40.9 93.4 41.2C92.9 41.4 92.4 41.7 92.1 42.1C91.7 42.5 91.4 43 91.2 43.4C91 43.9 90.8 44.5 90.8 45C90.8 45.5 90.9 46.2 91.2 46.6C91.4 47.1 91.7 47.6 92.1 47.9C92.5 48.3 93 48.6 93.4 48.8C93.8 49 94.5 49.1 94.9 49.1C95.5 49.1 96.1 49 96.6 48.8C97.1 48.6 97.6 48.3 97.9 47.9C98.3 47.5 98.6 47 98.9 46.6C99.1 46.1 99.2 45.5 99.2 45C99.2 44.4 99.1 43.8 98.9 43.4C98.7 43 98.3 42.4 97.9 42.1C97.5 41.8 97.2 41.4 96.6 41.2ZM120 57.2V52.4H113.5V44.7H109.9C109.1 44.7 108.6 45.1 108.4 45.9L107.1 52.5L103.1 53.3V56C103.1 56.5 103.2 56.8 103.5 57.1C103.7 57.3 104.1 57.4 104.4 57.4H106.8V71.1C106.8 72.3 107 73.2 107.3 74.1C107.6 75 108.1 75.7 108.7 76.3C109.3 76.9 110 77.5001 110.9 77.7001C111.8 78.0001 112.8 78.2001 114 78.2001C115.3 78.2001 116.5 78 117.7 77.6C118.9 77.2 119.9 76.6 120.9 75.9L118.9 72.6C118.8 72.4 118.6 72.2 118.5 72.1C118.4 72 118.2 72 118 72C117.9 72 117.7 72 117.6 72.1C117.5 72.2 117.3 72.2 117.1 72.3C116.9 72.4 116.7 72.5 116.5 72.6C116.3 72.7 116 72.7001 115.6 72.7001C115 72.7001 114.5 72.5 114.2 72.1C113.9 71.7 113.7 71.1 113.7 70.4V57.2H120ZM141.4 52.6C141.1 52.8 140.8 53.1 140.7 53.5L136.2 65.6C135.8 66.6 135.5 67.6 135.2 68.6C135.1 68.1 134.9 67.6 134.8 67.2C134.7 66.7 134.5 66.2 134.3 65.8L129.5 53.6C129.4 53.3 129.1 53 128.8 52.7C128.5 52.4 128.1 52.3 127.6 52.3H121.6L132 75.7001L127.2 86H132.3C133 86 133.5 85.9 133.7 85.6C134 85.3 134.3 85 134.5 84.5L148.2 52.2H142.7C142.2 52.2 141.8 52.3 141.4 52.6ZM162.9 56.6C163.8 56.6 164.4 56.7 164.9 56.9C165.4 57 165.8 57.1 166 57.1C166.4 57.1 166.7 56.9 166.8 56.5L167.4 53.2C166.9 52.9 166.4 52.7 165.9 52.5C165.3 52.3 164.7 52.2 164.1 52.2C162.4 52.2 160.9 52.7 159.7 53.7C158.4 54.7 157.4 56 156.5 57.7L156.2 53.8C156.1 53.4 156 53 155.8 52.8C155.6 52.6 155.3 52.5 154.8 52.5H152.3V77.5H156.7V61.8C157.4 60.1 158.2 58.8 159.3 57.9C160.1 57 161.5 56.6 162.9 56.6ZM190.2 61.7C190.2 60.3 190 59 189.6 57.9C189.2 56.7 188.6 55.7 187.9 54.9C187.1 54 186.3 53.5 185.2 53C184.1 52.5 182.9 52.3 181.5 52.3C179.6 52.3 177.8 52.6 176.2 53.3C174.6 54 173.1 55 171.7 56.4L172.5 57.8C172.6 58 172.8 58.2 173.1 58.4C173.3 58.6 173.6 58.7 173.9 58.7C174.3 58.7 174.7 58.6 175.1 58.3C175.5 58 176 57.7 176.4 57.4C177 57 177.6 56.7 178.3 56.4C179.1 56.1 179.9 56 181 56C182.6 56 183.9 56.5 184.7 57.5C185.6 58.6 185.9 60 185.9 62V63.9C183.1 63.9 180.7 64.1 178.7 64.6C176.8 65.1 175.1 65.7 174 66.4C172.7 67.1 171.9 67.9 171.3 68.8C170.7 69.7 170.4 70.6001 170.4 71.7001C170.4 72.9001 170.6 73.8001 171 74.7001C171.4 75.6001 171.9 76.2 172.5 76.8C173.1 77.4 173.8 77.8 174.7 78C175.6 78.3 176.4 78.4 177.4 78.4C178.4 78.4 179.2 78.3 180 78.1C180.8 77.9 181.5 77.7 182.2 77.4C182.9 77.1 183.5 76.6001 184.1 76.2001C184.7 75.7001 185.4 75.1 186 74.6L186.5 76.9C186.6 77.3 186.8 77.6 187 77.8C187.3 77.9 187.7 78 188.1 78H190V61.7H190.2ZM174.8 71.2001C174.8 70.5001 175 69.9 175.4 69.3C175.8 68.7 176.5 68.2 177.3 67.9C178.1 67.6 179.3 67.1 180.8 66.8C182.2 66.6 184 66.4 186 66.4V71.6C185.5 72.1 185 72.6 184.5 73C184 73.4 183.4 73.8 182.9 74.1C182.3 74.4 181.7 74.6 181.1 74.8C180.4 75 179.8 75.1 179 75.1C178.4 75.1 177.9 75 177.5 74.8C177 74.7 176.5 74.5 176.2 74.1C175.8 73.8 175.5 73.4 175.3 72.9C174.9 72.4 174.8 71.9001 174.8 71.2001ZM217.8 77.7001V41.3H213.4V55.2C212.5 54.2 211.6 53.6 210.5 53C209.4 52.5 208.1 52.2 206.6 52.2C204.9 52.2 203.4 52.5 202.1 53.2C200.8 53.9 199.6 54.8 198.7 56C197.7 57.2 197.1 58.6 196.6 60.1C196.1 61.6 195.9 63.4 195.9 65.2C195.9 67.3 196.1 69.1 196.6 70.8C197.1 72.3 197.7 73.7001 198.5 74.7001C199.4 75.8001 200.3 76.6001 201.5 77.2001C202.7 77.7001 204 78 205.4 78C207.2 78 208.8 77.6 210.1 76.8C211.4 76 212.7 75.0001 213.8 73.7001L214.2 76.8C214.4 77.4 214.8 77.8 215.5 77.8L217.8 77.7001ZM207.5 55.6C208.7 55.6 209.8 55.8 210.8 56.3C211.8 56.8 212.6 57.6 213.5 58.8V70.7001C212.6 71.9001 211.6 72.8 210.5 73.5C209.4 74.2 208.1 74.5 206.8 74.5C205.8 74.5 204.9 74.3 204.1 74C203.3 73.6 202.7 73 202.1 72.3C201.5 71.5 201.1 70.6 200.8 69.5C200.5 68.3 200.4 66.9 200.4 65.3C200.4 62.2 201 59.9 202.2 58.2C203.5 56.5 205.2 55.6 207.5 55.6ZM239.4 52.9C238.3 52.4 237.1 52.2 235.7 52.2C233.8 52.2 232 52.5 230.4 53.2C228.8 53.9 227.3 54.9 225.9 56.3L226.7 57.7C226.8 57.9 227 58.1 227.3 58.3C227.5 58.5 227.8 58.6 228.1 58.6C228.5 58.6 228.9 58.5 229.3 58.2C229.7 57.9 230.2 57.6 230.6 57.3C231.2 56.9 231.8 56.6 232.5 56.3C233.3 56 234.1 55.9 235.2 55.9C236.8 55.9 238.1 56.4 238.9 57.4C239.8 58.5 240.1 59.9 240.1 61.9V63.8C237.3 63.8 234.9 64 232.9 64.5C231 65 229.3 65.6 228.2 66.3C227 67 226.1 67.8001 225.5 68.7001C224.9 69.6001 224.6 70.5 224.6 71.6C224.6 72.8 224.8 73.7 225.2 74.6C225.6 75.5 226.1 76.1001 226.7 76.7001C227.3 77.3001 228 77.7 228.9 77.9C229.8 78.2 230.6 78.3 231.6 78.3C232.6 78.3 233.4 78.2 234.2 78C235 77.8 235.7 77.6 236.4 77.3C237.1 77 237.7 76.5 238.3 76.1C238.9 75.6 239.5 75 240.2 74.5L240.7 76.8C240.8 77.2 241 77.5001 241.2 77.7001C241.5 77.8001 241.9 77.9 242.3 77.9H244.2V61.7C244.2 60.3 244 59 243.6 57.9C243.2 56.7 242.6 55.7 241.9 54.9C241.3 54 240.4 53.3 239.4 52.9ZM230 74.1C229.6 73.8 229.3 73.4 229.1 72.9C228.9 72.4 228.7 71.8001 228.7 71.2001C228.7 70.5001 228.9 69.9 229.3 69.3C229.7 68.7 230.4 68.2 231.2 67.9C232.1 67.5 233.2 67.1 234.7 66.8C236.1 66.6 237.9 66.4 239.9 66.4V71.6C239.4 72.1 238.9 72.6 238.4 73C237.9 73.4 237.3 73.8 236.8 74.1C236.2 74.4 235.5 74.6 235 74.8C234.3 75 233.7 75.1 232.9 75.1C232.3 75.1 231.8 75 231.4 74.8C230.8 74.6 230.4 74.5 230 74.1ZM265.6 57C266 57 266.3 56.8 266.4 56.4L267 53.1C266.5 52.8 266 52.6 265.5 52.4C264.9 52.2 264.3 52.1 263.7 52.1C262 52.1 260.5 52.6 259.3 53.6C258.1 54.6 257 55.9 256.1 57.6L255.8 53.7C255.7 53.3 255.6 52.9 255.4 52.7C255.2 52.5 254.9 52.4 254.4 52.4H251.9V77.4H256.3V61.8C257 60.1 257.8 58.8 258.9 57.9C260 57 261.2 56.6 262.7 56.6C263.6 56.6 264.2 56.7 264.7 56.9C265 57 265.4 57 265.6 57Z" fill="#1A1A1A"/>
<mask id="mask0" mask-type="alpha" maskUnits="userSpaceOnUse" x="5" y="41" width="65" height="56">
<rect x="5" y="41" width="65" height="56" fill="white"/>
</mask>
<g mask="url(#mask0)">
<rect x="16.7158" y="60.0273" width="8.34568" height="13.7069" fill="#1A1A1A"/>
<rect x="28.9136" y="44.8777" width="10.9136" height="28.8567" fill="#1A1A1A"/>
<rect x="43.0371" y="53.5347" width="8.98765" height="15.8712" fill="#1A1A1A"/>
<rect x="16.7158" y="66.52" width="16.0494" height="8.65701" fill="#1A1A1A"/>
<path d="M32.1235 66.52L38.8643 69.5345H43.3581H48.1729L43.3581 73.2189L41.4322 75.8984H32.1235V66.52Z" fill="#1A1A1A" stroke="#1A1A1A"/>
<rect x="30.1975" y="47.7632" width="2.5679" height="2.16425" fill="white"/>
<rect x="32.1235" y="54.9773" width="2.5679" height="2.16425" fill="white"/>
<rect x="47.5308" y="56.4202" width="2.5679" height="2.16425" fill="white"/>
<rect x="35.333" y="60.7488" width="2.5679" height="2.16425" fill="white"/>
<rect x="44.9629" y="60.7488" width="2.5679" height="2.16425" fill="white"/>
<rect x="33.4072" y="51.3704" width="4.49383" height="2.16425" fill="white"/>
<rect x="18.6421" y="62.9131" width="4.49383" height="2.16425" fill="white"/>
<path fill-rule="evenodd" clip-rule="evenodd" d="M51.05 68.949L53.2082 68.852L53.1219 53.6211C53.0356 53.039 52.6039 52.554 52.0859 52.554H43.194C42.5897 52.554 42.1581 53.136 42.1581 53.7181V68.2699H40.7768V44.599C40.7768 43.9199 40.2588 43.4348 39.7409 43.4348H28.6044C28.0001 43.4348 27.5685 44.0169 27.5685 44.599V66.1356H26.2735V60.1209C26.2735 59.4418 25.7555 58.9567 25.2376 58.9567H16.691C16.0867 58.9567 15.655 59.5388 15.655 60.1209V72.7325H5.5545C4.9502 72.7325 4.51855 73.3145 4.51855 73.8966C4.51855 74.5757 5.03653 75.0607 5.5545 75.0607H16.6046C17.2089 75.0607 17.6406 74.4787 17.6406 73.8966V61.188H24.2016V67.2028C24.2016 67.8819 24.7196 68.3669 25.2376 68.3669H28.4317C29.036 68.3669 29.4677 67.7848 29.4677 67.2028V45.7631H38.5323V69.4341C38.5323 70.1131 39.0502 70.5982 39.5682 70.5982H43.0214C43.6257 70.5982 44.0573 70.0161 44.0573 69.4341V54.8822H50.9637L51.05 68.949Z" fill="black"/>
<path d="M48.3738 93.8811C49.4961 94.3662 50.7047 94.5602 52.0859 94.5602C53.6399 94.5602 55.1075 94.2691 56.4887 93.7841C57.87 93.202 59.0786 92.2319 60.2009 90.9707L60.6325 90.4857L60.7189 90.3887C61.6685 89.1275 62.3591 87.7693 62.8771 86.3142C63.2224 85.15 63.3951 83.8889 63.4814 82.6277H74.0999C74.7042 82.6277 75.1358 82.0456 75.1358 81.4636C75.1358 80.7845 74.6179 80.2994 74.0999 80.2994H63.7404C63.6541 79.3293 63.3951 78.3592 63.1361 77.389C62.8175 76.3747 62.3683 75.3971 61.8085 74.4787H58.8196C59.7692 75.5458 60.4599 76.807 60.8915 78.1651C61.2368 79.1353 61.4095 80.2994 61.4095 81.4636V81.8516C61.4095 83.1128 61.2368 84.3739 60.8915 85.441C60.4599 86.6052 59.8556 87.6723 59.0786 88.7395L58.647 89.2245C57.7837 90.2917 56.7477 91.0677 55.6254 91.5528C54.5895 92.0379 53.2946 92.3289 51.9996 92.3289H51.9133C50.8773 92.3289 49.8414 92.1349 48.8918 91.7468C47.5968 91.2618 46.4745 90.4857 45.4386 89.4185L45.2659 89.2245C44.4026 88.3514 43.7983 87.3813 43.3667 86.3142C42.7624 84.956 42.4171 83.4038 42.4171 81.6576C42.4171 80.1054 42.7624 78.6502 43.2804 77.292C43.7466 76.2442 44.2827 75.3536 45.0147 74.4787C45.096 74.3815 45.1797 74.2846 45.2659 74.1876C45.3523 74.1391 45.417 74.0664 45.4818 73.9936C45.5465 73.9209 45.6113 73.8481 45.6976 73.7996L45.7839 73.7026C46.5609 72.9265 47.4242 72.2474 48.3738 71.8594C49.4961 71.3743 50.7047 71.0833 51.9996 71.0833C53.5535 71.0833 54.9348 71.3743 56.0571 72.1504C57.0067 72.7325 57.87 73.4115 58.647 74.2847L58.8196 74.4787H61.8085C61.4582 73.9039 61.0646 73.3523 60.6325 72.8295L60.4599 72.6355C59.5103 71.5683 58.4743 70.6952 57.352 70.1131C56.0571 69.337 54.6758 68.949 53.2082 68.852L51.05 68.949C49.8414 69.046 48.7191 69.337 47.6832 69.8221C46.5609 70.3072 45.5249 71.0833 44.5753 72.0534L44.0573 72.6355C43.5764 73.225 43.1177 73.8394 42.7147 74.4787C42.3219 75.1018 41.9821 75.7485 41.7264 76.4189C41.0358 78.0681 40.6905 79.8143 40.6905 81.8516C40.6905 83.8888 41.0358 85.7321 41.8128 87.3813C42.3307 88.6424 43.1077 89.8066 44.0573 90.8737L44.23 91.0677C45.4386 92.3289 46.8199 93.299 48.3738 93.8811Z" fill="black"/>
<path d="M48.7944 93.7134C49.9167 94.1985 51.1253 94.3925 52.5065 94.3925C54.0605 94.3925 55.5281 94.1015 56.9093 93.6164C58.2906 93.0344 59.4992 92.0642 60.6215 90.8031L61.0531 90.318L61.1395 90.221C62.0891 88.9599 62.7797 87.6017 63.2977 86.1465C63.643 84.9824 63.8157 83.7212 63.902 82.46H74.5205C75.1248 82.46 75.5564 81.878 75.5564 81.2959C75.5564 80.6168 75.0385 80.1318 74.5205 80.1318H64.161C64.0746 79.1616 63.8157 78.1915 63.5567 77.2214C63.2381 76.207 62.7889 75.2294 62.2291 74.311H59.2402C60.1898 75.3782 60.8805 76.6393 61.3121 77.9975C61.6574 78.9676 61.8301 80.1318 61.8301 81.2959V81.6839C61.8301 82.9451 61.6574 84.2063 61.3121 85.2734C60.8805 86.4375 60.2762 87.5047 59.4992 88.5718L59.0676 89.0569C58.2043 90.124 57.1683 90.9001 56.046 91.3852C55.0101 91.8702 53.7151 92.1612 52.4202 92.1612H52.3339C51.2979 92.1612 50.262 91.9672 49.3124 91.5792C48.0174 91.0941 46.8951 90.318 45.8592 89.2509L45.6865 89.0569C44.8232 88.1838 44.2189 87.2136 43.7873 86.1465C43.183 84.7883 42.8377 83.2361 42.8377 81.4899C42.8377 79.9377 43.183 78.4825 43.701 77.1244C44.1672 76.0766 44.7033 75.1859 45.4353 74.311C45.5166 74.2139 45.6003 74.1169 45.6865 74.02C45.7729 73.9715 45.8376 73.8987 45.9024 73.826C45.9671 73.7532 46.0318 73.6805 46.1182 73.6319L46.2045 73.5349C46.9815 72.7588 47.8448 72.0798 48.7944 71.6917C49.9167 71.2066 51.1253 70.9156 52.4202 70.9156C53.9741 70.9156 55.3554 71.2066 56.4777 71.9827C57.4273 72.5648 58.2906 73.2439 59.0676 74.117L59.2402 74.311H62.2291C61.8788 73.7362 61.4851 73.1847 61.0531 72.6618L60.8805 72.4678C59.9308 71.4007 58.8949 70.5276 57.7726 69.9455C56.4777 69.1694 55.0964 68.7813 53.6288 68.6843L51.4706 68.7813C50.262 68.8784 49.1397 69.1694 48.1037 69.6544C46.9815 70.1395 45.9455 70.9156 44.9959 71.8857L44.4779 72.4678C43.997 73.0573 43.5383 73.6717 43.1353 74.311C42.7425 74.9341 42.4027 75.5809 42.147 76.2513C41.4564 77.9005 41.1111 79.6467 41.1111 81.6839C41.1111 83.7212 41.4564 85.5644 42.2334 87.2136C42.7513 88.4748 43.5283 89.6389 44.4779 90.7061L44.6506 90.9001C45.8592 92.1612 47.2405 93.1314 48.7944 93.7134Z" fill="black"/>
<path opacity="0.9" d="M50.1006 73.5085L49.4099 75.7398C48.9783 76.0309 48.5466 76.3219 48.2013 76.7099C48.115 76.807 48.0287 76.904 47.9423 77.001C47.4243 77.5831 46.9927 78.2621 46.7337 78.9412C46.3884 79.8143 46.2157 80.6874 46.2157 81.7546L44.8345 83.7918C44.8345 83.8888 44.8345 83.8888 44.8345 83.9859L46.7337 84.6649C46.9927 85.344 47.4243 85.9261 47.9423 86.5082L48.0287 86.6052C48.115 86.7022 48.2013 86.7992 48.2876 86.8962L49.4099 79.9113L54.158 75.4488C53.5537 75.1578 52.8631 75.0607 52.1725 75.0607L50.2732 73.5085C50.2732 73.5085 50.1869 73.5085 50.1006 73.5085ZM56.4026 77.098C56.3163 77.098 56.3163 77.001 56.2299 77.001C56.1436 76.904 56.0573 76.807 55.9709 76.7099L54.935 83.5008L50.1006 87.9633H50.1869C50.7912 88.1574 51.3955 88.2544 52.0861 88.2544L54.158 89.7096L55.0213 87.3813C55.453 87.0902 55.8846 86.7022 56.3163 86.3141C56.4026 86.2171 56.4889 86.1201 56.5752 86.0231C57.0932 85.344 57.4385 84.6649 57.6975 83.9859C57.9565 83.3068 58.0428 82.5307 58.0428 81.7546V81.6576L59.4241 79.6203L57.4385 78.6502C57.0932 78.1651 56.8342 77.5831 56.4026 77.098Z" fill="black"/>
<path d="M55.971 76.7097L56.4889 73.2173L54.0717 75.4486L49.3236 79.9111L48.2013 86.896L47.6833 90.2914L50.0142 88.1571L54.8487 83.6946L55.971 76.7097ZM51.8272 80.3962C52.0861 80.2992 52.4315 80.3962 52.6904 80.5902C52.9494 80.7842 53.1221 80.9782 53.2084 81.3663C53.2947 81.7543 53.2947 82.0454 53.1221 82.3364C52.9494 82.6274 52.7768 82.8215 52.4315 82.9185C52.0861 83.0155 51.8272 82.9185 51.5682 82.7245C51.3092 82.5304 51.1365 82.3364 51.0502 81.9484C50.9639 81.5603 50.9639 81.2693 51.1365 80.9783C51.3092 80.6872 51.5682 80.4932 51.8272 80.3962Z" fill="#FF6600"/>
</g>
</svg>
