<?xml version="1.0" encoding="utf-8"?>
<!-- Generator: Adobe Illustrator 24.1.2, SVG Export Plug-In . SVG Version: 6.00 Build 0)  -->
<svg version="1.1" id="Layer_1" xmlns="http://www.w3.org/2000/svg" xmlns:xlink="http://www.w3.org/1999/xlink" x="0px" y="0px"
	 viewBox="0 0 330 100" style="enable-background:new 0 0 330 100;" xml:space="preserve">
<style type="text/css">
	.st0{fill:#1A1A1A;}
	.st1{fill:#FFFFFF;}
	.st2{fill:#FF6600;}
	.st3{fill:#1B1B1B;}
</style>
<g>
	<path class="st0" d="M104.7,67.8c0.4,0,0.8-0.1,1.1-0.4c0.3-0.3,0.4-0.7,0.4-1.1c0-0.4-0.1-0.8-0.4-1.1c-0.4-0.3-0.7-0.4-1.1-0.4
		H89.4c-0.1-0.9-0.3-2.1-0.8-3.8c-0.8-2.2-2-4.2-3.7-6l-0.3-0.3c-1.5-1.5-3.1-2.6-4.7-3.3c-1.8-1-3.8-1.6-6.1-1.7l-0.2-20
		c-0.1-0.9-0.6-1.4-1.5-1.4H59.1c-0.4,0-0.7,0.2-1,0.5c-0.3,0.3-0.5,0.6-0.5,1V49h-2V17.9c0-0.4-0.2-0.8-0.5-1
		c-0.3-0.3-0.7-0.5-1-0.5H37.6c-0.4,0-0.8,0.2-1.1,0.5c-0.3,0.3-0.5,0.6-0.5,1v28.3h-1.9v-7.9c0-0.4-0.2-0.8-0.5-1.1
		c-0.3-0.3-0.7-0.4-1.1-0.4H20c-0.5,0-0.9,0.2-1.1,0.5c-0.3,0.3-0.5,0.6-0.5,1v16.6H3.5c-0.4,0-0.7,0.2-1,0.5C2.2,55.7,2,56,2,56.4
		c0,0.4,0.2,0.8,0.5,1c0.3,0.3,0.6,0.5,1,0.5H58c-0.4,0.6-0.7,1.3-1,1.8c-1,2.2-1.5,4.5-1.5,7.1c0,2.9,0.5,5.3,1.6,7.3
		c0.6,1.4,1.7,2.9,3.2,4.6l0.4,0.3c1.7,1.7,3.8,2.9,6,3.7c1.6,0.6,3.4,1,5.5,1c2,0,4.2-0.4,6.6-1.1c1.9-0.7,3.7-2,5.5-3.7l0.8-0.8
		c1.3-1.6,2.4-3.4,3.2-5.4c0.5-1.3,0.8-2.9,0.9-4.8H104.7 M81.8,56.9l0.3,0.3c1.4,1.4,2.4,3,3,4.8c0.5,1.3,0.7,2.8,0.8,4.3v0.5
		c0,1.7-0.3,3.3-0.8,4.7c-0.6,1.5-1.5,2.9-2.7,4.3l-0.7,0.7c-1.3,1.4-2.7,2.4-4.4,3c-1.6,0.7-3.4,1-5.3,1H72c-1.6,0-3-0.3-4.4-0.8
		c-1.8-0.6-3.5-1.6-5.1-3l-0.3-0.3c-1.2-1.1-2.2-2.4-2.9-3.9c-0.9-1.9-1.3-3.9-1.3-6.1c0-1.8,0.4-3.8,1.3-5.8c0.5-1,1.2-2,1.9-2.9
		c0.3-0.4,0.6-0.8,1-1.2l0.7-0.6c1.4-1.2,2.7-2,3.8-2.5c1.8-0.6,3.6-1,5.5-1c2.4,0,4.3,0.5,5.9,1.3C79.6,54.9,80.8,55.8,81.8,56.9
		 M43.4,20.1v3.5h-4.8v-3.5H43.4 M53,25.9v3.5h-8.5v-3.5H53 M47,31.8v3.5h-4.8v-3.5H47 M48.2,42.3v-3.5H53v3.5H48.2 M65.8,36.5V33
		h4.8v3.5H65.8 M65.8,43.7H61v-3.5h4.8V43.7 M22.1,40.2h8.4v3.4h-8.4V40.2 M78.4,60.7c0-0.1-0.1-0.2-0.2-0.2l-0.3-0.3l-1.6,9.1
		l-6.8,5.6c1,0.3,1.9,0.4,2.7,0.4l3,1.9l1.3-3.1l1.9-1.4l0.3-0.4c0.6-0.7,1.2-1.6,1.7-2.7c0.3-0.8,0.5-1.8,0.5-3v-0.2L83,64
		l-2.9-1.3C79.4,61.8,78.9,61.1,78.4,60.7 M75.2,58.5c-0.8-0.3-1.7-0.5-2.8-0.5l-2.8-2.1h-0.3l-1,3c-1,0.6-1.6,1-1.8,1.3l-0.4,0.3
		c-0.8,0.8-1.3,1.7-1.8,2.5c-0.5,1.2-0.8,2.4-0.8,3.7l-2,2.7v0.3l2.8,0.8c0.4,0.9,1,1.7,1.8,2.4l0.4,0.4l1.5-9L75.2,58.5z"/>
	<path class="st1" d="M30.5,40.2h-8.4v3.4h8.4V40.2 M61,43.7h4.8v-3.5H61V43.7 M65.8,33v3.5h4.8V33H65.8 M48.2,38.8v3.5H53v-3.5
		H48.2 M47,35.2v-3.5h-4.8v3.5H47 M53,29.4v-3.5h-8.5v3.5H53 M43.4,23.6v-3.5h-4.8v3.5H43.4z"/>
	<path class="st2" d="M77.9,60.3l0.8-4.7l-3.5,2.9l-7.1,5.9l-1.5,9l-0.8,4.6l3.8-3.1l6.8-5.6L77.9,60.3 M70.8,67
		c-0.1-0.5-0.1-0.9,0.1-1.3c0.1-0.2,0.5-0.5,1-0.8c0.5-0.1,0.9,0,1.3,0.3c0.4,0.2,0.7,0.6,0.8,1c0.1,0.5,0.1,0.9-0.1,1.3
		c-0.3,0.4-0.6,0.7-0.9,0.8c-0.5,0.1-1,0-1.3-0.3C71.1,67.8,70.9,67.5,70.8,67z"/>
	<path class="st3" d="M141.9,29.6h-7.5v28.1h7.5V29.6 M129.3,33.3c-1.3-1.3-2.7-2.3-4.4-3c-1.6-0.7-3.5-1-5.6-1
		c-2.2,0-4.2,0.4-6,1.1c-1.7,0.8-3.2,1.8-4.3,3.1s-2,2.8-2.7,4.6c-0.6,1.7-0.9,3.6-0.9,5.8c0,2.3,0.3,4.3,1.1,6.1
		c0.7,1.8,1.6,3.3,2.8,4.6c1.2,1.3,2.5,2.2,4.1,2.8c1.6,0.6,3.2,1,4.9,1c1,0,2-0.1,2.9-0.2c1-0.1,2-0.4,3-0.7c1-0.4,1.9-0.8,2.8-1.5
		c0.9-0.6,1.8-1.4,2.6-2.3l-2.2-2.8c-0.3-0.4-0.8-0.6-1.3-0.6c-0.3,0-0.6,0.1-0.9,0.2c-0.2,0.1-0.5,0.3-0.7,0.5
		c-0.3,0.2-0.5,0.3-0.8,0.5c-0.3,0.3-0.6,0.5-0.9,0.6c-0.4,0.2-0.8,0.4-1.3,0.5c-0.5,0.1-1.1,0.1-1.8,0.1c-2,0-3.6-0.8-4.8-2.3
		c-1.2-1.5-1.8-3.7-1.8-6.5c0-1.4,0.1-2.6,0.4-3.8c0.3-1.1,0.7-2,1.3-2.8c0.5-0.8,1.2-1.4,2-1.8c0.8-0.4,1.8-0.5,2.9-0.5
		c0.9,0,1.7,0.1,2.3,0.3c0.6,0.2,1.1,0.4,1.6,0.6c0.4,0.2,0.8,0.5,1.1,0.7c0.4,0.2,0.7,0.3,1.1,0.3c0.4,0,0.7-0.1,0.9-0.3
		c0.2-0.1,0.4-0.3,0.7-0.6L129.3,33.3 M142.8,21.6c0-0.6-0.1-1.2-0.4-1.8c-0.3-0.6-0.6-1.1-1.1-1.5c-0.4-0.4-0.9-0.7-1.5-0.9
		c-0.6-0.3-1.2-0.4-1.8-0.4c-0.6,0-1.2,0.1-1.8,0.4c-0.6,0.2-1.1,0.5-1.4,0.9c-0.4,0.4-0.8,0.9-1,1.5c-0.3,0.5-0.4,1.1-0.4,1.8
		c0,0.7,0.1,1.3,0.4,1.8c0.2,0.6,0.6,1,1,1.4c0.4,0.4,0.9,0.8,1.4,1c0.6,0.2,1.1,0.4,1.8,0.4c0.7,0,1.3-0.1,1.8-0.4s1.1-0.6,1.5-1
		c0.4-0.4,0.8-0.9,1.1-1.4C142.7,22.9,142.8,22.3,142.8,21.6 M165.8,35.1v-5.3h-7.3v-8.5h-3.9c-0.9,0-1.5,0.4-1.7,1.3l-1.5,7.3
		l-4.5,0.8v2.9c0,0.5,0.1,0.9,0.4,1.2c0.3,0.3,0.6,0.4,1,0.4h2.6v15.2c0,1.2,0.2,2.3,0.5,3.3c0.3,1,0.9,1.8,1.6,2.5
		c0.7,0.7,1.5,1.2,2.5,1.6c1,0.4,2.1,0.5,3.4,0.5c1.4,0,2.7-0.2,4-0.7c1.3-0.4,2.5-1,3.6-1.8l-2.3-3.6c-0.2-0.2-0.3-0.4-0.4-0.5
		c-0.2-0.1-0.3-0.2-0.6-0.2c-0.2,0-0.3,0-0.4,0.2c-0.2,0.1-0.3,0.1-0.6,0.3c-0.2,0.1-0.4,0.2-0.6,0.3c-0.3,0.1-0.6,0.1-1,0.1
		c-0.7,0-1.2-0.2-1.6-0.6c-0.4-0.5-0.6-1.1-0.6-1.9V35.1H165.8 M174.1,29.6h-6.6l11.3,25.9l-5.4,11.4h5.6c0.7,0,1.3-0.1,1.6-0.4
		c0.3-0.2,0.6-0.6,0.8-1.1l15.2-35.8h-6c-0.4,0-0.9,0.2-1.3,0.5c-0.4,0.2-0.6,0.5-0.8,0.9l-5,13.4c-0.4,1.1-0.7,2.2-1.1,3.3
		c-0.1-0.5-0.3-1.1-0.4-1.6c-0.2-0.5-0.4-1.1-0.6-1.6L176.1,31c-0.2-0.4-0.4-0.7-0.8-0.9C175.1,29.8,174.7,29.6,174.1,29.6
		 M216.3,30c-0.6-0.2-1.3-0.3-2.1-0.3c-1.9,0-3.5,0.5-4.9,1.6c-1.4,1.1-2.6,2.6-3.5,4.5l-0.4-4.3c-0.1-0.5-0.2-0.9-0.4-1
		c-0.2-0.2-0.6-0.3-1.1-0.3h-2.8v27.6h4.9V40.2c0.8-1.9,1.7-3.3,2.8-4.3c1.1-1,2.6-1.5,4.3-1.5c0.9,0,1.7,0.1,2.2,0.3
		c0.5,0.2,0.9,0.3,1.2,0.3c0.4,0,0.7-0.2,0.8-0.7l0.6-3.6C217.5,30.3,216.9,30.1,216.3,30 M243.3,57.8V40.2c0-1.6-0.2-3-0.7-4.3
		c-0.4-1.3-1-2.4-1.8-3.3c-0.8-0.9-1.8-1.6-3-2.1c-1.2-0.5-2.6-0.8-4.1-0.8c-2.2,0-4.1,0.4-5.9,1.1c-1.8,0.7-3.4,1.9-4.9,3.3
		l0.8,1.6c0.2,0.2,0.4,0.4,0.6,0.6c0.3,0.2,0.6,0.3,0.9,0.3c0.4,0,0.8-0.2,1.3-0.5c0.4-0.3,0.9-0.6,1.5-1c0.6-0.4,1.3-0.7,2.2-1
		c0.8-0.3,1.8-0.5,2.9-0.5c1.8,0,3.2,0.6,4.1,1.7c0.9,1.1,1.4,2.8,1.4,5v2.1c-3.1,0-5.8,0.2-7.9,0.7c-2.2,0.5-3.9,1.2-5.2,2
		c-1.4,0.8-2.4,1.7-3,2.7c-0.6,1-0.9,2-0.9,3.2c0,1.3,0.2,2.3,0.6,3.3c0.4,0.9,0.9,1.7,1.7,2.3c0.7,0.6,1.5,1,2.4,1.3
		c0.9,0.3,1.9,0.5,3,0.5s2-0.1,2.9-0.3c0.9-0.2,1.7-0.5,2.5-0.8c0.7-0.4,1.4-0.8,2.1-1.3c0.7-0.5,1.4-1.1,2.1-1.8l0.5,2.6
		c0.1,0.5,0.3,0.8,0.6,0.9c0.3,0.1,0.7,0.2,1.1,0.2H243.3 M226.9,48.5c0.4-0.6,1.1-1.1,2.1-1.5c1-0.5,2.3-0.9,3.8-1.2
		c1.6-0.3,3.5-0.4,5.7-0.4v5.8c-0.5,0.6-1.1,1.1-1.6,1.5c-0.6,0.5-1.2,0.8-1.8,1.1c-0.6,0.3-1.3,0.6-2.1,0.8
		c-0.7,0.2-1.5,0.2-2.3,0.3c-0.6,0-1.2-0.1-1.8-0.3c-0.6-0.1-1-0.4-1.4-0.8c-0.4-0.3-0.7-0.8-0.9-1.3c-0.3-0.5-0.4-1.2-0.4-1.9
		C226.1,49.9,226.4,49.2,226.9,48.5 M273.9,17.6H269V33c-0.9-1-2-1.8-3.2-2.4c-1.2-0.6-2.6-0.9-4.4-0.9c-1.9,0-3.5,0.4-5,1.1
		c-1.5,0.7-2.7,1.8-3.8,3c-1,1.3-1.8,2.8-2.4,4.6c-0.5,1.7-0.8,3.6-0.8,5.6c0,2.3,0.3,4.4,0.8,6.2c0.5,1.7,1.2,3.2,2.1,4.4
		c0.9,1.2,2,2.1,3.3,2.7c1.3,0.6,2.7,0.9,4.3,0.9c2,0,3.8-0.5,5.3-1.4c1.5-0.8,2.9-2,4-3.4l0.5,3.3c0.2,0.7,0.6,1,1.4,1h2.9V17.6
		 M256.5,36.2c1.4-1.8,3.4-2.8,6-2.8c1.3,0,2.5,0.3,3.5,0.8c1,0.5,2,1.5,2.9,2.8v13.2c-1,1.3-2.1,2.3-3.3,3c-1.2,0.7-2.6,1-4.2,1
		c-1.1,0-2.1-0.2-3-0.5c-0.9-0.4-1.6-1-2.3-1.9c-0.6-0.8-1-1.9-1.3-3.1c-0.3-1.3-0.4-2.8-0.4-4.7C254.5,40.7,255.2,38.1,256.5,36.2
		 M300.5,32.5c-0.8-0.9-1.8-1.6-3-2.1c-1.2-0.5-2.6-0.8-4.1-0.8c-2.2,0-4.1,0.4-5.9,1.1c-1.8,0.7-3.4,1.9-4.9,3.3l0.9,1.6
		c0.1,0.2,0.3,0.4,0.6,0.6c0.2,0.2,0.5,0.3,0.9,0.3c0.4,0,0.9-0.2,1.3-0.5c0.4-0.3,0.9-0.6,1.5-1c0.6-0.4,1.4-0.7,2.1-1
		c0.8-0.3,1.8-0.5,2.9-0.5c1.8,0,3.2,0.6,4.1,1.7c0.9,1.1,1.4,2.8,1.4,5v2.1c-3.1,0-5.8,0.2-7.9,0.7c-2.2,0.5-3.9,1.2-5.3,2
		c-1.3,0.8-2.3,1.7-2.9,2.7c-0.6,1-1,2-1,3.2c0,1.3,0.2,2.3,0.6,3.3c0.4,0.9,1,1.7,1.6,2.3c0.7,0.6,1.5,1,2.5,1.3
		c0.9,0.3,1.9,0.5,3,0.5s2-0.1,2.9-0.3c0.9-0.2,1.7-0.5,2.5-0.8c0.7-0.4,1.5-0.8,2.2-1.3c0.7-0.5,1.4-1.1,2.1-1.8l0.6,2.6
		c0.1,0.5,0.3,0.8,0.5,0.9c0.3,0.1,0.7,0.2,1.1,0.2h2.1V40.2c0-1.6-0.2-3-0.6-4.3C302,34.6,301.4,33.5,300.5,32.5 M286.6,48.5
		c0.5-0.6,1.2-1.1,2.2-1.5c1-0.5,2.2-0.9,3.8-1.2c1.5-0.3,3.4-0.4,5.7-0.4v5.8c-0.6,0.6-1.1,1.1-1.7,1.5c-0.6,0.5-1.2,0.8-1.8,1.1
		c-0.7,0.3-1.4,0.6-2.1,0.8c-0.7,0.2-1.5,0.2-2.3,0.3c-0.6,0-1.2-0.1-1.8-0.3c-0.5-0.1-1-0.4-1.5-0.8c-0.4-0.3-0.7-0.8-0.9-1.3
		c-0.3-0.5-0.4-1.2-0.4-1.9C286,49.9,286.2,49.2,286.6,48.5 M326.6,35c0.4,0,0.7-0.2,0.9-0.7l0.6-3.6c-0.5-0.3-1.1-0.6-1.8-0.7
		c-0.6-0.2-1.3-0.3-2-0.3c-1.9,0-3.5,0.5-4.9,1.6c-1.4,1.1-2.5,2.6-3.5,4.5l-0.4-4.3c-0.1-0.5-0.2-0.9-0.4-1
		c-0.2-0.2-0.6-0.3-1.1-0.3h-2.8v27.6h4.9V40.2c0.8-1.9,1.7-3.3,2.9-4.3c1.1-1,2.5-1.5,4.3-1.5c0.9,0,1.7,0.1,2.2,0.3
		C325.9,34.9,326.3,35,326.6,35z"/>
</g>
</svg>
