<?xml version="1.0" encoding="utf-8"?>
<!-- Generator: Adobe Illustrator 23.0.3, SVG Export Plug-In . SVG Version: 6.00 Build 0)  -->
<svg version="1.1" id="Layer_1" xmlns="http://www.w3.org/2000/svg" xmlns:xlink="http://www.w3.org/1999/xlink" x="0px" y="0px"
	 viewBox="0 0 180 40" style="enable-background:new 0 0 180 40;" xml:space="preserve">
<style type="text/css">
	.st0{fill:#FFFFFF;}
	.st1{fill:#1B1B1B;}
	.st2{fill:#FF6600;}
	.st3{font-family:'ArialMT';}
	.st4{font-size:7.7994px;}
	.st5{fill:#1A1A1A;}
</style>
<g>
	<g transform="matrix( 1, 0, 0, 1, 154.95,189.95) ">
		<g>
			<g id="Layer0_0_FILL">
				<path class="st0" d="M-95-161.1L-95-161.1c0.2,0,0.4-0.1,0.5-0.2c0.1-0.1,0.2-0.3,0.2-0.5c0-0.2-0.1-0.4-0.2-0.5
					c-0.2-0.1-0.4-0.2-0.5-0.2h-7.6c0-0.5-0.2-1.1-0.4-1.9c-0.4-1.1-1-2.1-1.8-3l-0.2-0.1c-0.7-0.7-1.5-1.3-2.3-1.6
					c-1-0.5-2-0.8-3-0.8l-0.1-9.9c0-0.5-0.3-0.7-0.7-0.7h-6.5c-0.2,0-0.3,0.1-0.5,0.2c-0.2,0.2-0.2,0.3-0.2,0.5v9.5h-1v-15.4
					c0-0.2-0.1-0.4-0.2-0.5c-0.2-0.2-0.4-0.2-0.5-0.2h-8.2c-0.2,0-0.4,0.1-0.5,0.2s-0.2,0.3-0.2,0.5v14.1h-1v-3.9
					c0-0.2-0.1-0.4-0.2-0.5c-0.1-0.1-0.3-0.2-0.5-0.2h-6.2c-0.2,0-0.4,0.1-0.6,0.2c-0.2,0.2-0.2,0.4-0.2,0.5v8.2h-7.4
					c-0.2,0-0.4,0.1-0.5,0.2c-0.2,0.2-0.2,0.4-0.2,0.5c0,0.2,0.1,0.4,0.2,0.5c0.1,0.2,0.3,0.2,0.5,0.2h27.1
					c-0.1,0.1-0.2,0.4-0.5,0.9c-0.5,1.1-0.7,2.3-0.7,3.5c0,1.4,0.3,2.6,0.8,3.6c0.3,0.6,0.8,1.4,1.6,2.3l0.2,0.1
					c0.8,0.8,1.8,1.4,3,1.8c0.9,0.3,1.8,0.5,2.7,0.5c0.9,0,2-0.2,3.3-0.5c0.9-0.3,1.8-0.9,2.7-1.8l0.4-0.4c0.7-0.8,1.2-1.7,1.6-2.7
					c0.2-0.6,0.4-1.4,0.4-2.4H-95 M-106.3-166.5l0.1,0.1c0.7,0.7,1.2,1.5,1.5,2.4c0.2,0.5,0.3,1.3,0.4,2.2v0.2
					c0,0.8-0.1,1.6-0.4,2.3c-0.3,0.7-0.7,1.5-1.3,2.2l-0.3,0.3c-0.7,0.7-1.4,1.2-2.2,1.5c-0.8,0.3-1.6,0.5-2.6,0.5
					c-0.7,0-1.4-0.1-2.2-0.4c-0.9-0.3-1.7-0.8-2.5-1.5l-0.1-0.1c-0.6-0.6-1.1-1.2-1.5-1.9c-0.4-0.9-0.6-1.9-0.6-3
					c0-0.9,0.2-1.9,0.6-2.9c0.2-0.4,0.5-0.8,1-1.4c0.2-0.3,0.4-0.5,0.5-0.6l0.3-0.3c0.7-0.6,1.3-1,1.9-1.2c1-0.3,1.9-0.5,2.7-0.5
					c1.1,0,2.1,0.2,2.9,0.6c0.2,0.2,0.6,0.5,1,0.8C-106.8-167-106.5-166.8-106.3-166.5 M-125.4-184.8v1.7h-2.4v-1.7H-125.4
					 M-120.6-182v1.7h-4.2v-1.7H-120.6 M-123.6-179v1.7h-2.4v-1.7H-123.6 M-123-173.8v-1.7h2.4v1.7H-123 M-111.9-176.7h-2.4v-1.7
					h2.4V-176.7 M-114.3-174.8v1.7h-2.4v-1.7H-114.3 M-136-173.1v-1.7h4.2v1.7H-136 M-109.6-165.8c-0.5-0.2-1-0.2-1.4-0.2l-1.4-1
					h-0.1l-0.5,1.5c-0.5,0.3-0.8,0.5-0.9,0.6l-0.2,0.1c-0.1,0.1-0.4,0.5-0.9,1.2c-0.3,0.6-0.4,1.2-0.4,1.8l-1,1.3v0.1l1.4,0.4
					c0.2,0.4,0.5,0.8,0.9,1.2l0.2,0.2l0.7-4.5L-109.6-165.8 M-108-164.6c0-0.1,0-0.1-0.1-0.1l-0.1-0.1l-0.8,4.5l-3.4,2.8
					c0.4,0.1,0.9,0.2,1.3,0.2l1.5,0.9l0.7-1.5l0.9-0.7l0.1-0.2c0.3-0.4,0.6-0.8,0.8-1.3c0.2-0.4,0.2-0.9,0.2-1.5v-0.1l1-1.2
					l-1.5-0.6C-107.5-164.2-107.8-164.5-108-164.6z"/>
			</g>
		</g>
	</g>
	<g transform="matrix( 1, 0, 0, 1, 154.95,189.95) ">
		<g>
			<g id="Layer0_1_FILL">
				<path class="st1" d="M-131.8-173.1v-1.7h-4.2v1.7H-131.8 M-116.6-174.8v1.7h2.4v-1.7H-116.6 M-111.9-178.4h-2.4v1.7h2.4V-178.4
					 M-123-175.6v1.7h2.4v-1.7H-123 M-126-177.3h2.4v-1.7h-2.4V-177.3 M-120.6-180.2v-1.7h-4.2v1.7H-120.6 M-125.4-183.1v-1.7h-2.4
					v1.7H-125.4z"/>
			</g>
		</g>
	</g>
	<g transform="matrix( 1, 0, 0, 1, 0,0) ">
		<g>
			<g id="Layer0_2_FILL">
				<path class="st2" d="M40.7,33.9l5.3-4.3l1.1-6.8l-5.3,4.4L40.7,33.9 M43.2,28.4c0-0.3,0-0.5,0-0.6c0-0.1,0.2-0.2,0.5-0.4
					c0.2,0,0.4,0,0.6,0.1c0.2,0.1,0.3,0.3,0.4,0.5c0,0.3,0,0.5,0,0.6c-0.1,0.2-0.3,0.3-0.4,0.4c-0.3,0-0.5,0-0.6-0.2
					C43.4,28.9,43.2,28.7,43.2,28.4z"/>
			</g>
		</g>
	</g>
	<g transform="matrix( 1, 0, 0, 1, 154.95,189.95) ">
		<g>
			<g id="Layer0_3_FILL">
				<path class="st0" d="M-76.5-180.1h-3.7v14h3.7V-180.1 M-83.7-176.9l1-1.3c-0.7-0.7-1.4-1.2-2.2-1.5c-0.8-0.3-1.7-0.5-2.8-0.5
					c-1,0-2,0.2-3,0.5c-0.9,0.4-1.6,0.9-2.1,1.5s-1,1.4-1.3,2.3c-0.3,0.8-0.4,1.8-0.4,2.9c0,1.2,0.2,2.2,0.5,3
					c0.3,0.9,0.8,1.7,1.4,2.3c0.6,0.6,1.3,1.1,2,1.4c0.9,0.3,1.7,0.5,2.4,0.5c0.4,0,0.8,0,1.4-0.1c0.3,0,0.8-0.1,1.5-0.3
					c0.6-0.2,1.1-0.5,1.4-0.7c0.4-0.3,0.9-0.7,1.3-1.1l-1.1-1.4c-0.1-0.2-0.4-0.3-0.6-0.3c-0.1,0-0.2,0-0.4,0.1
					c-0.1,0.1-0.2,0.1-0.3,0.2l-0.4,0.2c-0.1,0.1-0.3,0.2-0.4,0.3c-0.3,0.1-0.5,0.2-0.6,0.2c-0.2,0-0.5,0-0.9,0
					c-1,0-1.8-0.4-2.4-1.1c-0.6-0.7-0.9-1.8-0.9-3.2c0-0.7,0.1-1.4,0.2-1.9c0.1-0.5,0.4-1,0.6-1.4c0.2-0.4,0.6-0.7,1-0.9
					c0.3-0.2,0.8-0.2,1.4-0.2c0.5,0,0.9,0,1.2,0.1l0.8,0.3c0.2,0.1,0.3,0.2,0.5,0.3c0.2,0.1,0.4,0.1,0.5,0.1c0.2,0,0.3,0,0.4-0.1
					C-84-176.7-83.8-176.8-83.7-176.9 M-76.2-183.2c0.1-0.3,0.2-0.6,0.2-0.9c0-0.3-0.1-0.6-0.2-0.9c-0.2-0.3-0.3-0.6-0.5-0.7
					c-0.2-0.2-0.4-0.3-0.7-0.4c-0.3-0.1-0.6-0.2-0.9-0.2c-0.3,0-0.6,0.1-0.9,0.2c-0.3,0.1-0.6,0.3-0.7,0.4c-0.2,0.2-0.4,0.5-0.5,0.7
					c-0.1,0.2-0.2,0.5-0.2,0.9c0,0.4,0.1,0.7,0.2,0.9c0.1,0.2,0.2,0.4,0.5,0.7c0.2,0.2,0.4,0.4,0.7,0.5c0.4,0.1,0.7,0.2,0.9,0.2
					c0.4,0,0.7-0.1,0.9-0.2c0.4-0.2,0.7-0.4,0.7-0.5C-76.5-182.8-76.3-183.1-76.2-183.2 M-60.5-180.1h-3.3l5.6,12.8l-2.7,5.7h2.8
					c0.4,0,0.7-0.1,0.8-0.2c0.2-0.1,0.3-0.3,0.4-0.5l7.6-17.8h-3c-0.2,0-0.4,0.1-0.6,0.2c-0.1,0.1-0.3,0.2-0.4,0.4l-3,8.3l-3.1-8.3
					c-0.1-0.2-0.3-0.4-0.4-0.4C-60-180-60.2-180.1-60.5-180.1 M-64.6-177.4v-2.6h-3.6v-4.2h-1.9c-0.5,0-0.7,0.2-0.8,0.6l-0.7,3.6
					l-2.2,0.4v1.4c0,0.3,0.1,0.5,0.2,0.6c0.1,0.1,0.3,0.2,0.5,0.2h1.3v7.6c0,0.5,0.1,1.1,0.2,1.6c0.1,0.4,0.4,0.8,0.8,1.2
					c0.3,0.3,0.8,0.6,1.2,0.8c0.4,0.2,0.9,0.2,1.7,0.2c0.7,0,1.4-0.1,2-0.3c0.6-0.2,1.2-0.5,1.8-0.9l-1.1-1.8l-0.2-0.2
					c-0.2-0.1-0.3-0.1-0.3-0.1c-0.1,0-0.2,0-0.2,0.1c-0.1,0-0.2,0.1-0.3,0.1l-0.3,0.1c-0.1,0-0.3,0-0.5,0c-0.3,0-0.6-0.1-0.8-0.3
					c-0.2-0.3-0.3-0.6-0.3-0.9v-7.4H-64.6 M-38.7-179.6c-0.1-0.1-0.4-0.2-0.8-0.3c-0.3-0.1-0.6-0.1-1.1-0.1c-1,0-1.8,0.3-2.4,0.8
					c-0.8,0.6-1.3,1.3-1.7,2.2l-0.2-2.1c-0.1-0.3-0.1-0.5-0.2-0.5c-0.1-0.1-0.3-0.1-0.5-0.1H-47v13.7h2.4v-8.7
					c0.4-1,0.9-1.7,1.4-2.1c0.5-0.5,1.3-0.7,2.1-0.7c0.5,0,0.9,0,1.1,0.1c0.2,0.1,0.4,0.1,0.6,0.1c0.2,0,0.3-0.1,0.4-0.3
					L-38.7-179.6 M-26.1-166v-8.8c0-0.8-0.1-1.5-0.3-2.1c-0.2-0.7-0.5-1.2-0.9-1.6c-0.4-0.4-0.9-0.8-1.5-1c-0.6-0.3-1.3-0.4-2.1-0.4
					c-1,0-2,0.2-2.9,0.5c-0.8,0.3-1.6,0.8-2.4,1.6l0.4,0.8l0.3,0.3c0.1,0.1,0.3,0.1,0.4,0.1c0.1,0,0.4-0.1,0.6-0.2l0.7-0.5
					c0.3-0.2,0.6-0.3,1.1-0.5c0.4-0.2,0.9-0.2,1.4-0.2c0.9,0,1.6,0.3,2,0.8c0.5,0.6,0.7,1.4,0.7,2.5v1c-1.6,0-2.9,0.1-3.9,0.3
					c-1,0.2-1.9,0.6-2.6,1c-0.7,0.4-1.2,0.8-1.5,1.3s-0.4,1-0.4,1.6c0,0.6,0.1,1.1,0.3,1.6c0.2,0.5,0.5,0.9,0.8,1.1
					c0.3,0.3,0.7,0.5,1.2,0.6c0.5,0.2,1,0.2,1.5,0.2c0.5,0,1,0,1.4-0.1c0.3-0.1,0.7-0.2,1.2-0.4c0.5-0.3,0.8-0.5,1-0.6
					c0.4-0.3,0.8-0.6,1-0.9l0.2,1.3c0,0.2,0.1,0.4,0.3,0.5c0.1,0,0.3,0,0.5,0.1H-26.1 M-33.2-171.5c0.5-0.2,1.1-0.4,1.9-0.6
					c0.7-0.1,1.7-0.2,2.8-0.2v2.9c-0.1,0.2-0.4,0.4-0.8,0.7c-0.2,0.2-0.5,0.3-0.9,0.5c-0.4,0.2-0.7,0.3-1,0.4c0,0-0.4,0-1.1,0.1
					c-0.3,0-0.6,0-0.9-0.1c-0.2,0-0.5-0.2-0.7-0.4c-0.2-0.1-0.3-0.3-0.4-0.6c-0.1-0.2-0.2-0.5-0.2-0.9c0-0.3,0.1-0.7,0.3-1
					C-34.1-171-33.7-171.2-33.2-171.5 M-10.9-186.1h-2.5v7.6c-0.4-0.5-1-0.9-1.6-1.2c-0.5-0.3-1.3-0.4-2.2-0.4
					c-0.9,0-1.7,0.2-2.5,0.5c-0.6,0.3-1.2,0.8-1.9,1.5c-0.5,0.7-0.9,1.4-1.2,2.3c-0.3,0.9-0.4,1.8-0.4,2.8c0,1.1,0.1,2.1,0.4,3.1
					c0.3,0.9,0.6,1.6,1.1,2.2c0.4,0.6,1,1,1.6,1.3c0.6,0.3,1.3,0.4,2.1,0.4c1,0,1.9-0.2,2.6-0.7c0.8-0.4,1.4-1,2-1.7l0.2,1.6
					c0.1,0.3,0.3,0.5,0.7,0.5h1.4V-186.1 M-20.6-173c0-1.7,0.4-3,1-3.9c0.7-0.9,1.7-1.4,3-1.4c0.6,0,1.2,0.1,1.7,0.4
					c0.5,0.2,1,0.7,1.4,1.4v6.6c-0.5,0.6-1,1.1-1.6,1.5c-0.6,0.3-1.3,0.5-2.1,0.5c-0.4,0-0.9-0.1-1.5-0.2c-0.5-0.2-0.9-0.6-1.1-1
					c-0.2-0.3-0.5-0.9-0.6-1.5C-20.5-171.2-20.6-172-20.6-173 M3.2-177c-0.1-0.6-0.4-1.2-0.9-1.7c-0.4-0.5-0.9-0.8-1.5-1
					c-0.6-0.2-1.3-0.4-2.1-0.4c-1.1,0-2.1,0.2-2.9,0.5c-0.7,0.3-1.6,0.8-2.4,1.6l0.4,0.8c0.1,0.1,0.2,0.2,0.3,0.3
					c0.1,0.1,0.2,0.1,0.4,0.1s0.4-0.1,0.6-0.2l0.7-0.5c0.1-0.1,0.5-0.3,1-0.5c0.4-0.2,0.9-0.2,1.4-0.2c0.9,0,1.6,0.3,2,0.8
					c0.5,0.6,0.7,1.4,0.7,2.5v1c-1.6,0-2.9,0.1-3.9,0.3c-1,0.2-1.8,0.5-2.6,1c-0.7,0.4-1.2,0.9-1.4,1.3c-0.3,0.5-0.5,1.1-0.5,1.6
					c0,0.6,0.1,1.1,0.3,1.6c0.2,0.4,0.4,0.8,0.8,1.1c0.3,0.3,0.7,0.5,1.2,0.6c0.5,0.2,1,0.2,1.5,0.2c0.5,0,1,0,1.4-0.1
					c0.3-0.1,0.7-0.2,1.2-0.4c0.6-0.4,1-0.6,1.1-0.6c0.3-0.2,0.7-0.5,1-0.9l0.3,1.3c0,0.2,0.1,0.4,0.2,0.4c0.2,0.1,0.4,0.1,0.5,0.1
					h1v-8.7C3.5-175.6,3.4-176.3,3.2-177 M-3.5-171.5c0.5-0.3,1.1-0.5,1.9-0.6c0.7-0.1,1.6-0.2,2.8-0.2v2.9
					c-0.4,0.4-0.6,0.6-0.8,0.7c-0.1,0.1-0.4,0.3-0.9,0.5c-0.5,0.2-0.8,0.3-1,0.4c0,0-0.4,0-1.1,0.1c-0.3,0-0.6,0-0.9-0.1
					c-0.2,0-0.5-0.2-0.7-0.4c-0.2-0.1-0.3-0.3-0.4-0.6c-0.1-0.2-0.2-0.5-0.2-0.9c0.1-0.5,0.3-0.8,0.4-1
					C-4.3-171-3.9-171.3-3.5-171.5 M14.8-177.6c0.1,0.1,0.3,0.1,0.5,0.1c0.2,0,0.3-0.1,0.4-0.3l0.3-1.8c-0.3-0.2-0.6-0.3-0.9-0.3
					c-0.3-0.1-0.6-0.1-1-0.1c-0.9,0-1.8,0.3-2.4,0.8c-0.6,0.5-1.2,1.2-1.7,2.2l-0.2-2.1c0-0.3-0.1-0.4-0.2-0.5
					c-0.1-0.1-0.3-0.1-0.5-0.1H7.7v13.7h2.4v-8.7c0.4-0.9,0.9-1.7,1.4-2.1c0.5-0.5,1.3-0.7,2.1-0.7
					C14.2-177.7,14.6-177.7,14.8-177.6z"/>
			</g>
		</g>
	</g>
	<g transform="matrix( 0.949981689453125, 0, 0, 0.949981689453125, 92.85,5.9) ">
		<g>
			<g id="Layer0_4_FILL">
				<path class="st0" d="M-51.5,24.5c0.3,0,0.5-0.1,0.7-0.3c0.2-0.2,0.3-0.4,0.3-0.7c0-0.3-0.1-0.5-0.3-0.7
					c-0.2-0.2-0.4-0.3-0.7-0.3c-0.3,0-0.5,0.1-0.7,0.3c-0.2,0.2-0.3,0.4-0.3,0.7c0,0.3,0.1,0.5,0.3,0.7
					C-52,24.4-51.8,24.5-51.5,24.5z"/>
			</g>
		</g>
	</g>
	<g transform="matrix( 1, 0, 0, 1, 343.65,250.1) ">
		<g>
			<defs>
				<rect id="SVGID_1_" x="-242.9" y="-226.1" width="65.6" height="11.4"/>
			</defs>
			<clipPath id="SVGID_2_">
				<use xlink:href="#SVGID_1_"  style="overflow:visible;"/>
			</clipPath>
			<text transform="matrix(1 0 0 1 -241.901 -217.3945)" class="st0 st3 st4">by</text>
			<text transform="matrix(1 0 0 1 -233.1666 -217.3945)" class="st5 st3 st4"> </text>
			<text transform="matrix(1 0 0 1 -230.7516 -217.3945)" class="st2 st3 st4">opentransport</text>
		</g>
	</g>
</g>
</svg>
