<svg width="128" height="128" viewBox="0 0 128 128" fill="none" xmlns="http://www.w3.org/2000/svg">
<rect width="128" height="128" rx="20" fill="#1A1A1A"/>
<rect x="9" y="9" width="110" height="110" rx="15" fill="white"/>
<rect x="70" y="69" width="49" height="8" fill="#1A1A1A"/>
<line x1="78" y1="67" x2="119" y2="67" stroke="black" stroke-width="4"/>
<rect x="28" y="52" width="13" height="19" fill="#1A1A1A"/>
<rect x="47" y="31" width="17" height="40" fill="#1A1A1A"/>
<rect x="69" y="43" width="14" height="22" fill="#1A1A1A"/>
<rect x="28" y="61" width="25" height="12" fill="#1A1A1A"/>
<path d="M52 61L62.5 65.1786H69.5H77L69.5 70.2857L66.5 74H52V61Z" fill="#1A1A1A" stroke="#1A1A1A"/>
<rect x="49" y="35" width="4" height="3" fill="white"/>
<rect x="52" y="45" width="4" height="3" fill="white"/>
<rect x="76" y="47" width="4" height="3" fill="white"/>
<rect x="57" y="53" width="4" height="3" fill="white"/>
<rect x="72" y="53" width="4" height="3" fill="white"/>
<rect x="54" y="40" width="7" height="3" fill="white"/>
<rect x="31" y="56" width="7" height="3" fill="white"/>
<rect x="6" y="72" width="120" height="47" fill="#1A1A1A"/>
<g filter="url(#filter0_d)">
<path fill-rule="evenodd" clip-rule="evenodd" d="M81.4817 64.3668L84.8435 64.2323L84.709 43.1198C84.5746 42.313 83.9022 41.6406 83.0954 41.6406H69.2445C68.3032 41.6406 67.6308 42.4474 67.6308 43.2543V63.4254H65.4792V30.6137C65.4792 29.6724 64.6724 29 63.8655 29H46.5183C45.577 29 44.9046 29.8068 44.9046 30.6137V60.467H42.8875V52.1296C42.8875 51.1883 42.0807 50.5159 41.2738 50.5159H27.9609C27.0196 50.5159 26.3472 51.3227 26.3472 52.1296V69.6112H10.6137C9.67237 69.6112 9 70.4181 9 71.2249C9 72.1663 9.80685 72.8386 10.6137 72.8386H27.8264C28.7677 72.8386 29.4401 72.0318 29.4401 71.2249V53.6088H39.6601V61.9462C39.6601 62.8875 40.467 63.5599 41.2738 63.5599H46.2494C47.1907 63.5599 47.8631 62.7531 47.8631 61.9462V32.2274H61.9829V65.0391C61.9829 65.9804 62.7897 66.6528 63.5966 66.6528H68.9755C69.9169 66.6528 70.5892 65.846 70.5892 65.0391V44.868H81.3472L81.4817 64.3668Z" fill="black"/>
<path d="M77.313 98.9267C79.0611 99.599 80.9438 99.868 83.0954 99.868C85.5159 99.868 87.8019 99.4645 89.9535 98.7922C92.1051 97.9853 93.9878 96.6406 95.7359 94.8924L96.4083 94.22L96.5428 94.0856C98.022 92.3374 99.0978 90.4548 99.9046 88.4377C100.443 86.824 100.711 85.0758 100.846 83.3276H117.386C118.328 83.3276 119 82.5208 119 81.7139C119 80.7726 118.193 80.1002 117.386 80.1002H101.249C101.115 78.7555 100.711 77.4108 100.308 76.066C99.8118 74.66 99.1121 73.3048 98.2402 72.0318H93.5844C95.0636 73.511 96.1394 75.2592 96.8117 77.1418C97.3496 78.4866 97.6186 80.1003 97.6186 81.7139V82.2518C97.6186 84 97.3496 85.7482 96.8117 87.2274C96.1394 88.8411 95.198 90.3203 93.9878 91.7995L93.3154 92.4719C91.9707 93.9511 90.357 95.0269 88.6088 95.6993C86.9951 96.3716 84.978 96.7751 82.9609 96.7751H82.8264C81.2127 96.7751 79.599 96.5061 78.1198 95.9682C76.1027 95.2958 74.3545 94.2201 72.7408 92.7408L72.4719 92.4719C71.1271 91.2616 70.1858 89.9169 69.5134 88.4377C68.5721 86.555 68.0342 84.4034 68.0342 81.9829C68.0342 79.8313 68.5721 77.8142 69.379 75.9315C70.1052 74.4791 70.9403 73.2446 72.0806 72.0318C72.2071 71.8971 72.3375 71.7628 72.4719 71.6284C72.6064 71.5611 72.7072 71.4603 72.8081 71.3594C72.9089 71.2586 73.0098 71.1577 73.1443 71.0905L73.2787 70.956C74.489 69.8802 75.8337 68.9389 77.313 68.401C79.0611 67.7286 80.9438 67.3252 82.9609 67.3252C85.3814 67.3252 87.533 67.7286 89.2812 68.8044C90.7604 69.6113 92.1051 70.5526 93.3154 71.7628L93.5844 72.0318H98.2402C97.6944 71.235 97.0813 70.4704 96.4083 69.7457L96.1394 69.4768C94.6601 67.9976 93.0465 66.7873 91.2983 65.9804C89.2812 64.9046 87.1296 64.3667 84.8435 64.2323L81.4817 64.3668C79.599 64.5012 77.8509 64.9046 76.2372 65.577C74.489 66.2494 72.8753 67.3252 71.3961 68.6699L70.5892 69.4768C69.8402 70.294 69.1256 71.1456 68.4978 72.0318C67.886 72.8955 67.3567 73.792 66.9584 74.7213C65.8826 77.0073 65.3447 79.4279 65.3447 82.2518C65.3447 85.0758 65.8826 87.6308 67.0929 89.9169C67.8998 91.665 69.11 93.2787 70.5892 94.7579L70.8582 95.0269C72.7408 96.7751 74.8924 98.1198 77.313 98.9267Z" fill="black"/>
</g>
<g filter="url(#filter1_d)">
<path d="M77.9682 98.6944C79.7164 99.3667 81.599 99.6357 83.7506 99.6357C86.1711 99.6357 88.4572 99.2323 90.6088 98.5599C92.7604 97.7531 94.643 96.4083 96.3912 94.6601L97.0636 93.9878L97.198 93.8533C98.6773 92.1051 99.753 90.2225 100.56 88.2054C101.098 86.5917 101.367 84.8435 101.501 83.0954H118.042C118.983 83.0954 119.655 82.2885 119.655 81.4817C119.655 80.5404 118.848 79.868 118.042 79.868H101.905C101.77 78.5232 101.367 77.1785 100.963 75.8337C100.467 74.4277 99.7673 73.0725 98.8954 71.7995H94.2396C95.7188 73.2787 96.7946 75.0269 97.467 76.9095C98.0049 78.2543 98.2738 79.868 98.2738 81.4817V82.0196C98.2738 83.7677 98.0049 85.5159 97.467 86.9951C96.7946 88.6088 95.8533 90.088 94.643 91.5672L93.9707 92.2396C92.6259 93.7188 91.0122 94.7946 89.264 95.467C87.6504 96.1394 85.6332 96.5428 83.6161 96.5428H83.4817C81.868 96.5428 80.2543 96.2738 78.7751 95.7359C76.7579 95.0636 75.0098 93.9878 73.3961 92.5086L73.1271 92.2396C71.7824 91.0293 70.8411 89.6846 70.1687 88.2054C69.2274 86.3227 68.6895 84.1712 68.6895 81.7506C68.6895 79.599 69.2274 77.5819 70.0342 75.6993C70.7604 74.2468 71.5956 73.0123 72.7358 71.7995C72.8624 71.6649 72.9928 71.5305 73.1271 71.3961C73.2616 71.3289 73.3625 71.228 73.4633 71.1271C73.5642 71.0263 73.665 70.9254 73.7995 70.8582L73.934 70.7237C75.1442 69.6479 76.489 68.7066 77.9682 68.1687C79.7164 67.4963 81.599 67.0929 83.6161 67.0929C86.0367 67.0929 88.1883 67.4963 89.9364 68.5721C91.4156 69.379 92.7604 70.3203 93.9707 71.5306L94.2396 71.7995H98.8954C98.3497 71.0028 97.7365 70.2382 97.0636 69.5135L96.7946 69.2445C95.3154 67.7653 93.7017 66.555 91.9535 65.7482C89.9364 64.6724 87.7848 64.1345 85.4988 64L82.1369 64.1345C80.2543 64.269 78.5061 64.6724 76.8924 65.3447C75.1442 66.0171 73.5306 67.0929 72.0513 68.4377L71.2445 69.2445C70.4954 70.0617 69.7808 70.9134 69.1531 71.7995C68.5412 72.6632 68.0119 73.5597 67.6137 74.489C66.5379 76.7751 66 79.1956 66 82.0196C66 84.8435 66.5379 87.3985 67.7482 89.6846C68.555 91.4328 69.7653 93.0465 71.2445 94.5257L71.5134 94.7946C73.3961 96.5428 75.5477 97.8875 77.9682 98.6944Z" fill="white"/>
</g>
<path opacity="0.9" d="M80.0025 70.687L78.9267 73.7799C78.2543 74.1833 77.582 74.5868 77.0441 75.1247C76.9096 75.2591 76.7751 75.3936 76.6406 75.5281C75.8338 76.3349 75.1614 77.2763 74.758 78.2176C74.2201 79.4278 73.9511 80.6381 73.9511 82.1173L71.7996 84.9413C71.7996 85.0758 71.7996 85.0758 71.7996 85.2102L74.758 86.1516C75.1614 87.0929 75.8338 87.8997 76.6406 88.7066L76.7751 88.841C76.9096 88.9755 77.0441 89.11 77.1785 89.2445L78.9267 79.5623L86.3228 73.3765C85.3815 72.9731 84.3057 72.8386 83.2299 72.8386L80.2714 70.687C80.2714 70.687 80.137 70.687 80.0025 70.687ZM89.8191 75.6626C89.6846 75.6626 89.6846 75.5281 89.5502 75.5281C89.4157 75.3936 89.2812 75.2591 89.1467 75.1247L87.5331 84.5379L80.0025 90.7237H80.137C81.0783 90.9926 82.0196 91.1271 83.0954 91.1271L86.3228 93.1442L87.6675 89.9168C88.3399 89.5134 89.0123 88.9755 89.6846 88.4376C89.8191 88.3032 89.9536 88.1687 90.0881 88.0342C90.8949 87.0929 91.4328 86.1516 91.8362 85.2102C92.2397 84.2689 92.3741 83.1931 92.3741 82.1173V81.9829L94.5257 79.1589L91.4328 77.8142C90.8949 77.1418 90.4915 76.3349 89.8191 75.6626Z" fill="white"/>
<path d="M89.1466 75.1245L89.9534 70.2834L86.1882 73.3764L78.7921 79.5622L77.0439 89.2443L76.2371 93.9509L79.8679 90.9925L87.3984 84.8067L89.1466 75.1245ZM82.6918 80.2345C83.0953 80.1001 83.6331 80.2345 84.0366 80.5035C84.44 80.7724 84.7089 81.0414 84.8434 81.5793C84.9779 82.1172 84.9779 82.5206 84.7089 82.924C84.44 83.3274 84.171 83.5964 83.6331 83.7309C83.0953 83.8654 82.6918 83.7309 82.2884 83.4619C81.885 83.193 81.616 82.924 81.4816 82.3861C81.3471 81.8482 81.3471 81.4448 81.616 81.0414C81.885 80.638 82.2884 80.369 82.6918 80.2345Z" fill="#FF6600"/>
<defs>
<filter id="filter0_d" x="5" y="29" width="118" height="78.868" filterUnits="userSpaceOnUse" color-interpolation-filters="sRGB">
<feFlood flood-opacity="0" result="BackgroundImageFix"/>
<feColorMatrix in="SourceAlpha" type="matrix" values="0 0 0 0 0 0 0 0 0 0 0 0 0 0 0 0 0 0 127 0"/>
<feOffset dy="4"/>
<feGaussianBlur stdDeviation="2"/>
<feColorMatrix type="matrix" values="0 0 0 0 0 0 0 0 0 0 0 0 0 0 0 0 0 0 0.25 0"/>
<feBlend mode="normal" in2="BackgroundImageFix" result="effect1_dropShadow"/>
<feBlend mode="normal" in="SourceGraphic" in2="effect1_dropShadow" result="shape"/>
</filter>
<filter id="filter1_d" x="62" y="64" width="61.6553" height="43.6357" filterUnits="userSpaceOnUse" color-interpolation-filters="sRGB">
<feFlood flood-opacity="0" result="BackgroundImageFix"/>
<feColorMatrix in="SourceAlpha" type="matrix" values="0 0 0 0 0 0 0 0 0 0 0 0 0 0 0 0 0 0 127 0"/>
<feOffset dy="4"/>
<feGaussianBlur stdDeviation="2"/>
<feColorMatrix type="matrix" values="0 0 0 0 0 0 0 0 0 0 0 0 0 0 0 0 0 0 0.25 0"/>
<feBlend mode="normal" in2="BackgroundImageFix" result="effect1_dropShadow"/>
<feBlend mode="normal" in="SourceGraphic" in2="effect1_dropShadow" result="shape"/>
</filter>
</defs>
</svg>
