<?xml version="1.0" encoding="utf-8"?>
<!-- Generator: Adobe Illustrator 24.1.2, SVG Export Plug-In . SVG Version: 6.00 Build 0)  -->
<svg version="1.1" id="Layer_1" xmlns="http://www.w3.org/2000/svg" xmlns:xlink="http://www.w3.org/1999/xlink" x="0px" y="0px"
	 viewBox="0 0 300 120" style="enable-background:new 0 0 300 120;" xml:space="preserve">
<style type="text/css">
	.st0{fill:#1A1A1A;}
	.st1{opacity:0.15;}
	.st2{fill:#FF6600;}
</style>
<g>
	<path class="st0" d="M104.9,48.5c-2,0-3.8,0.3-5.4,1c-1.5,0.7-2.9,1.6-3.9,2.8s-1.8,2.5-2.4,4.1c-0.6,1.5-0.9,3.3-0.9,5.2
		c0,2.1,0.3,3.9,1,5.6c0.6,1.6,1.4,3,2.5,4.1c1.1,1.2,2.3,2,3.7,2.6c1.4,0.6,2.9,0.9,4.5,0.9c0.9,0,1.7-0.1,2.7-0.2s1.8-0.3,2.7-0.7
		c0.9-0.3,1.7-0.8,2.6-1.3s1.6-1.2,2.3-2.1l-1.9-2.5c-0.3-0.4-0.7-0.6-1.2-0.6c-0.3,0-0.6,0.1-0.8,0.2c-0.2,0.1-0.4,0.2-0.7,0.4
		c-0.2,0.2-0.5,0.4-0.7,0.6c-0.2,0.2-0.5,0.4-0.9,0.6c-0.3,0.2-0.8,0.3-1.2,0.4c-0.5,0.1-1,0.1-1.6,0.1c-1.8,0-3.3-0.7-4.3-2.1
		c-1.1-1.3-1.5-3.4-1.5-6c0-1.2,0.1-2.4,0.4-3.4c0.2-1,0.6-1.8,1.2-2.5c0.5-0.7,1.1-1.2,1.8-1.6c0.8-0.4,1.6-0.6,2.7-0.6
		c0.8,0,1.5,0.1,2,0.3c0.5,0.2,1,0.4,1.4,0.6c0.4,0.2,0.8,0.4,1.1,0.6c0.3,0.2,0.7,0.3,1,0.3c0.4,0,0.7-0.1,0.9-0.2
		c0.2-0.1,0.4-0.4,0.6-0.6l1.7-2.4c-1.2-1.2-2.5-2-3.9-2.7S106.9,48.5,104.9,48.5 M125.4,48.8h-6.8v25.5h6.8V48.8 M123.6,37.8
		c-0.5-0.2-1.1-0.4-1.7-0.4c-0.6,0-1.1,0.1-1.5,0.4c-0.5,0.2-1,0.5-1.3,0.9c-0.4,0.4-0.7,0.9-0.9,1.3c-0.2,0.5-0.4,1.1-0.4,1.6
		s0.1,1.2,0.4,1.6c0.2,0.5,0.5,1,0.9,1.3c0.4,0.4,0.9,0.7,1.3,0.9s1.1,0.3,1.5,0.3c0.6,0,1.2-0.1,1.7-0.3c0.5-0.2,1-0.5,1.3-0.9
		c0.4-0.4,0.7-0.9,1-1.3c0.2-0.5,0.3-1.1,0.3-1.6c0-0.6-0.1-1.2-0.3-1.6s-0.6-1-1-1.3S124.2,38,123.6,37.8 M147,53.8v-4.8h-6.5v-7.7
		h-3.6c-0.8,0-1.3,0.4-1.5,1.2l-1.3,6.6l-4,0.8v2.7c0,0.5,0.1,0.8,0.4,1.1c0.2,0.2,0.6,0.3,0.9,0.3h2.4v13.7c0,1.2,0.2,2.1,0.5,3
		c0.3,0.9,0.8,1.6,1.4,2.2c0.6,0.6,1.3,1.2,2.2,1.4c0.9,0.3,1.9,0.5,3.1,0.5c1.3,0,2.5-0.2,3.7-0.6c1.2-0.4,2.2-1,3.2-1.7l-2-3.3
		c-0.1-0.2-0.3-0.4-0.4-0.5s-0.3-0.1-0.5-0.1c-0.1,0-0.3,0-0.4,0.1c-0.1,0.1-0.3,0.1-0.5,0.2s-0.4,0.2-0.6,0.3
		c-0.2,0.1-0.5,0.1-0.9,0.1c-0.6,0-1.1-0.2-1.4-0.6c-0.3-0.4-0.5-1-0.5-1.7V53.8H147 M168.4,49.2c-0.3,0.2-0.6,0.5-0.7,0.9
		l-4.5,12.1c-0.4,1-0.7,2-1,3c-0.1-0.5-0.3-1-0.4-1.4c-0.1-0.5-0.3-1-0.5-1.4l-4.8-12.2c-0.1-0.3-0.4-0.6-0.7-0.9
		c-0.3-0.3-0.7-0.4-1.2-0.4h-6L159,72.3l-4.8,10.3h5.1c0.7,0,1.2-0.1,1.4-0.4c0.3-0.3,0.6-0.6,0.8-1.1l13.7-32.3h-5.5
		C169.2,48.8,168.8,48.9,168.4,49.2 M189.9,53.2c0.9,0,1.5,0.1,2,0.3c0.5,0.1,0.9,0.2,1.1,0.2c0.4,0,0.7-0.2,0.8-0.6l0.6-3.3
		c-0.5-0.3-1-0.5-1.5-0.7c-0.6-0.2-1.2-0.3-1.8-0.3c-1.7,0-3.2,0.5-4.4,1.5c-1.3,1-2.3,2.3-3.2,4l-0.3-3.9c-0.1-0.4-0.2-0.8-0.4-1
		s-0.5-0.3-1-0.3h-2.5v25h4.4V58.4c0.7-1.7,1.5-3,2.6-3.9C187.1,53.6,188.5,53.2,189.9,53.2 M217.2,58.3c0-1.4-0.2-2.7-0.6-3.8
		c-0.4-1.2-1-2.2-1.7-3c-0.8-0.9-1.6-1.4-2.7-1.9s-2.3-0.7-3.7-0.7c-1.9,0-3.7,0.3-5.3,1c-1.6,0.7-3.1,1.7-4.5,3.1l0.8,1.4
		c0.1,0.2,0.3,0.4,0.6,0.6c0.2,0.2,0.5,0.3,0.8,0.3c0.4,0,0.8-0.1,1.2-0.4c0.4-0.3,0.9-0.6,1.3-0.9c0.6-0.4,1.2-0.7,1.9-1
		c0.8-0.3,1.6-0.4,2.7-0.4c1.6,0,2.9,0.5,3.7,1.5c0.9,1.1,1.2,2.5,1.2,4.5v1.9c-2.8,0-5.2,0.2-7.2,0.7c-1.9,0.5-3.6,1.1-4.7,1.8
		c-1.3,0.7-2.1,1.5-2.7,2.4c-0.6,0.9-0.9,1.8-0.9,2.9c0,1.2,0.2,2.1,0.6,3c0.4,0.9,0.9,1.5,1.5,2.1c0.6,0.6,1.3,1,2.2,1.2
		c0.9,0.3,1.7,0.4,2.7,0.4s1.8-0.1,2.6-0.3c0.8-0.2,1.5-0.4,2.2-0.7c0.7-0.3,1.3-0.8,1.9-1.2c0.6-0.5,1.3-1.1,1.9-1.6l0.5,2.3
		c0.1,0.4,0.3,0.7,0.5,0.9c0.3,0.1,0.7,0.2,1.1,0.2h1.9V58.3 M201.8,67.8c0-0.7,0.2-1.3,0.6-1.9s1.1-1.1,1.9-1.4s2-0.8,3.5-1.1
		c1.4-0.2,3.2-0.4,5.2-0.4v5.2c-0.5,0.5-1,1-1.5,1.4c-0.5,0.4-1.1,0.8-1.6,1.1c-0.6,0.3-1.2,0.5-1.8,0.7c-0.7,0.2-1.3,0.3-2.1,0.3
		c-0.6,0-1.1-0.1-1.5-0.3c-0.5-0.1-1-0.3-1.3-0.7c-0.4-0.3-0.7-0.7-0.9-1.2C201.9,69,201.8,68.5,201.8,67.8 M244.8,74.3V37.9h-4.4
		v13.9c-0.9-1-1.8-1.6-2.9-2.2c-1.1-0.5-2.4-0.8-3.9-0.8c-1.7,0-3.2,0.3-4.5,1c-1.3,0.7-2.5,1.6-3.4,2.8c-1,1.2-1.6,2.6-2.1,4.1
		c-0.5,1.5-0.7,3.3-0.7,5.1c0,2.1,0.2,3.9,0.7,5.6c0.5,1.5,1.1,2.9,1.9,3.9c0.9,1.1,1.8,1.9,3,2.5c1.2,0.5,2.5,0.8,3.9,0.8
		c1.8,0,3.4-0.4,4.7-1.2c1.3-0.8,2.6-1.8,3.7-3.1l0.4,3.1c0.2,0.6,0.6,1,1.3,1L244.8,74.3 M234.5,52.2c1.2,0,2.3,0.2,3.3,0.7
		s1.8,1.3,2.7,2.5v11.9c-0.9,1.2-1.9,2.1-3,2.8s-2.4,1-3.7,1c-1,0-1.9-0.2-2.7-0.5c-0.8-0.4-1.4-1-2-1.7c-0.6-0.8-1-1.7-1.3-2.8
		c-0.3-1.2-0.4-2.6-0.4-4.2c0-3.1,0.6-5.4,1.8-7.1C230.5,53.1,232.2,52.2,234.5,52.2 M266.4,49.5c-1.1-0.5-2.3-0.7-3.7-0.7
		c-1.9,0-3.7,0.3-5.3,1c-1.6,0.7-3.1,1.7-4.5,3.1l0.8,1.4c0.1,0.2,0.3,0.4,0.6,0.6c0.2,0.2,0.5,0.3,0.8,0.3c0.4,0,0.8-0.1,1.2-0.4
		c0.4-0.3,0.9-0.6,1.3-0.9c0.6-0.4,1.2-0.7,1.9-1c0.8-0.3,1.6-0.4,2.7-0.4c1.6,0,2.9,0.5,3.7,1.5c0.9,1.1,1.2,2.5,1.2,4.5v1.9
		c-2.8,0-5.2,0.2-7.2,0.7c-1.9,0.5-3.6,1.1-4.7,1.8c-1.2,0.7-2.1,1.5-2.7,2.4c-0.6,0.9-0.9,1.8-0.9,2.9c0,1.2,0.2,2.1,0.6,3
		c0.4,0.9,0.9,1.5,1.5,2.1c0.6,0.6,1.3,1,2.2,1.2c0.9,0.3,1.7,0.4,2.7,0.4c1,0,1.8-0.1,2.6-0.3c0.8-0.2,1.5-0.4,2.2-0.7
		c0.7-0.3,1.3-0.8,1.9-1.2c0.6-0.5,1.2-1.1,1.9-1.6l0.5,2.3c0.1,0.4,0.3,0.7,0.5,0.9c0.3,0.1,0.7,0.2,1.1,0.2h1.9V58.3
		c0-1.4-0.2-2.7-0.6-3.8c-0.4-1.2-1-2.2-1.7-3C268.3,50.6,267.4,49.9,266.4,49.5 M257,70.7c-0.4-0.3-0.7-0.7-0.9-1.2
		c-0.2-0.5-0.4-1.1-0.4-1.7c0-0.7,0.2-1.3,0.6-1.9c0.4-0.6,1.1-1.1,1.9-1.4c0.9-0.4,2-0.8,3.5-1.1c1.4-0.2,3.2-0.4,5.2-0.4v5.2
		c-0.5,0.5-1,1-1.5,1.4c-0.5,0.4-1.1,0.8-1.6,1.1c-0.6,0.3-1.3,0.5-1.8,0.7c-0.7,0.2-1.3,0.3-2.1,0.3c-0.6,0-1.1-0.1-1.5-0.3
		C257.8,71.2,257.4,71.1,257,70.7 M292.6,53.6c0.4,0,0.7-0.2,0.8-0.6l0.6-3.3c-0.5-0.3-1-0.5-1.5-0.7c-0.6-0.2-1.2-0.3-1.8-0.3
		c-1.7,0-3.2,0.5-4.4,1.5c-1.2,1-2.3,2.3-3.2,4l-0.3-3.9c-0.1-0.4-0.2-0.8-0.4-1c-0.2-0.2-0.5-0.3-1-0.3h-2.5v25h4.4V58.4
		c0.7-1.7,1.5-3,2.6-3.9c1.1-0.9,2.3-1.3,3.8-1.3c0.9,0,1.5,0.1,2,0.3C292,53.6,292.4,53.6,292.6,53.6z"/>
	<g>
		<path class="st1" d="M58.8,64.6L58.8,64.6L58,66.9c-0.5,0.3-1,0.6-1.4,1c-0.1,0.1-0.2,0.2-0.3,0.3c-0.6,0.6-1.1,1.3-1.4,2
			c-0.4,0.9-0.6,1.8-0.6,2.9v0l-1.6,2.1c0,0.1,0,0.1,0,0.2h0l2.2,0.7c0.3,0.7,0.8,1.3,1.4,1.9c0,0,0.1,0.1,0.1,0.1
			c0.1,0.1,0.2,0.2,0.3,0.3l1.3-7.2l5.5-4.6c-0.7-0.3-1.5-0.4-2.3-0.4L59,64.6C59,64.6,58.9,64.6,58.8,64.6 M66.1,68.3
			c-0.1,0-0.1-0.1-0.2-0.1c-0.1-0.1-0.2-0.2-0.3-0.3l-1.2,7v0l-5.6,4.6c0,0,0.1,0,0.1,0c0.7,0.2,1.4,0.3,2.2,0.3h0l2.4,1.5l0,0
			l1-2.4c0.5-0.3,1-0.7,1.5-1.1c0.1-0.1,0.2-0.2,0.3-0.3c0.6-0.7,1-1.4,1.3-2.1c0.3-0.7,0.4-1.5,0.4-2.3v-0.1l1.6-2.1l-2.3-1
			C66.9,69.4,66.6,68.8,66.1,68.3z"/>
		<path class="st2" d="M65.6,67.9l0.6-3.6l-2.8,2.3l-5.5,4.6l-1.3,7.2l-0.6,3.5l2.7-2.2l5.6-4.6v0L65.6,67.9 M60.8,71.7
			c0.3-0.1,0.7,0,1,0.2c0.3,0.2,0.5,0.4,0.6,0.8c0.1,0.4,0.1,0.7-0.1,1c-0.2,0.3-0.4,0.5-0.8,0.6c-0.4,0.1-0.7,0-1-0.2
			c-0.3-0.2-0.5-0.4-0.6-0.8c-0.1-0.4-0.1-0.7,0.1-1C60.2,72,60.5,71.8,60.8,71.7z"/>
		<g>
			<g id="Symbol_2_0_Layer0_1_1_STROKES">
				<path class="st0" d="M61.1,86.3L61.1,86.3c-1.6,0-3-0.2-4.3-0.7c-1.8-0.6-3.4-1.6-4.8-2.9l-0.2-0.2c-1.1-1.1-2-2.3-2.6-3.6
					c-0.9-1.7-1.3-3.6-1.3-5.7c0-2.1,0.4-3.9,1.2-5.6c0.6-1.4,1.6-2.7,2.7-3.9c0.2-0.2,0.4-0.4,0.6-0.6c1.1-1,2.3-1.8,3.6-2.3
					c1.2-0.5,2.5-0.8,3.9-0.9l-0.1-14.5h-8v15c0,0.6-0.5,1.2-1.2,1.2h-4c-0.6,0-1.2-0.5-1.2-1.2V36H34.9v22.1c0,0.6-0.5,1.2-1.2,1.2
					H30c-0.6,0-1.2-0.5-1.2-1.2v-6.2h-7.6V65c0,0.6-0.5,1.2-1.2,1.2H7.2c-0.6,0-1.2-0.5-1.2-1.2c0-0.6,0.5-1.2,1.2-1.2h11.7V50.8
					c0-0.6,0.5-1.2,1.2-1.2H30c0.6,0,1.2,0.5,1.2,1.2V57h1.5V34.8c0-0.6,0.5-1.2,1.2-1.2h12.9c0.6,0,1.2,0.5,1.2,1.2v24.4h1.6v-15
					c0-0.6,0.5-1.2,1.2-1.2h10.3c0.6,0,1.1,0.5,1.2,1.1l0.1,15.7c1.7,0.1,3.3,0.5,4.8,1.3c1.3,0.6,2.5,1.5,3.6,2.6l0.2,0.2
					c1.3,1.4,2.3,3,2.9,4.7c0.3,1,0.6,2,0.7,3h12c0.6,0,1.2,0.5,1.2,1.2c0,0.6-0.5,1.2-1.2,1.2H74.3c-0.1,1.3-0.3,2.6-0.7,3.8
					c-0.6,1.5-1.4,2.9-2.5,4.2c0,0,0,0-0.1,0.1l-0.5,0.5c-1.3,1.3-2.7,2.3-4.3,2.9C64.6,86,62.9,86.3,61.1,86.3z M61,62.1
					c-1.5,0-2.9,0.3-4.2,0.8c-1.1,0.4-2.1,1.1-3,1.9c0,0-0.1,0.1-0.1,0.1c-0.2,0.1-0.3,0.3-0.5,0.4c-1,1-1.7,2-2.3,3.2
					c-0.6,1.4-1,2.9-1,4.5c0,1.8,0.4,3.4,1.1,4.8c0.5,1.1,1.2,2.1,2.2,3l0.2,0.2c1.2,1.1,2.5,1.9,4,2.4c1.1,0.4,2.3,0.6,3.5,0.6h0.1
					c1.5,0,3-0.3,4.2-0.8c1.3-0.5,2.5-1.3,3.5-2.4l0.5-0.5c0.9-1.1,1.6-2.2,2.1-3.4c0.4-1.1,0.6-2.4,0.6-3.7v-0.4
					c0-1.2-0.2-2.4-0.6-3.4c-0.5-1.4-1.3-2.7-2.4-3.8l-0.2-0.2c-0.9-0.9-1.9-1.6-3-2.2C64.4,62.4,62.8,62.1,61,62.1L61,62.1z"/>
			</g>
		</g>
	</g>
</g>
</svg>
