<svg width="300" height="120" viewBox="0 0 300 120" fill="none" xmlns="http://www.w3.org/2000/svg">
<path d="M104.9 51.9C102.9 51.9 101.1 52.2 99.5 52.9C98 53.6 96.6 54.5 95.6 55.7C94.6 56.9 93.8 58.2 93.2 59.8C92.6 61.3 92.3 63.1 92.3 65C92.3 67.1 92.6 68.9 93.3 70.6C93.9 72.2 94.7 73.6001 95.8 74.7001C96.9 75.9001 98.1 76.7001 99.5 77.3C100.9 77.9 102.4 78.2001 104 78.2001C104.9 78.2001 105.7 78.1 106.7 78C107.7 77.9 108.5 77.7001 109.4 77.3C110.3 77 111.1 76.5 112 76C112.9 75.5 113.6 74.8 114.3 73.9L112.4 71.4C112.1 71 111.7 70.8 111.2 70.8C110.9 70.8 110.6 70.9 110.4 71C110.2 71.1 110 71.2 109.7 71.4C109.5 71.6 109.2 71.8 109 72C108.8 72.2 108.5 72.4 108.1 72.6C107.8 72.8 107.3 72.9 106.9 73C106.4 73.1 105.9 73.1 105.3 73.1C103.5 73.1 102 72.4 101 71C99.9 69.7 99.5 67.6 99.5 65C99.5 63.8 99.6 62.6 99.9 61.6C100.1 60.6 100.5 59.8 101.1 59.1C101.6 58.4 102.2 57.9 102.9 57.5C103.7 57.1 104.5 56.9 105.6 56.9C106.4 56.9 107.1 57 107.6 57.2C108.1 57.4 108.6 57.6 109 57.8C109.4 58 109.8 58.2 110.1 58.4C110.4 58.6 110.8 58.7 111.1 58.7C111.5 58.7 111.8 58.6 112 58.5C112.2 58.4 112.4 58.1 112.6 57.9L114.3 55.5C113.1 54.3 111.8 53.5 110.4 52.8C109 52.1 106.9 51.9 104.9 51.9ZM125.4 52.2H118.6V77.7001H125.4V52.2ZM123.6 41.2C123.1 41 122.5 40.8 121.9 40.8C121.3 40.8 120.8 40.9 120.4 41.2C119.9 41.4 119.4 41.7 119.1 42.1C118.7 42.5 118.4 43 118.2 43.4C118 43.9 117.8 44.5 117.8 45C117.8 45.5 117.9 46.2 118.2 46.6C118.4 47.1 118.7 47.6 119.1 47.9C119.5 48.3 120 48.6 120.4 48.8C120.8 49 121.5 49.1 121.9 49.1C122.5 49.1 123.1 49 123.6 48.8C124.1 48.6 124.6 48.3 124.9 47.9C125.3 47.5 125.6 47 125.9 46.6C126.1 46.1 126.2 45.5 126.2 45C126.2 44.4 126.1 43.8 125.9 43.4C125.7 43 125.3 42.4 124.9 42.1C124.5 41.8 124.2 41.4 123.6 41.2ZM147 57.2V52.4H140.5V44.7H136.9C136.1 44.7 135.6 45.1 135.4 45.9L134.1 52.5L130.1 53.3V56C130.1 56.5 130.2 56.8 130.5 57.1C130.7 57.3 131.1 57.4 131.4 57.4H133.8V71.1C133.8 72.3 134 73.2 134.3 74.1C134.6 75 135.1 75.7001 135.7 76.3C136.3 76.9 137 77.5 137.9 77.7001C138.8 78 139.8 78.2001 141 78.2001C142.3 78.2001 143.5 78 144.7 77.6C145.9 77.2 146.9 76.6 147.9 75.9L145.9 72.6C145.8 72.4 145.6 72.2 145.5 72.1C145.4 72 145.2 72 145 72C144.9 72 144.7 72 144.6 72.1C144.5 72.2 144.3 72.2 144.1 72.3C143.9 72.4 143.7 72.5 143.5 72.6C143.3 72.7 143 72.7001 142.6 72.7001C142 72.7001 141.5 72.5 141.2 72.1C140.9 71.7 140.7 71.1 140.7 70.4V57.2H147ZM168.4 52.6C168.1 52.8 167.8 53.1 167.7 53.5L163.2 65.6C162.8 66.6 162.5 67.6 162.2 68.6C162.1 68.1 161.9 67.6 161.8 67.2C161.7 66.7 161.5 66.2 161.3 65.8L156.5 53.6C156.4 53.3 156.1 53 155.8 52.7C155.5 52.4 155.1 52.3 154.6 52.3H148.6L159 75.7001L154.2 86H159.3C160 86 160.5 85.9 160.7 85.6C161 85.3 161.3 85 161.5 84.5L175.2 52.2H169.7C169.2 52.2 168.8 52.3 168.4 52.6ZM189.9 56.6C190.8 56.6 191.4 56.7 191.9 56.9C192.4 57 192.8 57.1 193 57.1C193.4 57.1 193.7 56.9 193.8 56.5L194.4 53.2C193.9 52.9 193.4 52.7 192.9 52.5C192.3 52.3 191.7 52.2 191.1 52.2C189.4 52.2 187.9 52.7 186.7 53.7C185.4 54.7 184.4 56 183.5 57.7L183.2 53.8C183.1 53.4 183 53 182.8 52.8C182.6 52.6 182.3 52.5 181.8 52.5H179.3V77.5H183.7V61.8C184.4 60.1 185.2 58.8 186.3 57.9C187.1 57 188.5 56.6 189.9 56.6ZM217.2 61.7C217.2 60.3 217 59 216.6 57.9C216.2 56.7 215.6 55.7 214.9 54.9C214.1 54 213.3 53.5 212.2 53C211.1 52.5 209.9 52.3 208.5 52.3C206.6 52.3 204.8 52.6 203.2 53.3C201.6 54 200.1 55 198.7 56.4L199.5 57.8C199.6 58 199.8 58.2 200.1 58.4C200.3 58.6 200.6 58.7 200.9 58.7C201.3 58.7 201.7 58.6 202.1 58.3C202.5 58 203 57.7 203.4 57.4C204 57 204.6 56.7 205.3 56.4C206.1 56.1 206.9 56 208 56C209.6 56 210.9 56.5 211.7 57.5C212.6 58.6 212.9 60 212.9 62V63.9C210.1 63.9 207.7 64.1 205.7 64.6C203.8 65.1 202.1 65.7 201 66.4C199.7 67.1 198.9 67.9 198.3 68.8C197.7 69.7 197.4 70.6 197.4 71.7001C197.4 72.9001 197.6 73.8 198 74.7001C198.4 75.6001 198.9 76.2001 199.5 76.8C200.1 77.4 200.8 77.8 201.7 78C202.6 78.3 203.4 78.4 204.4 78.4C205.4 78.4 206.2 78.3 207 78.1C207.8 77.9 208.5 77.7 209.2 77.4C209.9 77.1 210.5 76.6001 211.1 76.2001C211.7 75.7001 212.4 75.1 213 74.6L213.5 76.9C213.6 77.3 213.8 77.6 214 77.8C214.3 77.9 214.7 78 215.1 78H217V61.7H217.2ZM201.8 71.2001C201.8 70.5 202 69.9 202.4 69.3C202.8 68.7 203.5 68.2 204.3 67.9C205.1 67.6 206.3 67.1 207.8 66.8C209.2 66.6 211 66.4 213 66.4V71.6C212.5 72.1 212 72.6 211.5 73C211 73.4 210.4 73.8 209.9 74.1C209.3 74.4 208.7 74.6 208.1 74.8C207.4 75 206.8 75.1 206 75.1C205.4 75.1 204.9 75 204.5 74.8C204 74.7001 203.5 74.5 203.2 74.1C202.8 73.8 202.5 73.4 202.3 72.9C201.9 72.4 201.8 71.9001 201.8 71.2001ZM244.8 77.7001V41.3H240.4V55.2C239.5 54.2 238.6 53.6 237.5 53C236.4 52.5 235.1 52.2 233.6 52.2C231.9 52.2 230.4 52.5 229.1 53.2C227.8 53.9 226.6 54.8 225.7 56C224.7 57.2 224.1 58.6 223.6 60.1C223.1 61.6 222.9 63.4 222.9 65.2C222.9 67.3 223.1 69.1 223.6 70.8C224.1 72.3 224.7 73.7001 225.5 74.7001C226.4 75.8 227.3 76.6001 228.5 77.2001C229.7 77.7001 231 78 232.4 78C234.2 78 235.8 77.6 237.1 76.8C238.4 76 239.7 75 240.8 73.7001L241.2 76.8C241.4 77.4 241.8 77.8 242.5 77.8L244.8 77.7001ZM234.5 55.6C235.7 55.6 236.8 55.8 237.8 56.3C238.8 56.8 239.6 57.6 240.5 58.8V70.7001C239.6 71.9001 238.6 72.8 237.5 73.5C236.4 74.2 235.1 74.5 233.8 74.5C232.8 74.5 231.9 74.3 231.1 74C230.3 73.6 229.7 73 229.1 72.3C228.5 71.5 228.1 70.6 227.8 69.5C227.5 68.3 227.4 66.9 227.4 65.3C227.4 62.2 228 59.9 229.2 58.2C230.5 56.5 232.2 55.6 234.5 55.6ZM266.4 52.9C265.3 52.4 264.1 52.2 262.7 52.2C260.8 52.2 259 52.5 257.4 53.2C255.8 53.9 254.3 54.9 252.9 56.3L253.7 57.7C253.8 57.9 254 58.1 254.3 58.3C254.5 58.5 254.8 58.6 255.1 58.6C255.5 58.6 255.9 58.5 256.3 58.2C256.7 57.9 257.2 57.6 257.6 57.3C258.2 56.9 258.8 56.6 259.5 56.3C260.3 56 261.1 55.9 262.2 55.9C263.8 55.9 265.1 56.4 265.9 57.4C266.8 58.5 267.1 59.9 267.1 61.9V63.8C264.3 63.8 261.9 64 259.9 64.5C258 65 256.3 65.6 255.2 66.3C254 67 253.1 67.8001 252.5 68.7001C251.9 69.6 251.6 70.5 251.6 71.6C251.6 72.8 251.8 73.7 252.2 74.6C252.6 75.5 253.1 76.1001 253.7 76.7001C254.3 77.3 255 77.7 255.9 77.9C256.8 78.2 257.6 78.3 258.6 78.3C259.6 78.3 260.4 78.2 261.2 78C262 77.8 262.7 77.6 263.4 77.3C264.1 77 264.7 76.5 265.3 76.1C265.9 75.6 266.5 75 267.2 74.5L267.7 76.8C267.8 77.2001 268 77.5 268.2 77.7001C268.5 77.8 268.9 77.9 269.3 77.9H271.2V61.7C271.2 60.3 271 59 270.6 57.9C270.2 56.7 269.6 55.7 268.9 54.9C268.3 54 267.4 53.3 266.4 52.9ZM257 74.1C256.6 73.8 256.3 73.4 256.1 72.9C255.9 72.4 255.7 71.8001 255.7 71.2001C255.7 70.5 255.9 69.9 256.3 69.3C256.7 68.7 257.4 68.2 258.2 67.9C259.1 67.5 260.2 67.1 261.7 66.8C263.1 66.6 264.9 66.4 266.9 66.4V71.6C266.4 72.1 265.9 72.6 265.4 73C264.9 73.4 264.3 73.8 263.8 74.1C263.2 74.4 262.5 74.6 262 74.8C261.3 75 260.7 75.1 259.9 75.1C259.3 75.1 258.8 75 258.4 74.8C257.8 74.6 257.4 74.5 257 74.1ZM292.6 57C293 57 293.3 56.8 293.4 56.4L294 53.1C293.5 52.8 293 52.6 292.5 52.4C291.9 52.2 291.3 52.1 290.7 52.1C289 52.1 287.5 52.6 286.3 53.6C285.1 54.6 284 55.9 283.1 57.6L282.8 53.7C282.7 53.3 282.6 52.9 282.4 52.7C282.2 52.5 281.9 52.4 281.4 52.4H278.9V77.4H283.3V61.8C284 60.1 284.8 58.8 285.9 57.9C287 57 288.2 56.6 289.7 56.6C290.6 56.6 291.2 56.7 291.7 56.9C292 57 292.4 57 292.6 57Z" fill="#1A1A1A"/>
<mask id="mask0" mask-type="alpha" maskUnits="userSpaceOnUse" x="32" y="41" width="65" height="56">
<rect x="32" y="41" width="65" height="56" fill="white"/>
</mask>
<g mask="url(#mask0)">
<rect x="43.7158" y="60.0273" width="8.34568" height="13.7069" fill="#1A1A1A"/>
<rect x="55.9136" y="44.8777" width="10.9136" height="28.8567" fill="#1A1A1A"/>
<rect x="70.0369" y="53.5344" width="8.98765" height="15.8712" fill="#1A1A1A"/>
<rect x="43.7158" y="66.52" width="16.0494" height="8.65701" fill="#1A1A1A"/>
<path d="M59.1235 66.52L65.8643 69.5345H70.3581H75.1729L70.3581 73.2189L68.4322 75.8984H59.1235V66.52Z" fill="#1A1A1A" stroke="#1A1A1A"/>
<rect x="57.1978" y="47.7632" width="2.5679" height="2.16425" fill="white"/>
<rect x="59.1235" y="54.9773" width="2.5679" height="2.16425" fill="white"/>
<rect x="74.5308" y="56.4204" width="2.5679" height="2.16425" fill="white"/>
<rect x="62.3333" y="60.7488" width="2.5679" height="2.16425" fill="white"/>
<rect x="71.9629" y="60.7488" width="2.5679" height="2.16425" fill="white"/>
<rect x="60.4072" y="51.3704" width="4.49383" height="2.16425" fill="white"/>
<rect x="45.6421" y="62.9131" width="4.49383" height="2.16425" fill="white"/>
<path fill-rule="evenodd" clip-rule="evenodd" d="M78.05 68.949L80.2082 68.852L80.1219 53.6211C80.0356 53.039 79.6039 52.554 79.0859 52.554H70.194C69.5897 52.554 69.1581 53.136 69.1581 53.7181V68.2699H67.7768V44.599C67.7768 43.9199 67.2588 43.4348 66.7409 43.4348H55.6044C55.0001 43.4348 54.5685 44.0169 54.5685 44.599V66.1356H53.2735V60.1209C53.2735 59.4418 52.7555 58.9567 52.2376 58.9567H43.691C43.0867 58.9567 42.655 59.5388 42.655 60.1209V72.7325H32.5545C31.9502 72.7325 31.5186 73.3145 31.5186 73.8966C31.5186 74.5757 32.0365 75.0607 32.5545 75.0607H43.6046C44.2089 75.0607 44.6406 74.4787 44.6406 73.8966V61.188H51.2016V67.2028C51.2016 67.8819 51.7196 68.3669 52.2376 68.3669H55.4317C56.036 68.3669 56.4677 67.7848 56.4677 67.2028V45.7631H65.5323V69.4341C65.5323 70.1131 66.0502 70.5982 66.5682 70.5982H70.0214C70.6257 70.5982 71.0573 70.0161 71.0573 69.4341V54.8822H77.9637L78.05 68.949Z" fill="black"/>
<path d="M75.3738 93.8811C76.4961 94.3662 77.7047 94.5602 79.0859 94.5602C80.6399 94.5602 82.1075 94.2691 83.4887 93.7841C84.87 93.202 86.0786 92.2319 87.2009 90.9707L87.6325 90.4857L87.7189 90.3887C88.6685 89.1275 89.3591 87.7693 89.8771 86.3142C90.2224 85.15 90.3951 83.8889 90.4814 82.6277H101.1C101.704 82.6277 102.136 82.0456 102.136 81.4636C102.136 80.7845 101.618 80.2994 101.1 80.2994H90.7404C90.6541 79.3293 90.3951 78.3592 90.1361 77.389C89.8175 76.3747 89.3683 75.3971 88.8085 74.4787H85.8196C86.7692 75.5458 87.4599 76.807 87.8915 78.1651C88.2368 79.1353 88.4095 80.2994 88.4095 81.4636V81.8516C88.4095 83.1128 88.2368 84.3739 87.8915 85.441C87.4599 86.6052 86.8556 87.6723 86.0786 88.7395L85.647 89.2245C84.7837 90.2917 83.7477 91.0677 82.6254 91.5528C81.5895 92.0379 80.2946 92.3289 78.9996 92.3289H78.9133C77.8773 92.3289 76.8414 92.1349 75.8918 91.7468C74.5968 91.2618 73.4745 90.4857 72.4386 89.4185L72.2659 89.2245C71.4026 88.3514 70.7983 87.3813 70.3667 86.3142C69.7624 84.956 69.4171 83.4038 69.4171 81.6576C69.4171 80.1054 69.7624 78.6502 70.2804 77.292C70.7466 76.2442 71.2827 75.3536 72.0147 74.4787C72.096 74.3815 72.1797 74.2846 72.2659 74.1876C72.3523 74.1391 72.417 74.0664 72.4818 73.9936C72.5465 73.9209 72.6113 73.8481 72.6976 73.7996L72.7839 73.7026C73.5609 72.9265 74.4242 72.2474 75.3738 71.8594C76.4961 71.3743 77.7047 71.0833 78.9996 71.0833C80.5535 71.0833 81.9348 71.3743 83.0571 72.1504C84.0067 72.7325 84.87 73.4115 85.647 74.2847L85.8196 74.4787H88.8085C88.4582 73.9039 88.0646 73.3523 87.6325 72.8295L87.4599 72.6355C86.5103 71.5683 85.4743 70.6952 84.352 70.1131C83.0571 69.337 81.6758 68.949 80.2082 68.852L78.05 68.949C76.8414 69.046 75.7191 69.337 74.6832 69.8221C73.5609 70.3072 72.5249 71.0833 71.5753 72.0534L71.0573 72.6355C70.5764 73.225 70.1177 73.8394 69.7147 74.4787C69.3219 75.1018 68.9821 75.7485 68.7264 76.4189C68.0358 78.0681 67.6905 79.8143 67.6905 81.8516C67.6905 83.8888 68.0358 85.7321 68.8128 87.3813C69.3307 88.6424 70.1077 89.8066 71.0573 90.8737L71.23 91.0677C72.4386 92.3289 73.8199 93.299 75.3738 93.8811Z" fill="black"/>
<path d="M75.7944 93.7134C76.9167 94.1985 78.1253 94.3925 79.5065 94.3925C81.0605 94.3925 82.5281 94.1015 83.9093 93.6164C85.2906 93.0344 86.4992 92.0642 87.6215 90.8031L88.0531 90.318L88.1395 90.221C89.0891 88.9599 89.7797 87.6017 90.2977 86.1465C90.643 84.9824 90.8157 83.7212 90.902 82.46H101.52C102.125 82.46 102.556 81.878 102.556 81.2959C102.556 80.6168 102.038 80.1318 101.52 80.1318H91.161C91.0746 79.1616 90.8157 78.1915 90.5567 77.2214C90.2381 76.207 89.7889 75.2294 89.2291 74.311H86.2402C87.1898 75.3782 87.8805 76.6393 88.3121 77.9975C88.6574 78.9676 88.8301 80.1318 88.8301 81.2959V81.6839C88.8301 82.9451 88.6574 84.2063 88.3121 85.2734C87.8805 86.4375 87.2762 87.5047 86.4992 88.5718L86.0676 89.0569C85.2043 90.124 84.1683 90.9001 83.046 91.3852C82.0101 91.8702 80.7151 92.1612 79.4202 92.1612H79.3339C78.2979 92.1612 77.262 91.9672 76.3124 91.5792C75.0174 91.0941 73.8951 90.318 72.8592 89.2509L72.6865 89.0569C71.8232 88.1838 71.2189 87.2136 70.7873 86.1465C70.183 84.7883 69.8377 83.2361 69.8377 81.4899C69.8377 79.9377 70.183 78.4825 70.701 77.1244C71.1672 76.0766 71.7033 75.1859 72.4353 74.311C72.5166 74.2139 72.6003 74.1169 72.6865 74.02C72.7729 73.9715 72.8376 73.8987 72.9024 73.826C72.9671 73.7532 73.0318 73.6805 73.1182 73.6319L73.2045 73.5349C73.9815 72.7588 74.8448 72.0798 75.7944 71.6917C76.9167 71.2066 78.1253 70.9156 79.4202 70.9156C80.9741 70.9156 82.3554 71.2066 83.4777 71.9827C84.4273 72.5648 85.2906 73.2439 86.0676 74.117L86.2402 74.311H89.2291C88.8788 73.7362 88.4851 73.1847 88.0531 72.6618L87.8805 72.4678C86.9308 71.4007 85.8949 70.5276 84.7726 69.9455C83.4777 69.1694 82.0964 68.7813 80.6288 68.6843L78.4706 68.7813C77.262 68.8784 76.1397 69.1694 75.1037 69.6544C73.9815 70.1395 72.9455 70.9156 71.9959 71.8857L71.4779 72.4678C70.997 73.0573 70.5383 73.6717 70.1353 74.311C69.7425 74.9341 69.4027 75.5809 69.147 76.2513C68.4564 77.9005 68.1111 79.6467 68.1111 81.6839C68.1111 83.7212 68.4564 85.5644 69.2334 87.2136C69.7513 88.4748 70.5283 89.6389 71.4779 90.7061L71.6506 90.9001C72.8592 92.1612 74.2405 93.1314 75.7944 93.7134Z" fill="black"/>
<path opacity="0.9" d="M77.1003 73.5085L76.4097 75.7398C75.978 76.0309 75.5464 76.3219 75.2011 76.7099C75.1147 76.807 75.0284 76.904 74.9421 77.001C74.4241 77.5831 73.9925 78.2621 73.7335 78.9412C73.3882 79.8143 73.2155 80.6874 73.2155 81.7546L71.8342 83.7918C71.8342 83.8888 71.8342 83.8888 71.8342 83.9859L73.7335 84.6649C73.9925 85.344 74.4241 85.9261 74.9421 86.5082L75.0284 86.6052C75.1147 86.7022 75.2011 86.7992 75.2874 86.8962L76.4097 79.9113L81.1578 75.4488C80.5535 75.1578 79.8628 75.0607 79.1722 75.0607L77.273 73.5085C77.273 73.5085 77.1866 73.5085 77.1003 73.5085ZM83.4023 77.098C83.316 77.098 83.316 77.001 83.2297 77.001C83.1434 76.904 83.057 76.807 82.9707 76.7099L81.9347 83.5008L77.1003 87.9633H77.1866C77.7909 88.1574 78.3952 88.2544 79.0859 88.2544L81.1578 89.7096L82.0211 87.3813C82.4527 87.0902 82.8844 86.7022 83.316 86.3141C83.4023 86.2171 83.4887 86.1201 83.575 86.0231C84.093 85.344 84.4383 84.6649 84.6973 83.9859C84.9563 83.3068 85.0426 82.5307 85.0426 81.7546V81.6576L86.4239 79.6203L84.4383 78.6502C84.093 78.1651 83.834 77.5831 83.4023 77.098Z" fill="black"/>
<path d="M82.9707 76.7097L83.4887 73.2173L81.0715 75.4486L76.3234 79.9111L75.2011 86.896L74.6831 90.2914L77.014 88.1571L81.8484 83.6946L82.9707 76.7097ZM78.8269 80.3962C79.0859 80.2992 79.4312 80.3962 79.6902 80.5902C79.9492 80.7842 80.1218 80.9782 80.2082 81.3663C80.2945 81.7543 80.2945 82.0454 80.1218 82.3364C79.9492 82.6274 79.7765 82.8215 79.4312 82.9185C79.0859 83.0155 78.8269 82.9185 78.5679 82.7245C78.3089 82.5304 78.1363 82.3364 78.0499 81.9484C77.9636 81.5603 77.9636 81.2693 78.1363 80.9783C78.3089 80.6872 78.5679 80.4932 78.8269 80.3962Z" fill="#FF6600"/>
</g>
</svg>
