<?xml version="1.0" encoding="utf-8"?>
<!-- Generator: Adobe Illustrator 24.1.2, SVG Export Plug-In . SVG Version: 6.00 Build 0)  -->
<svg version="1.1" id="Layer_1" xmlns="http://www.w3.org/2000/svg" xmlns:xlink="http://www.w3.org/1999/xlink" x="0px" y="0px"
	 viewBox="0 0 1024 1024" style="enable-background:new 0 0 1024 1024;" xml:space="preserve">
<style type="text/css">
	.st0{fill:#1A1A1A;}
	.st1{fill:#FFFFFF;}
	.st2{fill:#FF6600;}
</style>
<g>
	<path class="st0" d="M705.1,313.5c-1.4-9-6.3-13.5-14.8-13.5H561.1c-3.9,0-7.5,1.7-10.5,5.1c-2.8,2.8-4.3,6-4.3,9.7v187.8h-19.9
		V197.3c0-4.2-1.5-7.8-4.7-10.6c-3.4-2.8-6.9-4.3-10.6-4.3H349.8c-4.2,0-7.9,1.7-11,5.1c-2.8,2.8-4.3,6.1-4.3,9.8v277.9h-18.6v-77.8
		c0-4-1.5-7.5-4.6-10.6c-3.1-2.8-6.6-4.2-10.5-4.2H176.6c-4.5,0-8.2,1.7-11,5c-3.1,2.8-4.7,6.1-4.7,9.8v162.8H14.4
		c-2.3,0-4.4,0.7-6.3,2.1c-1.1,0.6-2.3,1.5-3.4,3c-1.4,1.4-2.5,2.8-3.4,4.3c-0.8,1.7-1.3,3.5-1.3,5.5c0,2.3,0.4,4.4,1.3,6.3V895
		c0,86,43.1,129,129.2,129h764.4c86.1,0,129.2-43,129.2-129V672.2c0-3.9-1.4-7.3-4.3-10.2c-1.1-1.1-2.4-1.9-3.8-2.5
		c-2.3-1.1-4.5-1.7-6.8-1.7H858.8c-0.6-8.5-3.2-21-8-37.6c-7.6-21.4-19.8-41-36.5-58.8l-2.5-2.5c-14.7-14.7-29.8-25.5-45.3-32.6
		c-17.8-9.6-37.8-14.9-60.1-16L705.1,313.5 M673.3,345.7v33.8h-47.4v-33.8H673.3 M784.7,580l2.5,2.5c13.6,13.3,23.6,29.1,30.1,47.4
		c5.1,12.7,7.6,26.9,7.6,42.7v5.1c0,16.9-2.5,32.3-7.6,46.1c-5.9,14.4-14.7,28.6-26.3,42.8l-6.3,6.3c-12.4,13.5-26.9,23.5-43.6,30
		c-15.5,6.5-32.9,9.7-52.1,9.7h-1.3c-15.5,0-30.1-2.5-43.7-7.6c-18.1-5.6-34.8-15.5-50.3-29.6l-2.5-2.5
		c-11.6-10.4-20.8-23-27.5-37.6c-9-18.3-13.6-38.3-13.6-60c0-18.1,4.1-36.8,12.3-56.3c5.4-10.4,11.6-20,18.6-28.8
		c3.1-4,6.5-7.8,10.2-11.5l6.3-5l0.9-1.3c13.5-11.5,26-19.4,37.3-23.6c17.5-6.5,35.3-9.8,53.3-9.8c23.4,0,42.9,4.5,58.5,13.5
		C761.9,560.4,774.3,569.6,784.7,580 M406.5,219.3v33.8h-47v-33.8H406.5 M395.1,366.9V333h47v33.9H395.1 M418.4,309.8v-33.9h83v33.9
		H418.4 M279.9,415.5v33.8h-82.5v-33.8H279.9 M625.9,449.7h-47.4v-33.8h47.4V449.7 M501.4,402v33.8H454V402H501.4 M749.2,615.9
		l-3.4-3l-15.3,88.8l-67.3,55.4c9.6,2.6,18.2,3.8,25.8,3.8l30.1,18.6l12.7-30l18.6-13.5l3.8-4.3c5.9-6.5,11.4-15.1,16.5-25.8
		c3.1-7.9,4.7-17.8,4.7-29.6v-1.3l20.3-25.4L767,637c-6.2-9-11.5-15.6-15.7-19.8C750.7,616.3,750,615.9,749.2,615.9 M664,570.3h-3
		l-9.3,29.2c-9.3,5.9-15.4,10.1-18.2,12.6l-3.8,3.8c-7.6,7.9-13.4,16.2-17.4,24.9c-5.1,11.3-7.6,23.4-7.6,36.4l-19.5,26.2v2.5
		l27.5,8c3.7,8.4,9.5,16.3,17.4,23.7l4.3,4.6l15.3-89.2l69.4-57.6c-7.9-3.1-17.1-4.6-27.5-4.6L664,570.3z"/>
	<path class="st1" d="M501.4,435.8V402H454v33.8H501.4 M578.5,449.7h47.4v-33.8h-47.4V449.7 M279.9,449.3v-33.8h-82.5v33.8H279.9
		 M418.4,275.9v33.9h83v-33.9H418.4 M395.1,333v33.9h47V333H395.1 M406.5,253.1v-33.8h-47v33.8H406.5 M673.3,379.5v-33.8h-47.4v33.8
		H673.3z"/>
	<path class="st2" d="M719.1,595.6l-69.4,57.6l-15.3,89.2l-8.1,44.9l36.9-30l67.3-55.4l15.3-88.8l7.7-46.1L719.1,595.6 M676.3,666.3
		c1.4-2,4.7-4.5,9.8-7.6c4.5-1.1,8.6-0.3,12.3,2.5c4.2,2.6,6.8,6,7.6,10.1c1.1,5.1,0.7,9.3-1.3,12.7c-2.6,4-5.7,6.4-9.4,7.2
		c-5.1,1.4-9.3,0.5-12.7-2.5c-3.7-2-6.2-5.2-7.6-9.7C673.9,673.9,674.3,669.6,676.3,666.3z"/>
</g>
</svg>
