<svg width="128" height="128" viewBox="0 0 128 128" fill="none" xmlns="http://www.w3.org/2000/svg">
<g clip-path="url(#clip0)">
<rect width="128" height="128" rx="20" fill="white"/>
<rect x="70" y="65" width="58" height="12" fill="#1A1A1A"/>
<line x1="78" y1="67" x2="119" y2="67" stroke="black" stroke-width="4"/>
<rect x="28" y="52" width="13" height="19" fill="#1A1A1A"/>
<rect x="47" y="31" width="17" height="40" fill="#1A1A1A"/>
<rect x="69" y="43" width="14" height="22" fill="#1A1A1A"/>
<rect x="28" y="61" width="25" height="12" fill="#1A1A1A"/>
<path d="M52 61L62.5 65.1786H69.5H77L69.5 70.2857L66.5 74H52V61Z" fill="#1A1A1A" stroke="#1A1A1A"/>
<rect x="49" y="35" width="4" height="3" fill="white"/>
<rect x="52" y="45" width="4" height="3" fill="white"/>
<rect x="76" y="47" width="4" height="3" fill="white"/>
<rect x="57" y="53" width="4" height="3" fill="white"/>
<rect x="72" y="53" width="4" height="3" fill="white"/>
<rect x="54" y="40" width="7" height="3" fill="white"/>
<rect x="31" y="56" width="7" height="3" fill="white"/>
<rect y="72" width="128" height="56" fill="#1A1A1A"/>
<g filter="url(#filter0_d)">
<path fill-rule="evenodd" clip-rule="evenodd" d="M80.4816 64.3668L83.8434 64.2323L83.7089 43.1198C83.5745 42.313 82.9021 41.6406 82.0952 41.6406H68.2444C67.3031 41.6406 66.6307 42.4474 66.6307 43.2543V63.4254H64.4791V30.6137C64.4791 29.6724 63.6723 29 62.8654 29H45.5182C44.5769 29 43.9045 29.8068 43.9045 30.6137V60.467H41.8874V52.1296C41.8874 51.1883 41.0806 50.5159 40.2737 50.5159H26.9608C26.0194 50.5159 25.3471 51.3227 25.3471 52.1296V69.6112H-0.5C-1.44132 69.6112 -0.000112295 70.4181 -0.000112295 71.2249C-0.000112295 72.1663 -0.806981 72.8386 -0.000135362 72.8386H26.8263C27.7676 72.8386 28.44 72.0318 28.44 71.2249V53.6088H38.66V61.9462C38.66 62.8875 39.4669 63.5599 40.2737 63.5599H45.2493C46.1906 63.5599 46.863 62.7531 46.863 61.9462V32.2274H60.9828V65.0391C60.9828 65.9804 61.7896 66.6528 62.5965 66.6528H67.9754C68.9168 66.6528 69.5891 65.846 69.5891 65.0391V44.868H80.3471L80.4816 64.3668Z" fill="black"/>
<path d="M76.3128 98.9267C78.061 99.599 79.9436 99.868 82.0952 99.868C84.5158 99.868 86.8018 99.4645 88.9534 98.7922C91.105 97.9853 92.9877 96.6406 94.7358 94.8924L95.4082 94.22L95.5427 94.0856C97.0219 92.3374 98.0977 90.4548 98.9045 88.4377C99.4424 86.824 99.7114 85.0758 99.8459 83.3276H116.386C117.328 83.3276 118 82.5208 118 81.7139C118 80.7726 117.193 80.1002 116.386 80.1002H100.249C100.115 78.7555 99.7114 77.4108 99.308 76.066C98.8117 74.66 98.112 73.3048 97.2401 72.0318H92.5842C94.0635 73.511 95.1393 75.2592 95.8116 77.1418C96.3495 78.4866 96.6185 80.1003 96.6185 81.7139V82.2518C96.6185 84 96.3495 85.7482 95.8116 87.2274C95.1393 88.8411 94.1979 90.3203 92.9877 91.7995L92.3153 92.4719C90.9705 93.9511 89.3568 95.0269 87.6087 95.6993C85.995 96.3716 83.9779 96.7751 81.9608 96.7751H81.8263C80.2126 96.7751 78.5989 96.5061 77.1197 95.9682C75.1026 95.2958 73.3544 94.2201 71.7407 92.7408L71.4718 92.4719C70.127 91.2616 69.1857 89.9169 68.5133 88.4377C67.572 86.555 67.0341 84.4034 67.0341 81.9829C67.0341 79.8313 67.572 77.8142 68.3789 75.9315C69.1051 74.4791 69.9402 73.2446 71.0804 72.0318C71.207 71.8971 71.3374 71.7628 71.4718 71.6284C71.6062 71.5611 71.7071 71.4603 71.808 71.3594C71.9088 71.2586 72.0097 71.1577 72.1441 71.0905L72.2786 70.956C73.4889 69.8802 74.8336 68.9389 76.3128 68.401C78.061 67.7286 79.9436 67.3252 81.9608 67.3252C84.3813 67.3252 86.5329 67.7286 88.2811 68.8044C89.7603 69.6113 91.105 70.5526 92.3153 71.7628L92.5842 72.0318H97.2401C96.6943 71.235 96.0812 70.4704 95.4082 69.7457L95.1393 69.4768C93.66 67.9976 92.0463 66.7873 90.2982 65.9804C88.2811 64.9046 86.1295 64.3667 83.8434 64.2323L80.4816 64.3668C78.5989 64.5012 76.8507 64.9046 75.237 65.577C73.4889 66.2494 71.8752 67.3252 70.396 68.6699L69.5891 69.4768C68.84 70.294 68.1254 71.1456 67.4977 72.0318C66.8859 72.8955 66.3566 73.792 65.9583 74.7213C64.8825 77.0073 64.3446 79.4279 64.3446 82.2518C64.3446 85.0758 64.8825 87.6308 66.0928 89.9169C66.8996 91.665 68.1099 93.2787 69.5891 94.7579L69.8581 95.0269C71.7407 96.7751 73.8923 98.1198 76.3128 98.9267Z" fill="black"/>
</g>
<g filter="url(#filter1_d)">
<path d="M76.9682 98.6944C78.7164 99.3667 80.599 99.6357 82.7506 99.6357C85.1711 99.6357 87.4572 99.2323 89.6088 98.5599C91.7604 97.7531 93.643 96.4083 95.3912 94.6601L96.0636 93.9878L96.198 93.8533C97.6773 92.1051 98.753 90.2225 99.5599 88.2054C100.098 86.5917 100.367 84.8435 100.501 83.0954H117.042C117.983 83.0954 118.655 82.2885 118.655 81.4817C118.655 80.5404 117.848 79.868 117.042 79.868H100.905C100.77 78.5232 100.367 77.1785 99.9633 75.8337C99.4671 74.4277 98.7673 73.0725 97.8954 71.7995H93.2396C94.7188 73.2787 95.7946 75.0269 96.467 76.9095C97.0049 78.2543 97.2738 79.868 97.2738 81.4817V82.0196C97.2738 83.7677 97.0049 85.5159 96.467 86.9951C95.7946 88.6088 94.8533 90.088 93.643 91.5672L92.9707 92.2396C91.6259 93.7188 90.0122 94.7946 88.264 95.467C86.6504 96.1394 84.6332 96.5428 82.6161 96.5428H82.4817C80.868 96.5428 79.2543 96.2738 77.7751 95.7359C75.7579 95.0636 74.0098 93.9878 72.3961 92.5086L72.1271 92.2396C70.7824 91.0293 69.8411 89.6846 69.1687 88.2054C68.2274 86.3227 67.6895 84.1712 67.6895 81.7506C67.6895 79.599 68.2274 77.5819 69.0342 75.6993C69.7604 74.2468 70.5956 73.0123 71.7358 71.7995C71.8624 71.6649 71.9928 71.5305 72.1271 71.3961C72.2616 71.3289 72.3625 71.228 72.4633 71.1271C72.5642 71.0263 72.665 70.9254 72.7995 70.8582L72.934 70.7237C74.1442 69.6479 75.489 68.7066 76.9682 68.1687C78.7164 67.4963 80.599 67.0929 82.6161 67.0929C85.0367 67.0929 87.1883 67.4963 88.9364 68.5721C90.4156 69.379 91.7604 70.3203 92.9707 71.5306L93.2396 71.7995H97.8954C97.3497 71.0028 96.7365 70.2382 96.0636 69.5135L95.7946 69.2445C94.3154 67.7653 92.7017 66.555 90.9535 65.7482C88.9364 64.6724 86.7848 64.1345 84.4988 64L81.1369 64.1345C79.2543 64.269 77.5061 64.6724 75.8924 65.3447C74.1442 66.0171 72.5306 67.0929 71.0513 68.4377L70.2445 69.2445C69.4954 70.0617 68.7808 70.9134 68.1531 71.7995C67.5412 72.6632 67.0119 73.5597 66.6137 74.489C65.5379 76.7751 65 79.1956 65 82.0196C65 84.8435 65.5379 87.3985 66.7482 89.6846C67.555 91.4328 68.7653 93.0465 70.2445 94.5257L70.5134 94.7946C72.3961 96.5428 74.5477 97.8875 76.9682 98.6944Z" fill="white"/>
</g>
<path opacity="0.9" d="M79.0025 70.687L77.9267 73.7799C77.2543 74.1833 76.582 74.5868 76.0441 75.1247C75.9096 75.2591 75.7751 75.3936 75.6406 75.5281C74.8338 76.3349 74.1614 77.2763 73.758 78.2176C73.2201 79.4278 72.9511 80.6381 72.9511 82.1173L70.7996 84.9413C70.7996 85.0758 70.7996 85.0758 70.7996 85.2102L73.758 86.1516C74.1614 87.0929 74.8338 87.8997 75.6406 88.7066L75.7751 88.841C75.9096 88.9755 76.0441 89.11 76.1785 89.2445L77.9267 79.5623L85.3228 73.3765C84.3815 72.9731 83.3057 72.8386 82.2299 72.8386L79.2714 70.687C79.2714 70.687 79.137 70.687 79.0025 70.687ZM88.8191 75.6626C88.6846 75.6626 88.6846 75.5281 88.5502 75.5281C88.4157 75.3936 88.2812 75.2591 88.1467 75.1247L86.5331 84.5379L79.0025 90.7237H79.137C80.0783 90.9926 81.0196 91.1271 82.0954 91.1271L85.3228 93.1442L86.6675 89.9168C87.3399 89.5134 88.0123 88.9755 88.6846 88.4376C88.8191 88.3032 88.9536 88.1687 89.0881 88.0342C89.8949 87.0929 90.4328 86.1516 90.8362 85.2102C91.2397 84.2689 91.3741 83.1931 91.3741 82.1173V81.9829L93.5257 79.1589L90.4328 77.8142C89.8949 77.1418 89.4915 76.3349 88.8191 75.6626Z" fill="white"/>
<path d="M88.1466 75.1245L88.9534 70.2834L85.1882 73.3764L77.7921 79.5622L76.0439 89.2443L75.2371 93.9509L78.8679 90.9925L86.3984 84.8067L88.1466 75.1245ZM81.6918 80.2345C82.0953 80.1001 82.6331 80.2345 83.0366 80.5035C83.44 80.7724 83.7089 81.0414 83.8434 81.5793C83.9779 82.1172 83.9779 82.5206 83.7089 82.924C83.44 83.3274 83.171 83.5964 82.6331 83.7309C82.0953 83.8654 81.6918 83.7309 81.2884 83.4619C80.885 83.193 80.616 82.924 80.4816 82.3861C80.3471 81.8482 80.3471 81.4448 80.616 81.0414C80.885 80.638 81.2884 80.369 81.6918 80.2345Z" fill="#FF6600"/>
</g>
<defs>
<filter id="filter0_d" x="-4.81909" y="29" width="126.819" height="78.868" filterUnits="userSpaceOnUse" color-interpolation-filters="sRGB">
<feFlood flood-opacity="0" result="BackgroundImageFix"/>
<feColorMatrix in="SourceAlpha" type="matrix" values="0 0 0 0 0 0 0 0 0 0 0 0 0 0 0 0 0 0 127 0"/>
<feOffset dy="4"/>
<feGaussianBlur stdDeviation="2"/>
<feColorMatrix type="matrix" values="0 0 0 0 0 0 0 0 0 0 0 0 0 0 0 0 0 0 0.25 0"/>
<feBlend mode="normal" in2="BackgroundImageFix" result="effect1_dropShadow"/>
<feBlend mode="normal" in="SourceGraphic" in2="effect1_dropShadow" result="shape"/>
</filter>
<filter id="filter1_d" x="61" y="64" width="61.6553" height="43.6357" filterUnits="userSpaceOnUse" color-interpolation-filters="sRGB">
<feFlood flood-opacity="0" result="BackgroundImageFix"/>
<feColorMatrix in="SourceAlpha" type="matrix" values="0 0 0 0 0 0 0 0 0 0 0 0 0 0 0 0 0 0 127 0"/>
<feOffset dy="4"/>
<feGaussianBlur stdDeviation="2"/>
<feColorMatrix type="matrix" values="0 0 0 0 0 0 0 0 0 0 0 0 0 0 0 0 0 0 0.25 0"/>
<feBlend mode="normal" in2="BackgroundImageFix" result="effect1_dropShadow"/>
<feBlend mode="normal" in="SourceGraphic" in2="effect1_dropShadow" result="shape"/>
</filter>
<clipPath id="clip0">
<rect width="128" height="128" rx="20" fill="white"/>
</clipPath>
</defs>
</svg>
