<?xml version="1.0" encoding="utf-8"?>
<!-- Generator: Adobe Illustrator 24.1.2, SVG Export Plug-In . SVG Version: 6.00 Build 0)  -->
<svg version="1.1" id="Layer_1" xmlns="http://www.w3.org/2000/svg" xmlns:xlink="http://www.w3.org/1999/xlink" x="0px" y="0px"
	 viewBox="0 0 270 60" style="enable-background:new 0 0 270 60;" xml:space="preserve">
<style type="text/css">
	.st0{fill:#5a5a5a; opacity: 0.75;}
	.st1{fill:none;stroke:#000000;stroke-width:2;stroke-linecap:round;stroke-linejoin:round; opacity:0.65;}
</style>
<g>
	<g id="Layer0_0_FILL">
		<path class="st0" d="M43.7,40.6c0.6-0.9,1.1-1.7,1.6-2.6c1.4-2.8,2.1-6,2.1-9.4c0-5.7-2-10.6-6-14.7c-1-0.9-2-1.8-3-2.4
			c-0.4-0.3-0.9-0.6-1.4-0.9C29.4,6,18.3,6,3.9,10.6c1.4,3.1,3.2,5.1,5.5,6.2c0.1,0,0.2,0,0.3,0c0.1,0,0.2,0.1,0.3,0.1
			c0.9,0.3,1.8,0.5,2.9,0.5c3.1,0.1,6.8-1.1,11-3.5c-4.3,2.5-7.9,3.6-11,3.5c0.7,1.2,1.5,2.3,2.4,3.1c2,1.7,4.3,2.5,6.9,2.4
			c0.1,0,0.2,0,0.3,0c1.9-0.2,4-0.8,6.3-1.8c0,0,0.1,0,0.1,0c1.1-0.5,2.2-1.1,3.3-1.8c-1.1,0.7-2.2,1.3-3.3,1.8
			c1.3,0.3,2.5,0.9,3.5,2c1.4,1.4,2.1,3.1,2.1,5.1c0,1.9-0.7,3.6-2.1,5c-1.4,1.4-3.1,2.1-5.1,2.1c-0.1,0-0.2,0-0.3,0
			c-0.3,0-0.6,0-0.9-0.1c-1.5-0.2-2.8-0.9-4-2c-1.4-1.4-2-3.1-2-5c0-2,0.7-3.7,2-5.1c0.1-0.1,0.2-0.2,0.3-0.2c-0.1,0-0.1,0-0.3,0
			c-2.7,0.1-5-0.7-6.9-2.4c-0.9-0.8-1.7-1.9-2.4-3.1c-1,0-2-0.2-2.9-0.5c-2.4,3.4-3.6,7.3-3.6,11.7c0,5.7,2,10.6,6,14.6
			c1.1,1.2,2.4,2.2,3.6,3c2.1,1.4,4.4,2.3,6.8,2.8c0-0.1,0-0.2,0-0.2c0-1.1,0.4-2.1,1.2-3c0.8-0.8,1.8-1.1,2.9-1.1
			c1.1,0,2.1,0.4,2.9,1.1c0.8,0.8,1.3,1.8,1.3,3c0,0,0,0.1,0,0.2c0.1-0.1,0.2-0.1,0.4-0.1c0.4-0.1,0.7-0.2,1.1-0.3
			c3.4-0.9,6.4-2.7,9-5.4c0.6-0.6,1.2-1.3,1.8-1.9C43.4,41,43.5,40.8,43.7,40.6 M186.9,17.5c0-2.8-0.6-5-1.6-6.6
			c-1-1.6-2.4-2.8-4.1-3.5c-1.7-0.7-3.7-1-5.8-1c-2.4,0-4.5,0.5-6.3,1.5c-1.7,1-3.2,2.4-4.5,4.2c-0.6-1.4-1.4-2.6-2.4-3.4
			c-1-0.8-2.1-1.4-3.2-1.8c-1.1-0.4-2.2-0.5-3.3-0.5c-2.3,0-4.5,0.5-6.4,1.5c-1.9,1-3.5,2.4-4.7,4.2h-0.1V11c0-1.4-0.4-2.6-1.1-3.3
			c-0.8-0.8-1.8-1.3-3.2-1.3c-1.4,0-2.4,0.4-3.2,1.3c-0.7,0.8-1.1,1.9-1.1,3.3v25.3c0,1.3,0.3,2.4,0.9,3.3c0.7,0.9,1.9,1.4,3.6,1.4
			c1.8,0,3-0.5,3.7-1.4c0.7-0.9,1-2,0.9-3.3V21c0-1.5,0.3-2.7,0.9-3.8c0.6-1.1,1.4-1.9,2.4-2.4c1-0.6,2.1-0.9,3.3-0.9
			c1.8,0,3.1,0.6,3.9,1.7c0.8,1.1,1.2,2.5,1.1,4.2v16.5c0,1.3,0.3,2.4,0.9,3.3c0.7,0.9,1.9,1.4,3.7,1.4c1.7,0,2.9-0.5,3.6-1.4
			c0.7-0.9,1-2,0.9-3.3V21c0-1.5,0.4-2.7,1-3.8c0.6-1.1,1.4-1.9,2.4-2.4c1-0.6,2.1-0.9,3.3-0.9c1.8,0,3.1,0.6,3.8,1.7
			c0.8,1.1,1.2,2.5,1.2,4.2v16.5c0,1.3,0.3,2.4,1,3.3c0.7,0.9,1.9,1.4,3.6,1.4s3-0.5,3.6-1.4c0.7-0.9,1-2,1-3.3V17.5 M225.9,24.6
			c0.6-0.6,0.9-1.6,0.9-3.1c0-2.6-0.7-5-2-7.3c-1.3-2.3-3.1-4.2-5.6-5.6c-2.5-1.4-5.5-2.2-9.1-2.2c-3.6,0-6.7,0.8-9.3,2.2
			c-2.6,1.5-4.6,3.5-5.9,6.2s-2.1,5.8-2.1,9.4c0,2,0.3,4,0.9,6c0.7,1.9,1.7,3.7,3.1,5.4c1.4,1.6,3.2,2.9,5.5,3.8
			c2.2,1,4.9,1.5,8.1,1.5c1.4,0,3-0.2,4.6-0.5c1.7-0.3,3.2-0.8,4.7-1.5c1.5-0.7,2.7-1.5,3.6-2.5c1-1,1.5-2.2,1.5-3.6
			c0-0.9-0.4-1.7-1-2.4c-0.7-0.7-1.6-1.1-2.8-1.2c-0.9,0-1.7,0.3-2.3,0.7c-0.6,0.5-1.2,1-1.8,1.6c-0.7,0.6-1.5,1.1-2.6,1.5
			c-1,0.5-2.3,0.7-4.1,0.7c-2.7,0-4.8-0.8-6.3-2.3c-1.5-1.5-2.2-3.6-2.2-6.1h20.8C224.3,25.4,225.3,25.2,225.9,24.6 M215.6,14.9
			c1.4,1.3,2.2,3.1,2.5,5.3H202c0.5-2.3,1.4-4.1,2.8-5.4c1.4-1.3,3.2-1.9,5.5-1.9C212.4,12.8,214.2,13.5,215.6,14.9 M265.3,24.6
			c0.6-0.6,0.9-1.6,0.9-3.1c0-2.6-0.7-5-2-7.3c-1.3-2.3-3.1-4.2-5.6-5.6c-2.5-1.4-5.5-2.2-9-2.2c-3.6,0-6.8,0.8-9.4,2.2
			c-2.6,1.5-4.6,3.5-5.9,6.2s-2.1,5.8-2.1,9.4c0,2,0.3,4,0.9,6c0.7,1.9,1.7,3.7,3.1,5.4c1.4,1.6,3.2,2.9,5.5,3.8
			c2.2,1,5,1.5,8.2,1.5c1.4,0,2.9-0.2,4.5-0.5c1.7-0.3,3.2-0.8,4.7-1.5c1.5-0.7,2.7-1.5,3.6-2.5c1-1,1.5-2.2,1.5-3.6
			c0-0.9-0.4-1.7-1-2.4c-0.7-0.7-1.6-1.1-2.8-1.2c-0.9,0-1.6,0.3-2.3,0.7c-0.6,0.5-1.2,1-1.8,1.6c-0.7,0.6-1.5,1.1-2.5,1.5
			c-1,0.5-2.3,0.7-4,0.7c-2.7,0-4.8-0.8-6.3-2.3c-1.5-1.5-2.2-3.6-2.2-6.1h20.8C263.6,25.4,264.7,25.2,265.3,24.6 M254.9,14.9
			c1.4,1.3,2.2,3.1,2.5,5.3h-16.1c0.5-2.3,1.4-4.1,2.8-5.4c1.4-1.3,3.3-1.9,5.6-1.9C251.8,12.8,253.6,13.5,254.9,14.9z"/>
		<path d="M87.8,6.4c-1.4,0-2.4,0.3-3.1,1c-0.7,0.7-1.1,1.8-1.1,3.3v1.2h-0.2c-0.9-1.7-2.1-3.1-3.8-4.1C78,6.9,76,6.4,73.8,6.4
			c-2.6,0-5,0.6-7.2,1.8c-2.2,1.3-3.9,3.2-5.2,5.8c-0.8,1.7-1.4,3.7-1.8,6c-0.2,1.2-0.3,2.4-0.3,3.7v0.8c0,1.1,0.1,2.1,0.3,3.1
			c0.3,1.6,0.7,3.1,1.4,4.4c1.1,2.3,2.8,4.1,4.9,5.4c2.2,1.3,4.9,2,8.1,2c1.9,0,3.6-0.5,5.2-1.3c1.6-0.8,2.8-1.9,3.7-3.1h0.2v1.9
			c0,3.6-0.6,6.2-1.8,7.8s-3.3,2.4-6.1,2.3c-1.3,0-2.3-0.3-3.1-0.8c-0.9-0.5-1.6-1-2.3-1.6c-0.6-0.6-1.3-1.2-2-1.7
			c-0.6-0.5-1.4-0.7-2.4-0.8c-1.1,0-1.9,0.4-2.6,1.2c-0.7,0.7-1.1,1.6-1.1,2.8c0,1.5,0.7,2.8,2,4c1.3,1.1,3,2,5.1,2.7
			c2.1,0.6,4.4,1,6.7,1c3.2,0,6.1-0.6,8.6-1.7c2.4-1.2,4.3-3,5.8-5.4c1.3-2.2,2-5,2.1-8.4V10.7c0-1.4-0.3-2.5-1-3.3
			C90.2,6.8,89.2,6.4,87.8,6.4 M81.3,15.9c1.2,1.5,1.8,4,1.8,7.4c0,3.2-0.7,5.6-2.1,7.1c-1.3,1.5-3,2.2-5.2,2.2
			c-1.7,0-3.1-0.5-4.3-1.4c-1.1-0.9-1.8-2-2.3-3.4c-0.5-1.3-0.8-2.7-0.8-4.1c0-1.9,0.2-3.6,0.6-5.1c0.5-1.5,1.3-2.7,2.4-3.6
			c1.2-0.9,2.7-1.3,4.7-1.3C78.4,13.5,80.1,14.3,81.3,15.9 M130.4,23.6c0-3.3-0.6-6.2-1.9-8.8c-1.3-2.6-3.2-4.7-5.7-6.2
			c-2.6-1.5-5.7-2.3-9.4-2.3c-3.7,0-6.8,0.8-9.3,2.3c-2.5,1.5-4.4,3.6-5.7,6.2c-1.1,2.2-1.7,4.6-1.9,7.2c0,0.4-0.1,0.8-0.1,1.2
			c0,0.1,0,0.3,0,0.4c0,0.6,0,1.1,0.1,1.6c0.2,2.5,0.7,4.8,1.5,7c1.1,2.6,3,4.7,5.5,6.3c2.5,1.6,5.8,2.5,9.9,2.5
			c4.2,0,7.5-0.8,10-2.5c2.5-1.6,4.3-3.6,5.4-6.3C129.8,29.6,130.4,26.7,130.4,23.6 M120.3,18.3c0.5,1.5,0.8,3.3,0.8,5.3
			c0,1.9-0.3,3.6-0.8,5.3c-0.6,1.6-1.4,2.9-2.6,3.9c-1.2,1-2.7,1.5-4.5,1.5c-1.8,0-3.3-0.5-4.4-1.5c-1.1-1-2-2.3-2.6-3.9
			c-0.5-1.6-0.8-3.4-0.8-5.3c0-2,0.3-3.8,0.8-5.3c0.5-1.6,1.4-2.8,2.6-3.7c1.1-0.9,2.6-1.4,4.3-1.4c1.8,0,3.3,0.5,4.4,1.4
			C118.9,15.4,119.8,16.7,120.3,18.3z" stroke-width="2" stroke="black"/>
	</g>
	<path id="Layer0_0_1_STROKES" class="st1" d="M262.1,25.4c1.5,0,2.5-0.2,3.1-0.8c0.6-0.6,0.9-1.6,0.9-3.1c0-2.6-0.7-5-2-7.3
		c-1.3-2.3-3.1-4.2-5.6-5.6c-2.5-1.4-5.5-2.2-9-2.2c-3.6,0-6.8,0.8-9.4,2.2c-2.6,1.5-4.6,3.5-5.9,6.2s-2.1,5.8-2.1,9.4
		c0,2,0.3,4,0.9,6c0.7,1.9,1.7,3.7,3.1,5.4c1.4,1.6,3.2,2.9,5.5,3.8c2.2,1,5,1.5,8.2,1.5c1.4,0,2.9-0.2,4.5-0.5
		c1.7-0.3,3.2-0.8,4.7-1.5c1.5-0.7,2.7-1.5,3.6-2.5c1-1,1.5-2.2,1.5-3.6c0-0.9-0.4-1.7-1-2.4c-0.7-0.7-1.6-1.1-2.8-1.2
		c-0.9,0-1.6,0.3-2.3,0.7c-0.6,0.5-1.2,1-1.8,1.6c-0.7,0.6-1.5,1.1-2.5,1.5c-1,0.5-2.3,0.7-4,0.7c-2.7,0-4.8-0.8-6.3-2.3
		c-1.5-1.5-2.2-3.6-2.2-6.1H262.1z M241.4,20.1c0.5-2.3,1.4-4.1,2.8-5.4c1.4-1.3,3.3-1.9,5.6-1.9c2.1,0,3.9,0.7,5.3,2.1
		c1.4,1.3,2.2,3.1,2.5,5.3H241.4z M222.8,25.4c1.5,0,2.5-0.2,3.1-0.8c0.6-0.6,0.9-1.6,0.9-3.1c0-2.6-0.7-5-2-7.3
		c-1.3-2.3-3.1-4.2-5.6-5.6c-2.5-1.4-5.5-2.2-9.1-2.2c-3.6,0-6.7,0.8-9.3,2.2c-2.6,1.5-4.6,3.5-5.9,6.2s-2.1,5.8-2.1,9.4
		c0,2,0.3,4,0.9,6c0.7,1.9,1.7,3.7,3.1,5.4c1.4,1.6,3.2,2.9,5.5,3.8c2.2,1,4.9,1.5,8.1,1.5c1.4,0,3-0.2,4.6-0.5
		c1.7-0.3,3.2-0.8,4.7-1.5c1.5-0.7,2.7-1.5,3.6-2.5c1-1,1.5-2.2,1.5-3.6c0-0.9-0.4-1.7-1-2.4c-0.7-0.7-1.6-1.1-2.8-1.2
		c-0.9,0-1.7,0.3-2.3,0.7c-0.6,0.5-1.2,1-1.8,1.6c-0.7,0.6-1.5,1.1-2.6,1.5c-1,0.5-2.3,0.7-4.1,0.7c-2.7,0-4.8-0.8-6.3-2.3
		c-1.5-1.5-2.2-3.6-2.2-6.1H222.8z M202,20.1c0.5-2.3,1.4-4.1,2.8-5.4c1.4-1.3,3.2-1.9,5.5-1.9c2.1,0,3.9,0.7,5.3,2.1
		c1.4,1.3,2.2,3.1,2.5,5.3H202z M135.8,36.3c0,1.3,0.3,2.4,0.9,3.3c0.7,0.9,1.9,1.4,3.6,1.4c1.8,0,3-0.5,3.7-1.4
		c0.7-0.9,1-2,0.9-3.3V21c0-1.5,0.3-2.7,0.9-3.8c0.6-1.1,1.4-1.9,2.4-2.4c1-0.6,2.1-0.9,3.3-0.9c1.8,0,3.1,0.6,3.9,1.7
		c0.8,1.1,1.2,2.5,1.1,4.2v16.5c0,1.3,0.3,2.4,0.9,3.3c0.7,0.9,1.9,1.4,3.7,1.4c1.7,0,2.9-0.5,3.6-1.4c0.7-0.9,1-2,0.9-3.3V21
		c0-1.5,0.4-2.7,1-3.8c0.6-1.1,1.4-1.9,2.4-2.4c1-0.6,2.1-0.9,3.3-0.9c1.8,0,3.1,0.6,3.8,1.7c0.8,1.1,1.2,2.5,1.2,4.2v16.5
		c0,1.3,0.3,2.4,1,3.3c0.7,0.9,1.9,1.4,3.6,1.4s3-0.5,3.6-1.4c0.7-0.9,1-2,1-3.3V17.5c0-2.8-0.6-5-1.6-6.6c-1-1.6-2.4-2.8-4.1-3.5
		c-1.7-0.7-3.7-1-5.8-1c-2.4,0-4.5,0.5-6.3,1.5c-1.7,1-3.2,2.4-4.5,4.2c-0.6-1.4-1.4-2.6-2.4-3.4c-1-0.8-2.1-1.4-3.2-1.8
		c-1.1-0.4-2.2-0.5-3.3-0.5c-2.3,0-4.5,0.5-6.4,1.5c-1.9,1-3.5,2.4-4.7,4.2h-0.1V11c0-1.4-0.4-2.6-1.1-3.3c-0.8-0.8-1.8-1.3-3.2-1.3
		c-1.4,0-2.4,0.4-3.2,1.3c-0.7,0.8-1.1,1.9-1.1,3.3V36.3z M22.8,49c-2.4-0.5-4.7-1.4-6.8-2.8c-1.3-0.8-2.5-1.8-3.6-3
		c-4-4-6-8.9-6-14.6c0-4.4,1.2-8.3,3.6-11.7c-0.1-0.1-0.1-0.1-0.3-0.1c-0.1,0-0.1,0-0.3,0c-2.3-1-4.1-3.1-5.5-6.2
		C18.3,6,29.4,6,37.1,10.6c0.5,0.3,0.9,0.6,1.4,0.9c1,0.7,2,1.5,3,2.4c4,4.1,6,8.9,6,14.7c0,3.4-0.7,6.5-2.1,9.4
		c-0.5,0.9-1,1.8-1.6,2.6c-0.2,0.2-0.3,0.4-0.5,0.7c-0.5,0.7-1.1,1.3-1.8,1.9c-2.9,2.9-6.3,4.8-10.1,5.6c-0.1,0-0.3,0-0.4,0.1
		c0,1.1-0.4,2-1.3,2.7c-0.8,0.8-1.7,1.3-2.9,1.3c-1.1,0-2.1-0.4-2.9-1.3C23.2,50.9,22.8,50,22.8,49c0-0.1,0-0.2,0-0.2
		c0-1.1,0.4-2.1,1.2-3c0.8-0.8,1.8-1.1,2.9-1.1c1.1,0,2.1,0.4,2.9,1.1c0.8,0.8,1.3,1.8,1.3,3c0,0,0,0.1,0,0.2 M43.2,41.3
		c-0.5,0.6-1.1,1.2-1.8,1.9c-2.6,2.7-5.6,4.5-9,5.4c-0.4,0.1-0.7,0.2-1.1,0.3 M28.7,21.1c1.3,0.3,2.5,0.9,3.5,2
		c1.4,1.4,2.1,3.1,2.1,5.1c0,1.9-0.7,3.6-2.1,5c-1.4,1.4-3.1,2.1-5.1,2.1c-0.1,0-0.2,0-0.3,0c-0.3,0-0.6,0-0.9-0.1
		c-1.5-0.2-2.8-0.9-4-2c-1.4-1.4-2-3.1-2-5c0-2,0.7-3.7,2-5.1c0.1-0.1,0.2-0.2,0.3-0.2c-0.1,0-0.1,0-0.3,0c-2.7,0.1-5-0.7-6.9-2.4
		c-0.9-0.8-1.7-1.9-2.4-3.1c-1,0-2-0.2-2.9-0.5 M22.3,22.9c1.9-0.2,4-0.8,6.3-1.8c0,0,0.1,0,0.1,0c1.1-0.5,2.2-1.1,3.3-1.8
		 M12.8,17.4c3.1,0.1,6.8-1.1,11-3.5"/>
</g>
</svg>
