<svg width="463" height="88" viewBox="0 0 463 88" fill="none" xmlns="http://www.w3.org/2000/svg">
<path d="M121.844 46.984H143.863L148.758 42H126.579L121.844 46.984Z" fill="white"/>
<path d="M114.368 54.46V67.4185L109.634 72.1533V58.9456L114.368 54.46Z" fill="white"/>
<path d="M78.9818 46.984H101.659L106.892 42H78.9818M121.844 46.984H143.863L148.758 42H126.579L121.844 46.984ZM114.368 54.46V67.4185L109.634 72.1533V58.9456L114.368 54.46Z" stroke="white" stroke-width="8"/>
<circle cx="42.3641" cy="42.3641" r="39.3641" stroke="#EE8F00" stroke-width="6"/>
<circle cx="42.6133" cy="42.6134" r="30.6421" stroke="#EE8F00" stroke-width="6"/>
<circle cx="42.3641" cy="42.3642" r="21.9201" stroke="#EE8F00" stroke-width="6"/>
<circle cx="42.6133" cy="42.6133" r="13.1981" stroke="#EE8F00" stroke-width="6"/>
<path d="M95.8462 9C89.8205 9 85 13.9132 85 19.8771C85 25.8719 89.8205 30.7542 95.8462 30.7542C101.81 30.7542 106.692 25.8719 106.692 19.8771C106.692 13.9132 101.81 9 95.8462 9ZM95.8462 13.7278C99.2144 13.7278 101.995 16.478 101.995 19.8771C101.995 23.3071 99.2144 26.0573 95.8462 26.0573C92.4162 26.0573 89.6351 23.3071 89.6351 19.8771C89.6351 16.478 92.4162 13.7278 95.8462 13.7278Z" fill="#FFFEFE"/>
<path d="M119.567 9.37081H109.864V30.3834H114.962V25.6247H119.536C124.912 25.6247 127.539 21.6076 127.539 17.4668C127.539 13.3879 124.943 9.37081 119.567 9.37081ZM118.979 14.0677C121.019 14.0986 122.409 15.2111 122.409 17.4668C122.409 19.7535 121.019 20.9586 118.979 20.9586H114.962V14.0677H118.979Z" fill="#FFFEFE"/>
<path d="M131.444 9.37081V30.3834H147.543V25.6865H136.511V22.0711H145.72V17.6832H136.511V14.0677H147.543V9.37081H131.444Z" fill="#FFFEFE"/>
<path d="M172.18 9.37081H167.081V22.1947L156.452 9.37081H151.353V30.3834H156.452V17.5286L167.081 30.3834H172.18V9.37081Z" fill="#FFFEFE"/>
<path d="M202.709 9.37081H182.685V14.0677H190.132V30.3834H195.261V14.0677H202.709V9.37081Z" fill="#FFFEFE"/>
<path d="M216.327 9.37081H206.161V30.3834H211.229V25.1612H214.937L218.089 30.3834H224.393L220.066 24.0487C222.322 22.8436 223.805 20.2788 223.805 17.2505C223.805 12.6772 220.592 9.37081 216.327 9.37081ZM215.617 14.0677C217.316 14.0677 218.707 15.5201 218.707 17.2505C218.707 19.0119 217.316 20.4642 215.586 20.4642H211.229V14.0677H215.617Z" fill="#FFFEFE"/>
<path d="M245.035 30.3834H250.443L241.42 9.37081H235.765L226.773 30.3834H232.15L233.54 27.1079H243.676L245.035 30.3834ZM235.301 22.9672L238.639 15.1184L241.914 22.9672H235.301Z" fill="#FFFEFE"/>
<path d="M274.389 9.37081H269.29V22.1947L258.66 9.37081H253.561V30.3834H258.66V17.5286L269.29 30.3834H274.389V9.37081Z" fill="#FFFEFE"/>
<path d="M286.707 9C281.917 9 278.147 11.8429 278.147 15.6746C278.147 20.3406 283.679 21.5149 286.83 22.2565C288.777 22.72 290.539 23.1835 290.539 24.5123C290.539 25.4084 289.704 26.3663 287.448 26.3663C283.277 26.3663 282.875 23.029 282.875 23.029H277.838C277.838 26.3045 280.588 30.7542 287.17 30.7542C292.084 30.7542 295.606 28.2513 295.606 24.2341C295.606 19.599 290.94 18.4866 287.634 17.6214C284.667 16.8488 283.277 16.4471 283.277 15.4274C283.277 14.2223 285.131 13.5424 286.645 13.5424C288.808 13.5424 290.044 14.9639 290.044 16.0145H295.081C295.081 12.739 292.176 9 286.707 9Z" fill="#FFFEFE"/>
<path d="M308.865 9.37081H299.162V30.3834H304.261V25.6247H308.834C314.211 25.6247 316.837 21.6076 316.837 17.4668C316.837 13.3879 314.241 9.37081 308.865 9.37081ZM308.278 14.0677C310.317 14.0986 311.708 15.2111 311.708 17.4668C311.708 19.7535 310.317 20.9586 308.278 20.9586H304.261V14.0677H308.278Z" fill="#FFFEFE"/>
<path d="M330.228 9C324.203 9 319.382 13.9132 319.382 19.8771C319.382 25.8719 324.203 30.7542 330.228 30.7542C336.192 30.7542 341.075 25.8719 341.075 19.8771C341.075 13.9132 336.192 9 330.228 9ZM330.228 13.7278C333.597 13.7278 336.378 16.478 336.378 19.8771C336.378 23.3071 333.597 26.0573 330.228 26.0573C326.798 26.0573 324.017 23.3071 324.017 19.8771C324.017 16.478 326.798 13.7278 330.228 13.7278Z" fill="#FFFEFE"/>
<path d="M354.265 9.37081H344.099V30.3834H349.166V25.1612H352.874L356.026 30.3834H362.33L358.004 24.0487C360.26 22.8436 361.743 20.2788 361.743 17.2505C361.743 12.6772 358.529 9.37081 354.265 9.37081ZM353.554 14.0677C355.254 14.0677 356.644 15.5201 356.644 17.2505C356.644 19.0119 355.254 20.4642 353.523 20.4642H349.166V14.0677H353.554Z" fill="#FFFEFE"/>
<path d="M383.497 9.37081H363.473V14.0677H370.92V30.3834H376.05V14.0677H383.497V9.37081Z" fill="#FFFEFE"/>
<path d="M173.397 37.08V39.516H168.264C167.703 39.516 167.22 39.6223 166.814 39.835C166.408 40.0477 166.205 40.3473 166.205 40.734C166.205 40.966 166.253 41.1787 166.35 41.372C166.447 41.546 166.553 41.691 166.669 41.807C166.804 41.923 166.998 42.0487 167.249 42.184C167.52 42.3 167.723 42.387 167.858 42.445C168.013 42.4837 168.631 42.677 169.714 43.025C170.797 43.373 171.599 43.663 172.121 43.895C172.643 44.127 173.039 44.446 173.31 44.852C173.6 45.2387 173.784 45.6253 173.861 46.012C173.938 46.3793 173.977 46.7467 173.977 47.114C173.977 49.7047 172.198 51 168.641 51H163.624V48.564H168.641C170.458 48.564 171.367 48.0807 171.367 47.114C171.367 46.65 171.096 46.2633 170.555 45.954C170.033 45.6447 169.385 45.3837 168.612 45.171C167.858 44.9583 167.094 44.7167 166.321 44.446C165.567 44.156 164.919 43.7017 164.378 43.083C163.856 42.445 163.595 41.662 163.595 40.734C163.595 39.5547 164.049 38.6557 164.958 38.037C165.867 37.399 166.969 37.08 168.264 37.08H173.397ZM177.026 37.08H189.815C191.187 37.08 192.28 37.341 193.092 37.863C193.923 38.385 194.464 39.0617 194.716 39.893C194.986 40.7243 195.122 41.72 195.122 42.88V51H192.57V42.88C192.57 41.372 192.115 40.3763 191.207 39.893C190.743 39.6417 189.805 39.516 188.394 39.516H187.205V51H184.653V39.516H179.578V51H177.026V37.08ZM206.345 42.822V45.432C205.611 44.8713 204.712 44.591 203.648 44.591C202.74 44.591 202.034 44.7747 201.531 45.142C201.029 45.49 200.777 45.9927 200.777 46.65C200.777 47.926 201.725 48.564 203.619 48.564H207.447V43.025C207.447 40.6857 206.307 39.516 204.025 39.516H199.385V37.08H204.17C206.046 37.08 207.486 37.544 208.491 38.472C209.497 39.4 209.999 40.734 209.999 42.474V51H203.532C201.889 51 200.584 50.6327 199.617 49.898C198.651 49.1633 198.167 48.0903 198.167 46.679C198.167 45.2677 198.68 44.1947 199.704 43.46C200.729 42.7253 202.015 42.358 203.561 42.358C204.431 42.358 205.359 42.5127 206.345 42.822ZM212.752 51V43.083C212.752 40.8597 213.168 39.3227 213.999 38.472C214.405 38.0467 214.898 37.7277 215.478 37.515C216.058 37.3023 216.561 37.1767 216.986 37.138C217.431 37.0993 218.03 37.08 218.784 37.08H221.336V39.516H218.262C217.876 39.516 217.576 39.5257 217.363 39.545C217.151 39.5643 216.899 39.632 216.609 39.748C216.319 39.864 216.068 40.0477 215.855 40.299C215.488 40.763 215.304 41.691 215.304 43.083V51H212.752ZM221.763 39.516L226.954 34.325V37.08H230.869V39.516H226.954V45.49C226.954 46.1667 227.06 46.7273 227.273 47.172C227.505 47.6167 227.833 47.9357 228.259 48.129C228.684 48.303 229.08 48.419 229.448 48.477C229.834 48.535 230.308 48.564 230.869 48.564V51C228.645 51 227.002 50.5747 225.939 49.724C224.875 48.8733 224.344 47.462 224.344 45.49V39.516H221.763ZM249.915 47.955L251.655 49.666C250.321 50.7487 248.794 51.29 247.073 51.29C244.927 51.29 243.206 50.6037 241.911 49.231C240.616 47.839 239.968 46.1087 239.968 44.04C239.968 42.01 240.645 40.299 241.998 38.907C243.371 37.4957 245.062 36.79 247.073 36.79C248.794 36.79 250.321 37.3313 251.655 38.414L249.944 40.154C249.132 39.5353 248.175 39.226 247.073 39.226C245.739 39.226 244.676 39.6707 243.883 40.56C243.11 41.43 242.723 42.59 242.723 44.04C242.723 45.49 243.11 46.6597 243.883 47.549C244.676 48.419 245.739 48.854 247.073 48.854C248.194 48.854 249.142 48.5543 249.915 47.955ZM255.705 38.907C257.058 37.4957 258.75 36.79 260.78 36.79C261.766 36.79 262.684 36.9833 263.535 37.37C264.405 37.7373 265.159 38.2497 265.797 38.907C266.454 39.5643 266.967 40.3377 267.334 41.227C267.701 42.097 267.885 43.0347 267.885 44.04C267.885 45.0453 267.701 45.9927 267.334 46.882C266.986 47.752 266.493 48.5157 265.855 49.173C265.217 49.8303 264.463 50.3523 263.593 50.739C262.723 51.1063 261.785 51.29 260.78 51.29C259.755 51.29 258.808 51.1063 257.938 50.739C257.087 50.3523 256.343 49.8303 255.705 49.173C255.067 48.5157 254.564 47.752 254.197 46.882C253.849 45.9927 253.675 45.0453 253.675 44.04C253.675 41.9907 254.352 40.2797 255.705 38.907ZM260.78 39.226C259.427 39.226 258.334 39.6707 257.503 40.56C256.691 41.4493 256.285 42.6093 256.285 44.04C256.285 45.4707 256.691 46.6307 257.503 47.52C258.334 48.4093 259.427 48.854 260.78 48.854C262.153 48.854 263.245 48.4093 264.057 47.52C264.869 46.6113 265.275 45.4513 265.275 44.04C265.275 42.6287 264.869 41.4783 264.057 40.589C263.245 39.6803 262.153 39.226 260.78 39.226ZM271.077 37.08H283.866C285.239 37.08 286.331 37.341 287.143 37.863C287.975 38.385 288.516 39.0617 288.767 39.893C289.038 40.7243 289.173 41.72 289.173 42.88V51H286.621V42.88C286.621 41.372 286.167 40.3763 285.258 39.893C284.794 39.6417 283.857 39.516 282.445 39.516H281.256V51H278.704V39.516H273.629V51H271.077V37.08ZM292.799 37.08H305.588C306.961 37.08 308.053 37.341 308.865 37.863C309.696 38.385 310.238 39.0617 310.489 39.893C310.76 40.7243 310.895 41.72 310.895 42.88V51H308.343V42.88C308.343 41.372 307.889 40.3763 306.98 39.893C306.516 39.6417 305.578 39.516 304.167 39.516H302.978V51H300.426V39.516H295.351V51H292.799V37.08ZM325.918 51H320.901C318.755 51 317.218 50.681 316.29 50.043C315.458 49.4823 314.927 48.8153 314.695 48.042C314.482 47.2493 314.376 46.215 314.376 44.939V37.08H316.928V44.91C316.928 45.258 316.937 45.5577 316.957 45.809C316.976 46.041 317.044 46.3503 317.16 46.737C317.276 47.1043 317.44 47.4137 317.653 47.665C317.865 47.897 318.175 48.1097 318.581 48.303C318.987 48.477 319.48 48.564 320.06 48.564H323.366V37.08H325.918V51ZM328.105 39.516L333.296 34.325V37.08H337.211V39.516H333.296V45.49C333.296 46.1667 333.403 46.7273 333.615 47.172C333.847 47.6167 334.176 47.9357 334.601 48.129C335.027 48.303 335.423 48.419 335.79 48.477C336.177 48.535 336.651 48.564 337.211 48.564V51C334.988 51 333.345 50.5747 332.281 49.724C331.218 48.8733 330.686 47.462 330.686 45.49V39.516H328.105ZM343.747 51H341.195V39.516H338.817L339.977 37.08H343.747V51ZM341.079 34.18C340.828 33.8513 340.702 33.4937 340.702 33.107C340.702 32.7203 340.828 32.3723 341.079 32.063C341.331 31.7343 341.717 31.57 342.239 31.57C342.761 31.57 343.148 31.7343 343.399 32.063C343.651 32.3723 343.776 32.7203 343.776 33.107C343.776 33.4937 343.651 33.8513 343.399 34.18C343.148 34.4893 342.761 34.644 342.239 34.644C341.717 34.644 341.331 34.4893 341.079 34.18ZM347.769 37.08H352.786C354.932 37.08 356.469 37.399 357.397 38.037C358.228 38.5977 358.75 39.2743 358.963 40.067C359.195 40.8403 359.311 41.865 359.311 43.141V51H356.759V43.17C356.759 42.822 356.749 42.532 356.73 42.3C356.71 42.0487 356.643 41.7393 356.527 41.372C356.411 40.9853 356.246 40.676 356.034 40.444C355.821 40.1927 355.512 39.98 355.106 39.806C354.7 39.6127 354.207 39.516 353.627 39.516H350.321V51H347.769V37.08ZM369.27 51C367.376 51 365.752 50.362 364.398 49.086C363.045 47.81 362.368 46.1763 362.368 44.185C362.368 42.1743 363.045 40.4923 364.398 39.139C365.771 37.7663 367.463 37.08 369.473 37.08H376.288V50.594C376.288 51.464 376.172 52.247 375.94 52.943C375.728 53.639 375.418 54.2287 375.012 54.712C374.606 55.1953 374.239 55.5723 373.91 55.843C373.582 56.1137 373.185 56.394 372.721 56.684C371.523 57.3027 370.063 57.612 368.342 57.612H365.094V55.176H368.081C369.783 55.176 370.991 54.9633 371.706 54.538C373.021 53.8033 373.678 52.5853 373.678 50.884V39.516H369.473C368.101 39.516 367.008 39.9413 366.196 40.792C365.384 41.6427 364.978 42.7737 364.978 44.185C364.978 45.5383 365.394 46.6113 366.225 47.404C367.076 48.1773 368.091 48.564 369.27 48.564C370.546 48.564 371.668 48.216 372.634 47.52V50.13C371.59 50.71 370.469 51 369.27 51Z" fill="#EE8F00"/>
</svg>
