<?xml version="1.0" encoding="UTF-8" standalone="no"?>
<!-- Generator: Adobe Illustrator 24.1.1, SVG Export Plug-In . SVG Version: 6.00 Build 0)  -->

<svg
   xmlns:dc="http://purl.org/dc/elements/1.1/"
   xmlns:cc="http://creativecommons.org/ns#"
   xmlns:rdf="http://www.w3.org/1999/02/22-rdf-syntax-ns#"
   xmlns:svg="http://www.w3.org/2000/svg"
   xmlns="http://www.w3.org/2000/svg"
   xmlns:sodipodi="http://sodipodi.sourceforge.net/DTD/sodipodi-0.dtd"
   xmlns:inkscape="http://www.inkscape.org/namespaces/inkscape"
   version="1.1"
   id="Layer_1"
   x="0px"
   y="0px"
   viewBox="0 0 400 109.65618"
   xml:space="preserve"
   sodipodi:docname="opentransport-logo.svg"
   inkscape:version="0.92.5 (2060ec1f9f, 2020-04-08)"
   width="400"
   height="109.65618"><metadata
   id="metadata64"><rdf:RDF><cc:Work
       rdf:about=""><dc:format>image/svg+xml</dc:format><dc:type
         rdf:resource="http://purl.org/dc/dcmitype/StillImage" /></cc:Work></rdf:RDF></metadata><defs
   id="defs62" /><sodipodi:namedview
   pagecolor="#ffffff"
   bordercolor="#666666"
   borderopacity="1"
   objecttolerance="10"
   gridtolerance="10"
   guidetolerance="10"
   inkscape:pageopacity="0"
   inkscape:pageshadow="2"
   inkscape:window-width="1920"
   inkscape:window-height="1043"
   id="namedview60"
   showgrid="false"
   inkscape:zoom="1.1566667"
   inkscape:cx="44.192794"
   inkscape:cy="54.383974"
   inkscape:window-x="0"
   inkscape:window-y="0"
   inkscape:window-maximized="1"
   inkscape:current-layer="Layer_1" />
<style
   type="text/css"
   id="style2">
	.st0{fill:#CC0000;}
	.st1{fill:#FFFFFF;}
</style>
<g
   id="g57"
   transform="matrix(1.4630578,0,0,1.4630578,-19.458669,-32.948062)">
	<path
   class="st0"
   d="m 246.2,62.47 c -0.83,0 -1.53,0.28 -2.1,0.85 -0.57,0.57 -0.85,1.27 -0.85,2.1 0,0.8 0.28,1.48 0.85,2.05 0.43,0.43 0.95,0.7 1.55,0.8 0.17,0.03 0.35,0.05 0.55,0.05 0.2,0 0.4,-0.02 0.6,-0.05 0.57,-0.1 1.05,-0.37 1.45,-0.8 0.57,-0.57 0.85,-1.25 0.85,-2.05 0,-0.83 -0.28,-1.53 -0.85,-2.1 -0.53,-0.56 -1.22,-0.85 -2.05,-0.85 m 18.4,-9.4 -1.05,-4.15 c -0.97,0 -2.08,0.33 -3.35,1 -1.23,0.67 -2.32,1.42 -3.25,2.25 l -1.75,-3.25 h -2.7 v 19.4 h 5.2 V 56.47 c 1.13,-0.97 2.33,-1.78 3.6,-2.45 1.3,-0.63 2.4,-0.95 3.3,-0.95 m 17.2,-3.4 c -1.57,-0.83 -3.38,-1.25 -5.45,-1.25 -2.07,0 -3.88,0.42 -5.45,1.25 -1.57,0.83 -2.77,2.02 -3.6,3.55 -0.87,1.57 -1.3,3.38 -1.3,5.45 0,2.03 0.43,3.82 1.3,5.35 0.83,1.53 2.03,2.72 3.6,3.55 0.53,0.27 1.1,0.5 1.7,0.7 1.13,0.37 2.38,0.55 3.75,0.55 1.33,0 2.58,-0.18 3.75,-0.55 0.6,-0.2 1.17,-0.45 1.7,-0.75 1.57,-0.83 2.78,-2.02 3.65,-3.55 0.83,-1.57 1.25,-3.37 1.25,-5.4 0,-2.07 -0.42,-3.87 -1.25,-5.4 -0.87,-1.53 -2.08,-2.7 -3.65,-3.5 m -9.05,4.8 c 0.97,-1.1 2.17,-1.65 3.6,-1.65 1.47,0 2.67,0.53 3.6,1.6 0.93,1.07 1.4,2.45 1.4,4.15 0,1.67 -0.47,3.05 -1.4,4.15 -0.97,1.1 -2.17,1.65 -3.6,1.65 -1.47,0 -2.67,-0.53 -3.6,-1.6 -0.93,-1.07 -1.4,-2.43 -1.4,-4.1 0,-1.7 0.47,-3.1 1.4,-4.2 z"
   id="path4"
   inkscape:connector-curvature="0"
   style="fill:#cc0000" />
	<polyline
   class="st1"
   points="93.5,74.92 92.25,74.92 89.45,77.97 89.45,78.12 91.2,78.12 92.9,76.17 94.6,78.12 96.3,78.12    96.3,78.02 93.5,74.92  "
   id="polyline6"
   style="fill:#ffffff" />
	<path
   class="st1"
   d="m 96.45,82.02 c -0.43,-0.6 -1,-1.08 -1.7,-1.45 -0.73,-0.37 -1.53,-0.55 -2.4,-0.55 -0.57,0 -1.27,0.1 -2.1,0.3 -0.83,0.2 -1.47,0.45 -1.9,0.75 l 0.65,1.8 c 1.2,-0.53 2.32,-0.8 3.35,-0.8 0.9,0 1.52,0.25 1.85,0.75 0.33,0.5 0.5,1.23 0.5,2.2 h -2.75 c -1.3,0 -2.33,0.32 -3.1,0.95 -0.77,0.63 -1.15,1.52 -1.15,2.65 0,1.1 0.33,1.98 1,2.65 0.7,0.67 1.72,1 3.05,1 0.57,0 1.17,-0.13 1.8,-0.4 0.63,-0.3 1.17,-0.63 1.6,-1 l 0.3,1.1 h 1.6 v -7.9 c 0,-0.73 -0.2,-1.41 -0.6,-2.05 z m -1.7,6.9 c -0.43,0.43 -0.92,0.8 -1.45,1.1 -0.5,0.27 -1.03,0.4 -1.6,0.4 -0.63,0 -1.12,-0.17 -1.45,-0.5 -0.33,-0.37 -0.5,-0.8 -0.5,-1.3 0,-0.6 0.18,-1.1 0.55,-1.5 0.4,-0.4 0.93,-0.6 1.6,-0.6 h 2.85 z"
   id="path8"
   inkscape:connector-curvature="0"
   style="fill:#ffffff" />
	<path
   class="st1"
   d="m 236.4,86.02 c 0,-1.73 -0.43,-3.17 -1.3,-4.3 -0.87,-1.13 -2.13,-1.7 -3.8,-1.7 -1.13,0 -2.12,0.25 -2.95,0.75 -0.87,0.53 -1.52,1.27 -1.95,2.2 -0.47,0.9 -0.7,1.97 -0.7,3.2 0,1.87 0.55,3.35 1.65,4.45 1.1,1.1 2.67,1.65 4.7,1.65 1.4,0 2.8,-0.43 4.2,-1.3 l -0.7,-1.65 c -0.83,0.37 -1.47,0.63 -1.9,0.8 -0.47,0.13 -1,0.2 -1.6,0.2 -1.27,0 -2.22,-0.32 -2.85,-0.95 -0.63,-0.67 -1,-1.57 -1.1,-2.7 h 8.3 z m -8.25,-0.9 c 0.13,-1 0.45,-1.77 0.95,-2.3 0.53,-0.57 1.23,-0.85 2.1,-0.85 1.67,0 2.65,1.05 2.95,3.15 z"
   id="path10"
   inkscape:connector-curvature="0"
   style="fill:#ffffff" />
	<path
   class="st1"
   d="m 220,75.27 v 5.5 c -0.43,-0.23 -0.88,-0.42 -1.35,-0.55 -0.43,-0.13 -0.82,-0.2 -1.15,-0.2 -1.17,0 -2.18,0.25 -3.05,0.75 -0.9,0.5 -1.58,1.22 -2.05,2.15 -0.5,0.9 -0.75,1.95 -0.75,3.15 0,1.23 0.23,2.33 0.7,3.3 0.47,0.93 1.13,1.65 2,2.15 0.87,0.5 1.9,0.75 3.1,0.75 0.43,0 0.93,-0.1 1.5,-0.3 0.6,-0.2 1.13,-0.5 1.6,-0.9 l 0.45,0.9 h 1.35 v -16.9 z m 0,14.05 c -0.37,0.33 -0.75,0.58 -1.15,0.75 -0.4,0.17 -0.87,0.25 -1.4,0.25 -1.07,0 -1.92,-0.38 -2.55,-1.15 -0.6,-0.8 -0.9,-1.85 -0.9,-3.15 0,-1.17 0.32,-2.13 0.95,-2.9 0.6,-0.77 1.43,-1.15 2.5,-1.15 0.5,0 0.97,0.08 1.4,0.25 0.4,0.13 0.78,0.37 1.15,0.7 z"
   id="path12"
   inkscape:connector-curvature="0"
   style="fill:#ffffff" />
	<polyline
   class="st1"
   points="152.9,91.97 152.9,80.32 150.6,80.32 150.6,91.97 152.9,91.97  "
   id="polyline14"
   style="fill:#ffffff" />
	<path
   class="st1"
   d="m 153.2,76.82 c 0,-0.4 -0.15,-0.75 -0.45,-1.05 -0.3,-0.27 -0.65,-0.4 -1.05,-0.4 -0.4,0 -0.73,0.13 -1,0.4 -0.27,0.3 -0.4,0.65 -0.4,1.05 0,0.4 0.13,0.73 0.4,1 0.27,0.3 0.6,0.45 1,0.45 0.4,0 0.75,-0.15 1.05,-0.45 0.3,-0.26 0.45,-0.6 0.45,-1"
   id="path16"
   inkscape:connector-curvature="0"
   style="fill:#ffffff" />
	<path
   class="st1"
   d="m 146.2,82.02 c -0.43,-0.6 -1,-1.08 -1.7,-1.45 -0.73,-0.37 -1.53,-0.55 -2.4,-0.55 -0.57,0 -1.27,0.1 -2.1,0.3 -0.83,0.2 -1.47,0.45 -1.9,0.75 l 0.65,1.8 c 1.2,-0.53 2.32,-0.8 3.35,-0.8 0.9,0 1.52,0.25 1.85,0.75 0.33,0.5 0.5,1.23 0.5,2.2 h -2.75 c -1.3,0 -2.33,0.32 -3.1,0.95 -0.77,0.63 -1.15,1.52 -1.15,2.65 0,1.1 0.33,1.98 1,2.65 0.7,0.67 1.72,1 3.05,1 0.57,0 1.17,-0.13 1.8,-0.4 0.63,-0.3 1.17,-0.63 1.6,-1 l 0.3,1.1 h 1.6 v -7.9 c 0,-0.73 -0.2,-1.41 -0.6,-2.05 z m -1.7,6.9 c -0.43,0.43 -0.92,0.8 -1.45,1.1 -0.5,0.27 -1.03,0.4 -1.6,0.4 -0.63,0 -1.12,-0.17 -1.45,-0.5 -0.33,-0.37 -0.5,-0.8 -0.5,-1.3 0,-0.6 0.18,-1.1 0.55,-1.5 0.4,-0.4 0.93,-0.6 1.6,-0.6 h 2.85 z"
   id="path18"
   inkscape:connector-curvature="0"
   style="fill:#ffffff" />
	<path
   class="st1"
   d="m 118.55,81.87 -0.4,-1.55 h -1.6 v 11.65 h 2.3 v -8.2 c 0.63,-0.53 1.25,-0.98 1.85,-1.35 0.63,-0.33 1.2,-0.5 1.7,-0.5 0.63,0 1.08,0.22 1.35,0.65 0.3,0.47 0.45,1.12 0.45,1.95 v 7.45 h 2.3 v -7.7 c 0,-0.3 0,-0.52 0,-0.65 0.57,-0.5 1.15,-0.92 1.75,-1.25 0.6,-0.3 1.13,-0.45 1.6,-0.45 0.63,0 1.1,0.22 1.4,0.65 0.27,0.47 0.4,1.12 0.4,1.95 v 7.45 h 2.3 v -7.7 c 0,-1.3 -0.3,-2.35 -0.9,-3.15 -0.6,-0.77 -1.52,-1.15 -2.75,-1.15 -0.7,0 -1.43,0.17 -2.2,0.5 -0.77,0.37 -1.47,0.83 -2.1,1.4 -0.27,-0.6 -0.67,-1.07 -1.2,-1.4 -0.53,-0.33 -1.18,-0.5 -1.95,-0.5 -0.7,0 -1.43,0.17 -2.2,0.5 -0.8,0.37 -1.5,0.84 -2.1,1.4"
   id="path20"
   inkscape:connector-curvature="0"
   style="fill:#ffffff" />
	<path
   class="st1"
   d="m 99.75,80.47 0.05,1.75 h 1.6 v 6.5 c 0,1.17 0.33,2.07 1,2.7 0.67,0.63 1.58,0.95 2.75,0.95 0.3,0 0.65,-0.05 1.05,-0.15 0.37,-0.1 0.67,-0.22 0.9,-0.35 l -0.6,-1.75 c -0.47,0.17 -0.83,0.25 -1.1,0.25 -0.57,0 -0.98,-0.17 -1.25,-0.5 -0.3,-0.37 -0.45,-0.87 -0.45,-1.5 v -6.15 h 2.85 l -0.7,-1.75 h -2.15 v -3.45 l -2.3,0.55 v 2.9 h -1.65"
   id="path22"
   inkscape:connector-curvature="0"
   style="fill:#ffffff" />
	<path
   class="st1"
   d="m 195.45,82.97 c -0.47,-0.93 -1.13,-1.67 -2,-2.2 -0.9,-0.5 -1.93,-0.75 -3.1,-0.75 -0.4,0 -0.87,0.1 -1.4,0.3 -0.53,0.17 -1.03,0.42 -1.5,0.75 l -0.5,-0.75 h -1.3 v 17.15 h 2.3 v -5.85 c 0.4,0.23 0.82,0.4 1.25,0.5 0.43,0.1 0.8,0.15 1.1,0.15 1.17,0 2.18,-0.25 3.05,-0.75 0.9,-0.5 1.58,-1.2 2.05,-2.1 0.47,-0.93 0.7,-2 0.7,-3.2 0,-1.23 -0.22,-2.31 -0.65,-3.25 z m -2.6,6.2 c -0.6,0.77 -1.43,1.15 -2.5,1.15 -0.93,0 -1.73,-0.27 -2.4,-0.8 v -6.7 c 0.67,-0.57 1.47,-0.85 2.4,-0.85 1.07,0 1.9,0.4 2.5,1.2 0.6,0.77 0.9,1.8 0.9,3.1 0,1.17 -0.3,2.14 -0.9,2.9 z"
   id="path24"
   inkscape:connector-curvature="0"
   style="fill:#ffffff" />
	<path
   class="st1"
   d="m 209.25,86.02 c 0,-1.73 -0.43,-3.17 -1.3,-4.3 -0.87,-1.13 -2.13,-1.7 -3.8,-1.7 -1.13,0 -2.12,0.25 -2.95,0.75 -0.87,0.53 -1.52,1.27 -1.95,2.2 -0.47,0.9 -0.7,1.97 -0.7,3.2 0,1.87 0.55,3.35 1.65,4.45 1.1,1.1 2.67,1.65 4.7,1.65 1.4,0 2.8,-0.43 4.2,-1.3 l -0.7,-1.65 c -0.83,0.37 -1.47,0.63 -1.9,0.8 -0.47,0.13 -1,0.2 -1.6,0.2 -1.27,0 -2.22,-0.32 -2.85,-0.95 -0.63,-0.67 -1,-1.57 -1.1,-2.7 h 8.3 z M 201,85.12 c 0.13,-1 0.45,-1.77 0.95,-2.3 0.53,-0.57 1.23,-0.85 2.1,-0.85 1.67,0 2.65,1.05 2.95,3.15 z"
   id="path26"
   inkscape:connector-curvature="0"
   style="fill:#ffffff" />
	<path
   class="st1"
   d="m 169.75,82.17 -0.55,-1.85 c -0.53,0 -1.18,0.2 -1.95,0.6 -0.73,0.4 -1.37,0.83 -1.9,1.3 l -0.75,-1.9 h -1.3 v 11.65 h 2.3 v -7.7 c 0.6,-0.57 1.28,-1.07 2.05,-1.5 0.77,-0.4 1.47,-0.6 2.1,-0.6"
   id="path28"
   inkscape:connector-curvature="0"
   style="fill:#ffffff" />
	<path
   class="st1"
   d="m 182.35,86.02 c 0,-1.73 -0.43,-3.17 -1.3,-4.3 -0.87,-1.13 -2.13,-1.7 -3.8,-1.7 -1.13,0 -2.12,0.25 -2.95,0.75 -0.87,0.53 -1.52,1.27 -1.95,2.2 -0.47,0.9 -0.7,1.97 -0.7,3.2 0,1.87 0.55,3.35 1.65,4.45 1.1,1.1 2.67,1.65 4.7,1.65 1.4,0 2.8,-0.43 4.2,-1.3 l -0.7,-1.65 c -0.83,0.37 -1.47,0.63 -1.9,0.8 -0.47,0.13 -1,0.2 -1.6,0.2 -1.27,0 -2.22,-0.32 -2.85,-0.95 -0.63,-0.67 -1,-1.57 -1.1,-2.7 h 8.3 z m -8.25,-0.9 c 0.13,-1 0.45,-1.77 0.95,-2.3 0.53,-0.57 1.23,-0.85 2.1,-0.85 1.67,0 2.65,1.05 2.95,3.15 z"
   id="path30"
   inkscape:connector-curvature="0"
   style="fill:#ffffff" />
	<path
   class="st1"
   d="m 78.4,89.17 c -0.63,-0.8 -0.95,-1.82 -0.95,-3.05 0.03,-1.2 0.37,-2.18 1,-2.95 0.63,-0.8 1.47,-1.2 2.5,-1.2 0.63,0 1.17,0.07 1.6,0.2 0.47,0.13 1.03,0.33 1.7,0.6 l 0.65,-1.65 c -0.47,-0.3 -1.1,-0.55 -1.9,-0.75 -0.8,-0.23 -1.47,-0.35 -2,-0.35 -1.17,0 -2.2,0.25 -3.1,0.75 -0.9,0.53 -1.58,1.27 -2.05,2.2 -0.5,0.9 -0.75,1.95 -0.75,3.15 0,1.23 0.25,2.32 0.75,3.25 0.47,0.93 1.13,1.65 2,2.15 0.87,0.5 1.88,0.75 3.05,0.75 0.53,0 1.22,-0.1 2.05,-0.3 0.8,-0.2 1.43,-0.47 1.9,-0.8 l -0.7,-1.65 c -0.53,0.27 -1.05,0.47 -1.55,0.6 -0.47,0.13 -1.03,0.2 -1.7,0.2 -1.07,0 -1.9,-0.38 -2.5,-1.15"
   id="path32"
   inkscape:connector-curvature="0"
   style="fill:#ffffff" />
	<path
   class="st1"
   d="m 236.25,43.67 c -1.17,-1.67 -2.7,-2.95 -4.6,-3.85 -1.9,-0.93 -4.02,-1.4 -6.35,-1.4 -1.37,0 -3.18,0.28 -5.45,0.85 -2.3,0.53 -3.97,1.13 -5,1.8 l 2.1,6.5 c 1.13,-0.53 2.5,-0.98 4.1,-1.35 1.6,-0.4 3.05,-0.6 4.35,-0.6 1.47,0 2.6,0.42 3.4,1.25 0.83,0.83 1.27,1.98 1.3,3.45 h -5.7 c -3.33,0 -6.02,0.82 -8.05,2.45 -2,1.63 -3,3.92 -3,6.85 0,2.9 0.88,5.2 2.65,6.9 0.78,0.75 1.71,1.33 2.8,1.75 1.43,0.53 3.11,0.8 5.05,0.8 1.22,0 2.4,-0.27 3.55,-0.8 1.42,-0.64 2.81,-1.65 4.15,-3.05 l 1.25,3.05 0.05,0.05 h 5.1 V 49.17 c 0,-2.03 -0.57,-3.86 -1.7,-5.5 z m -6.1,16.35 c -1.93,1.9 -4.07,2.85 -6.4,2.85 -1.07,0 -1.97,-0.32 -2.7,-0.95 -0.7,-0.67 -1.05,-1.43 -1.05,-2.3 0,-1.1 0.4,-2.05 1.2,-2.85 0.77,-0.8 1.78,-1.2 3.05,-1.2 h 5.9 z"
   id="path34"
   inkscape:connector-curvature="0"
   style="fill:#ffffff" />
	<path
   class="st1"
   d="M 221.1,27.22 H 217 c 0.1,2.2 0.95,3.95 2.55,5.25 1.63,1.3 3.67,1.95 6.1,1.95 2.43,0 4.45,-0.65 6.05,-1.95 1.63,-1.3 2.5,-3.05 2.6,-5.25 h -4.1 c -0.03,1.13 -0.48,2.05 -1.35,2.75 -0.87,0.67 -1.93,1 -3.2,1 -1.27,0 -2.33,-0.33 -3.2,-1 -0.87,-0.7 -1.32,-1.61 -1.35,-2.75"
   id="path36"
   inkscape:connector-curvature="0"
   style="fill:#ffffff" />
	<path
   class="st1"
   d="m 136.35,39.22 h -7.8 v 20.15 c -1.43,1.07 -2.75,1.9 -3.95,2.5 -1.2,0.63 -2.48,0.95 -3.85,0.95 -1.33,0 -2.37,-0.5 -3.1,-1.5 -0.73,-1 -1.1,-2.4 -1.1,-4.2 v -17.9 h -7.8 v 18.25 c 0,3.73 0.73,6.63 2.2,8.7 0.65,0.89 1.5,1.59 2.55,2.1 1.38,0.67 3.12,1 5.2,1 1.56,0 3.33,-0.33 5.3,-1 0.05,-0.02 0.1,-0.03 0.15,-0.05 2.07,-0.73 4,-1.73 5.8,-3 l 1.25,3.05 0.05,0.05 h 5.1 v -29.1"
   id="path38"
   inkscape:connector-curvature="0"
   style="fill:#ffffff" />
	<path
   class="st1"
   d="m 93.95,26.62 v 13.7 c -1,-0.57 -2.05,-1.03 -3.15,-1.4 -1.07,-0.33 -2.07,-0.5 -3,-0.5 -3.1,0 -5.77,0.65 -8,1.95 -2.23,1.27 -3.95,3.07 -5.15,5.4 -1.17,2.33 -1.75,5.02 -1.75,8.05 0,4.67 1.3,8.38 3.9,11.15 1.47,1.53 3.24,2.63 5.3,3.3 1.63,0.53 3.45,0.8 5.45,0.8 1.47,0 2.87,-0.27 4.2,-0.8 1.46,-0.57 2.85,-1.43 4.15,-2.6 l 1.8,2.6 0.05,0.05 h 4.05 V 25.97 Z m 0,33.4 c -1.07,0.8 -2.1,1.38 -3.1,1.75 -0.97,0.43 -1.97,0.65 -3,0.65 -2.17,0 -3.87,-0.8 -5.1,-2.4 -1.23,-1.57 -1.85,-3.63 -1.85,-6.2 0,-2.57 0.63,-4.67 1.9,-6.3 1.23,-1.63 2.92,-2.45 5.05,-2.45 1.1,0 2.13,0.18 3.1,0.55 0.97,0.4 1.97,1.05 3,1.95 z"
   id="path40"
   inkscape:connector-curvature="0"
   style="fill:#ffffff" />
	<path
   class="st1"
   d="m 177.85,44.72 c 1.27,0 2.18,0.48 2.75,1.45 0.57,0.97 0.85,2.4 0.85,4.3 v 17.85 h 7.8 v -20.2 c 1.57,-1.13 2.85,-1.98 3.85,-2.55 1,-0.57 2.1,-0.85 3.3,-0.85 1.23,0 2.13,0.48 2.7,1.45 0.6,0.97 0.9,2.4 0.9,4.3 v 17.85 h 7.75 V 48.87 c 0,-3.53 -0.72,-6.18 -2.15,-7.95 -1.47,-1.77 -3.85,-2.65 -7.15,-2.65 -1.47,0 -3.13,0.35 -5,1.05 -1.87,0.7 -3.7,1.67 -5.5,2.9 -1.4,-2.63 -4.08,-3.95 -8.05,-3.95 -1.43,0 -3.12,0.37 -5.05,1.1 -1.93,0.7 -3.78,1.68 -5.55,2.95 l -1.35,-3.1 h -5.1 v 29.1 h 7.8 V 48.17 c 1.6,-1.17 2.9,-2.03 3.9,-2.6 1,-0.57 2.1,-0.85 3.3,-0.85"
   id="path42"
   inkscape:connector-curvature="0"
   style="fill:#ffffff" />
	<polygon
   class="st1"
   points="142.1,54.92 157.8,54.92 157.15,48.82 141.45,48.82 "
   id="polygon44"
   style="fill:#ffffff" />
	<path
   class="st1"
   d="m 47,46.97 -1.9,1.9 4.75,4.8 H 41.2 c -0.57,0.77 -1.08,1.38 -1.55,1.85 L 39,56.27 h 10.85 l -4.75,4.8 1.9,1.85 7.95,-7.95 -7.95,-8"
   id="path46"
   inkscape:connector-curvature="0"
   style="fill:#ffffff" />
	<path
   class="st1"
   d="m 31.8,48.87 -1.9,-1.9 -7.95,8 7.95,7.95 1.9,-1.85 -4.75,-4.8 H 38 c -0.2,-0.2 -0.42,-0.45 -0.65,-0.75 -0.3,-0.33 -0.78,-0.95 -1.45,-1.85 h -8.85 z"
   id="path48"
   inkscape:connector-curvature="0"
   style="fill:#ffffff" />
	<path
   class="st0"
   d="m 45.65,44.17 c 0.53,-1.43 0.8,-2.7 0.8,-3.8 0,-2.2 -0.77,-4.08 -2.3,-5.65 -1.57,-1.53 -3.45,-2.3 -5.65,-2.3 -2.2,0 -4.08,0.77 -5.65,2.3 -1.57,1.57 -2.35,3.45 -2.35,5.65 0,1.1 0.28,2.38 0.85,3.85 0.6,1.43 1.25,2.72 1.95,3.85 0.7,1.13 1.52,2.32 2.45,3.55 0.13,0.2 0.28,0.37 0.45,0.5 0.67,0.93 1.15,1.57 1.45,1.9 0.27,0.3 0.48,0.53 0.65,0.7 0.07,0.1 0.13,0.18 0.2,0.25 l 0.85,-0.95 c 0.43,-0.47 0.95,-1.1 1.55,-1.9 0.13,-0.2 0.27,-0.4 0.4,-0.6 0.77,-1.07 1.55,-2.22 2.35,-3.45 0.8,-1.16 1.47,-2.46 2,-3.9 m -4.5,-3.8 c 0,0.7 -0.25,1.32 -0.75,1.85 -0.53,0.5 -1.17,0.75 -1.9,0.75 -0.73,0 -1.35,-0.25 -1.85,-0.75 -0.5,-0.53 -0.75,-1.15 -0.75,-1.85 0,-0.73 0.25,-1.37 0.75,-1.9 0.5,-0.53 1.12,-0.8 1.85,-0.8 0.73,0 1.37,0.27 1.9,0.8 0.5,0.54 0.75,1.17 0.75,1.9 z"
   id="path50"
   inkscape:connector-curvature="0"
   style="fill:#cc0000" />
	<g
   id="g55">
		<g
   id="Layer0_1_1_STROKES">
			<path
   class="st0"
   d="m 55.55,72.82 h -34.2 c -5.12,0 -8.05,-2.93 -8.05,-8.05 v -34.2 c 0,-5.12 2.93,-8.05 8.05,-8.05 h 34.2 c 5.12,0 8.05,2.93 8.05,8.05 v 34.2 c 0,5.12 -2.93,8.05 -8.05,8.05 z M 21.35,26.53 c -2.91,0 -4.05,1.14 -4.05,4.05 v 34.2 c 0,2.91 1.14,4.05 4.05,4.05 h 34.2 c 2.91,0 4.05,-1.14 4.05,-4.05 v -34.2 c 0,-2.91 -1.14,-4.05 -4.05,-4.05 z"
   id="path52"
   inkscape:connector-curvature="0"
   style="fill:#cc0000" />
		</g>
	</g>
</g>
</svg>