<svg width="500" height="500" viewBox="0 0 500 500" fill="none" xmlns="http://www.w3.org/2000/svg">
<rect width="500" height="500" fill="white"/>
<path d="M380.728 257.822H438.575L451.436 245.534H393.167L380.728 257.822Z" fill="white"/>
<path d="M361.087 276.255V308.204L348.648 319.878V287.314L361.087 276.255Z" fill="white"/>
<path d="M268.12 257.822H327.698L341.446 245.534H268.12M380.728 257.822H438.575L451.436 245.534H393.167L380.728 257.822ZM361.087 276.255V308.204L348.648 319.878V287.314L361.087 276.255Z" stroke="black" stroke-width="10"/>
<path d="M267.048 250.45C267.048 305.08 219.761 349.899 160.749 349.899C101.738 349.899 54.4508 305.08 54.4508 250.45C54.4508 195.819 101.738 151 160.749 151C219.761 151 267.048 195.819 267.048 250.45Z" stroke="#EE8F00" stroke-width="10"/>
<path d="M244.788 251.064C244.788 293.818 207.76 329.009 161.404 329.009C115.048 329.009 78.0198 293.818 78.0198 251.064C78.0198 208.31 115.048 173.119 161.404 173.119C207.76 173.119 244.788 208.31 244.788 251.064Z" stroke="#EE8F00" stroke-width="10"/>
<path d="M221.219 250.45C221.219 281.327 194.45 306.89 160.75 306.89C127.049 306.89 100.28 281.327 100.28 250.45C100.28 219.573 127.049 194.009 160.75 194.009C194.45 194.009 221.219 219.573 221.219 250.45Z" stroke="#EE8F00" stroke-width="10"/>
<path d="M198.96 251.064C198.96 270.064 182.449 286 161.404 286C140.359 286 123.849 270.064 123.849 251.064C123.849 232.063 140.359 216.127 161.404 216.127C182.449 216.127 198.96 232.063 198.96 251.064Z" stroke="#EE8F00" stroke-width="10"/>
</svg>
