<svg width="587" height="110" viewBox="0 0 587 110" fill="none" xmlns="http://www.w3.org/2000/svg">
<path d="M152.8 43.8H146.8L144.4 37.6H133.5L131.2 43.8H125.4L136 16.5H141.8L152.8 43.8ZM142.7 33L138.9 22.9L135.2 33H142.7Z" fill="#1a1a1a"/>
<path d="M154.3 34.9001L159.7 34.4001C160 36.2001 160.7 37.5001 161.7 38.4001C162.7 39.3001 164 39.7001 165.7 39.7001C167.5 39.7001 168.8 39.3001 169.7 38.6001C170.6 37.9001 171 37.0001 171 36.0001C171 35.4001 170.8 34.8001 170.4 34.4001C170 33.9001 169.4 33.6001 168.4 33.2001C167.8 33.0001 166.3 32.6001 164 32.0001C161 31.3001 159 30.4001 157.8 29.3001C156.1 27.8001 155.3 26.0001 155.3 23.8001C155.3 22.4001 155.7 21.1001 156.5 19.9001C157.3 18.7001 158.4 17.8001 159.9 17.1001C161.4 16.5001 163.2 16.2001 165.3 16.2001C168.7 16.2001 171.3 17.0001 173 18.5001C174.7 20.0001 175.6 22.0001 175.7 24.5001L170.2 24.7001C170 23.3001 169.5 22.3001 168.7 21.7001C167.9 21.1001 166.8 20.8001 165.2 20.8001C163.6 20.8001 162.3 21.1001 161.4 21.8001C160.8 22.2001 160.5 22.8001 160.5 23.5001C160.5 24.1001 160.8 24.7001 161.3 25.2001C162 25.8001 163.7 26.4001 166.4 27.0001C169.1 27.6001 171.1 28.3001 172.3 29.0001C173.6 29.7001 174.6 30.6001 175.3 31.8001C176 33.0001 176.4 34.4001 176.4 36.1001C176.4 37.7001 176 39.1001 175.1 40.5001C174.2 41.9001 173 42.9001 171.4 43.5001C169.8 44.2001 167.8 44.5001 165.5 44.5001C162.1 44.5001 159.4 43.7001 157.6 42.1001C155.8 40.3001 154.7 38.0001 154.3 34.9001Z" fill="#1a1a1a"/>
<path d="M181 43.8V16.5H186.5V43.8H181Z" fill="#1a1a1a"/>
<path d="M190.3 34.9001L195.7 34.4001C196 36.2001 196.7 37.5001 197.7 38.4001C198.7 39.3001 200 39.7001 201.7 39.7001C203.5 39.7001 204.8 39.3001 205.7 38.6001C206.6 37.9001 207 37.0001 207 36.0001C207 35.4001 206.8 34.8001 206.4 34.4001C206 33.9001 205.4 33.6001 204.4 33.2001C203.8 33.0001 202.3 32.6001 200 32.0001C197 31.3001 195 30.4001 193.8 29.3001C192.1 27.8001 191.3 26.0001 191.3 23.8001C191.3 22.4001 191.7 21.1001 192.5 19.9001C193.3 18.7001 194.4 17.8001 195.9 17.1001C197.4 16.5001 199.2 16.2001 201.3 16.2001C204.7 16.2001 207.3 17.0001 209 18.5001C210.7 20.0001 211.6 22.0001 211.7 24.5001L206.2 24.7001C206 23.3001 205.5 22.3001 204.7 21.7001C203.9 21.1001 202.8 20.8001 201.2 20.8001C199.6 20.8001 198.3 21.1001 197.4 21.8001C196.8 22.2001 196.5 22.8001 196.5 23.5001C196.5 24.1001 196.8 24.7001 197.3 25.2001C198 25.8001 199.7 26.4001 202.4 27.0001C205.1 27.6001 207.1 28.3001 208.3 29.0001C209.6 29.7001 210.6 30.6001 211.3 31.8001C212 33.0001 212.4 34.4001 212.4 36.1001C212.4 37.7001 212 39.1001 211.1 40.5001C210.2 41.9001 209 42.9001 207.4 43.5001C205.8 44.2001 203.8 44.5001 201.5 44.5001C198.1 44.5001 195.4 43.7001 193.6 42.1001C191.8 40.3001 190.7 38.0001 190.3 34.9001Z" fill="#1a1a1a"/>
<path d="M223.2 43.8V21.1H215.1V16.5H236.8V21.1H228.7V43.7H223.2V43.8Z" fill="#1a1a1a"/>
<path d="M240.4 43.8V16.5H260.6V21.1H245.9V27.1H259.6V31.7H245.9V39.1H261.1V43.7H240.4V43.8Z" fill="#1a1a1a"/>
<path d="M265.8 43.8V16.5H271.2L282.4 34.7V16.5H287.5V43.8H282L271 26V43.8H265.8Z" fill="#1a1a1a"/>
<path d="M299.4 43.8V21.1H291.3V16.5H313V21.1H304.9V43.7H299.4V43.8Z" fill="#1a1a1a"/>
<path d="M327.1 16.5H337.2C339.5 16.5 341.2 16.7 342.4 17C344 17.5 345.4 18.3 346.5 19.5C347.6 20.7 348.5 22.2 349.1 23.9C349.7 25.6 350 27.8 350 30.3C350 32.5 349.7 34.5 349.2 36.1C348.5 38.1 347.5 39.7 346.3 40.9C345.3 41.8 344.1 42.6 342.4 43.1C341.2 43.5 339.6 43.7 337.5 43.7H327.1V16.5ZM332.6 21.1V39.2H336.7C338.2 39.2 339.3 39.1 340 38.9C340.9 38.7 341.6 38.3 342.2 37.8C342.8 37.3 343.3 36.4 343.6 35.2C344 34 344.2 32.3 344.2 30.2C344.2 28.1 344 26.5 343.6 25.3C343.2 24.2 342.7 23.3 342 22.7C341.3 22.1 340.5 21.6 339.5 21.4C338.7 21.2 337.2 21.1 335 21.1H332.6Z" fill="#1a1a1a"/>
<path d="M354.4 43.8V16.5H359.9V43.8H354.4Z" fill="#1a1a1a"/>
<path d="M377.9 33.8V29.2H389.8V40C388.6 41.1 387 42.1 384.8 42.9C382.6 43.7 380.4 44.2 378.2 44.2C375.3 44.2 372.9 43.6 370.7 42.4C368.6 41.2 367 39.5 365.9 37.3C364.8 35.1 364.3 32.7 364.3 30C364.3 27.2 364.9 24.6 366.1 22.4C367.3 20.2 369 18.5 371.3 17.3C373 16.4 375.2 15.9 377.8 15.9C381.2 15.9 383.8 16.6 385.7 18C387.6 19.4 388.8 21.4 389.4 23.9L383.9 24.9C383.5 23.6 382.8 22.5 381.7 21.7C380.6 20.9 379.3 20.5 377.7 20.5C375.3 20.5 373.4 21.3 372 22.8C370.6 24.3 369.9 26.6 369.9 29.6C369.9 32.8 370.6 35.3 372.1 36.9C373.5 38.5 375.4 39.3 377.8 39.3C379 39.3 380.1 39.1 381.3 38.6C382.5 38.1 383.5 37.6 384.3 37V33.5H377.9V33.8Z" fill="#1a1a1a"/>
<path d="M394.6 43.8V16.5H400.1V43.8H394.6Z" fill="#1a1a1a"/>
<path d="M411.5 43.8V21.1H403.4V16.5H425.1V21.1H417V43.7H411.5V43.8Z" fill="#1a1a1a"/>
<path d="M450.4 43.8H444.4L442 37.6H431.1L428.8 43.8H423L433.6 16.5H439.4L450.4 43.8ZM440.3 33L436.5 22.9L432.8 33H440.3Z" fill="#1a1a1a"/>
<path d="M453.5 43.8V16.8H459V39.2001H472.7V43.8H453.5Z" fill="#1a1a1a"/>
<path d="M140.8 95.6V93.1C139.5 95.1 137.7 96 135.3 96C133.7 96 132.3 95.6 131 94.7C129.7 93.8 128.7 92.6 127.9 91.1C127.1 89.6 126.8 87.8 126.8 85.7C126.8 83.7 127.1 81.9 127.8 80.3C128.5 78.7 129.4 77.5 130.8 76.6C132.1 75.7 133.6 75.3 135.2 75.3C136.4 75.3 137.5 75.6 138.4 76.1C139.3 76.6 140.1 77.3 140.7 78.1V68.3H144V95.6H140.8ZM130.2 85.8C130.2 88.3 130.7 90.2 131.8 91.5C132.9 92.8 134.1 93.4 135.6 93.4C137.1 93.4 138.3 92.8 139.3 91.6C140.3 90.4 140.8 88.6 140.8 86.1C140.8 83.4 140.3 81.4 139.2 80.1C138.2 78.8 136.9 78.2 135.4 78.2C133.9 78.2 132.7 78.8 131.7 80C130.7 81.2 130.2 83.1 130.2 85.8Z" fill="#FF5959"/>
<path d="M162.7 89.3L166.2 89.7C165.7 91.7 164.6 93.3 163.2 94.4C161.7 95.5 159.8 96.1 157.5 96.1C154.6 96.1 152.3 95.2 150.6 93.4C148.9 91.6 148.1 89.1 148.1 85.9C148.1 82.6 149 80 150.7 78.2C152.4 76.4 154.6 75.4 157.4 75.4C160 75.4 162.2 76.3 163.9 78.1C165.6 79.9 166.4 82.4 166.4 85.7C166.4 85.9 166.4 86.2 166.4 86.6H151.7C151.8 88.8 152.4 90.4 153.5 91.6C154.6 92.8 156 93.3 157.6 93.3C158.8 93.3 159.9 93 160.7 92.3C161.5 91.7 162.2 90.7 162.7 89.3ZM151.7 83.8H162.7C162.6 82.1 162.1 80.9 161.4 80.1C160.3 78.8 159 78.2 157.3 78.2C155.8 78.2 154.5 78.7 153.4 79.7C152.4 80.7 151.8 82.1 151.7 83.8Z" fill="#FF5959"/>
<path d="M181.1 95.6V68.4H189.3L194.2 87L199.1 68.4H207.4V95.7H202.3V74.2L196.9 95.7H191.6L186.2 74.2V95.7H181.1V95.6Z" fill="#1a1a1a"/>
<path d="M211.8 82.1C211.8 79.3 212.2 77 213 75.1C213.6 73.7 214.5 72.5 215.5 71.4C216.6 70.3 217.7 69.5 219 68.9C220.7 68.2 222.7 67.8 224.9 67.8C228.9 67.8 232.1 69 234.5 71.5C236.9 74 238.1 77.5 238.1 81.9C238.1 86.3 236.9 89.7 234.5 92.2C232.1 94.7 228.9 95.9 224.9 95.9C220.8 95.9 217.6 94.7 215.2 92.2C213 89.9 211.8 86.5 211.8 82.1ZM217.4 82C217.4 85.1 218.1 87.4 219.5 89C220.9 90.6 222.7 91.4 224.9 91.4C227.1 91.4 228.9 90.6 230.3 89C231.7 87.4 232.4 85 232.4 81.9C232.4 78.8 231.7 76.4 230.3 74.9C228.9 73.4 227.1 72.6 224.8 72.6C222.5 72.6 220.7 73.4 219.3 74.9C217.9 76.4 217.4 78.8 217.4 82Z" fill="#1a1a1a"/>
<path d="M242.5 68.4H253.4C255.6 68.4 257.2 68.5 258.2 68.7C259.3 68.9 260.2 69.3 261 69.8C261.8 70.4 262.5 71.1 263.1 72.1C263.7 73 263.9 74.1 263.9 75.3C263.9 76.6 263.6 77.7 262.9 78.8C262.2 79.9 261.3 80.7 260.1 81.2C261.8 81.7 263 82.5 263.9 83.7C264.8 84.9 265.2 86.2 265.2 87.8C265.2 89 264.9 90.2 264.3 91.4C263.7 92.6 262.9 93.5 261.9 94.2C260.9 94.9 259.7 95.3 258.2 95.5C257.3 95.6 255.1 95.7 251.6 95.7H242.3V68.4H242.5ZM248 72.9V79.2H251.6C253.7 79.2 255.1 79.2 255.6 79.1C256.5 79 257.3 78.7 257.8 78.1C258.3 77.6 258.6 76.9 258.6 76C258.6 75.2 258.4 74.5 257.9 73.9C257.4 73.4 256.7 73.1 255.8 72.9C255.3 72.8 253.7 72.8 251.1 72.8H248V72.9ZM248 83.7V91H253.1C255.1 91 256.3 90.9 256.9 90.8C257.7 90.7 258.4 90.3 258.9 89.7C259.4 89.1 259.7 88.4 259.7 87.4C259.7 86.6 259.5 85.9 259.1 85.3C258.7 84.7 258.1 84.3 257.4 84.1C256.6 83.8 255 83.7 252.5 83.7H248Z" fill="#1a1a1a"/>
<path d="M269.8 95.6V68.4H275.3V95.7H269.8V95.6Z" fill="#1a1a1a"/>
<path d="M280.7 95.6V68.6H286.2V91H299.9V95.6H280.7Z" fill="#1a1a1a"/>
<path d="M303.7 95.6V68.4H309.2V95.7H303.7V95.6Z" fill="#1a1a1a"/>
<path d="M320.6 95.6V73H312.5V68.4H334.2V73H326.1V95.6H320.6Z" fill="#1a1a1a"/>
<path d="M359.4 95.6H353.4L351 89.4H340.1L337.8 95.6H332L342.6 68.3H348.4L359.4 95.6ZM349.3 84.8L345.5 74.7L341.8 84.8H349.3Z" fill="#1a1a1a"/>
<path d="M365.7 95.6V73H357.6V68.4H379.3V73H371.2V95.6H365.7Z" fill="#1a1a1a"/>
<path d="M382.8 95.6V68.4H403V73H388.3V79H402V83.6H388.3V91H403.5V95.6H382.8Z" fill="#1a1a1a"/>
<path d="M418.7 68.4H424.2V83.2C424.2 85.5 424.3 87.1 424.4 87.8C424.6 88.9 425.2 89.8 426.1 90.5C427 91.2 428.2 91.5 429.7 91.5C431.3 91.5 432.4 91.2 433.2 90.5C434 89.9 434.5 89.1 434.6 88.1C434.7 87.1 434.8 85.6 434.8 83.5V68.4H440.3V82.7C440.3 86 440.2 88.3 439.9 89.6C439.6 91 439.1 92.1 438.3 93C437.5 93.9 436.4 94.7 435.1 95.2C433.8 95.8 432 96 429.9 96C427.3 96 425.3 95.7 424 95.1C422.7 94.5 421.6 93.7 420.8 92.8C420 91.8 419.5 90.8 419.3 89.8C418.9 88.2 418.8 85.9 418.8 82.9V68.4H418.7Z" fill="#1a1a1a"/>
<path d="M446.3 95.6V68.4H457.9C460.8 68.4 462.9 68.6 464.2 69.1C465.5 69.6 466.6 70.5 467.4 71.7C468.2 72.9 468.6 74.4 468.6 76C468.6 78 468 79.7 466.8 81.1C465.6 82.4 463.8 83.3 461.4 83.6C462.6 84.3 463.6 85.1 464.3 85.9C465.1 86.7 466.1 88.2 467.4 90.3L470.7 95.6H464.1L460.1 89.7C458.7 87.6 457.7 86.2 457.2 85.7C456.7 85.1 456.1 84.8 455.5 84.6C454.9 84.4 454 84.3 452.7 84.3H451.6V95.7H446.3V95.6ZM451.8 79.9H455.9C458.5 79.9 460.2 79.8 460.8 79.6C461.5 79.4 462 79 462.3 78.4C462.7 77.9 462.9 77.2 462.9 76.4C462.9 75.5 462.7 74.7 462.2 74.2C461.7 73.6 461 73.3 460.1 73.1C459.7 73 458.3 73 456.1 73H451.8V79.9Z" fill="#1a1a1a"/>
<path d="M473.8 68.4H484.7C486.9 68.4 488.5 68.5 489.5 68.7C490.5 68.9 491.5 69.3 492.3 69.8C493.1 70.3 493.8 71.1 494.4 72.1C495 73.1 495.2 74.1 495.2 75.3C495.2 76.6 494.9 77.7 494.2 78.8C493.5 79.9 492.6 80.7 491.4 81.2C493.1 81.7 494.3 82.5 495.2 83.7C496.1 84.9 496.5 86.2 496.5 87.8C496.5 89 496.2 90.2 495.6 91.4C495 92.6 494.2 93.5 493.2 94.2C492.2 94.9 491 95.3 489.5 95.5C488.6 95.6 486.4 95.7 482.9 95.7H473.6V68.4H473.8ZM479.3 72.9V79.2H482.9C485 79.2 486.4 79.2 486.9 79.1C487.8 79 488.6 78.7 489.1 78.1C489.6 77.5 489.9 76.9 489.9 76C489.9 75.2 489.7 74.5 489.2 73.9C488.7 73.4 488 73.1 487.1 72.9C486.6 72.8 485 72.8 482.4 72.8H479.3V72.9ZM479.3 83.7V91H484.4C486.4 91 487.6 90.9 488.2 90.8C489 90.7 489.7 90.3 490.2 89.7C490.7 89.1 491 88.4 491 87.4C491 86.6 490.8 85.9 490.4 85.3C490 84.7 489.4 84.3 488.7 84.1C487.9 83.8 486.3 83.7 483.8 83.7H479.3Z" fill="#1a1a1a"/>
<path d="M525.9 95.6H519.9L517.5 89.4H506.6L504.3 95.6H498.5L509.1 68.3H514.9L525.9 95.6ZM515.7 84.8L512 74.7L508.3 84.8H515.7Z" fill="#1a1a1a"/>
<path d="M528.8 95.6V68.4H534.2L545.4 86.6V68.4H550.5V95.7H545L534 77.9V95.7H528.8V95.6Z" fill="#1a1a1a"/>
<path d="M580.9 95.6H574.9L572.5 89.4H561.6L559.3 95.6H553.5L564.1 68.3H569.9L580.9 95.6ZM570.4 61.5H572.9C572.8 63.2 572.2 64.5 571.1 65.5C570 66.5 568.7 66.9 567.1 66.9C565.5 66.9 564.1 66.4 563.1 65.5C562.1 64.6 561.5 63.2 561.3 61.5H563.8C563.9 62.4 564.2 63 564.7 63.5C565.2 64 566 64.2 567 64.2C568 64.2 568.8 64 569.3 63.5C569.8 63 570.4 62.4 570.4 61.5ZM570.7 84.8L567 74.7L563.3 84.8H570.7Z" fill="#1a1a1a"/>
<path d="M20.3 70.3001L37.1 87.1L41.1 83.2L31.1 73H54.3C53.9 72.6 53.4001 72.0001 52.9001 71.4001C52.3001 70.7001 51.2 69.4 49.8 67.5H31.1L41.1 57.3L37.1 53.3L20.3 70.3001ZM73.3001 53.4001L69.3001 57.4001L79.3001 67.6H61C59.8 69.2 58.7001 70.5 57.7001 71.5L56.3 73.1H79.3001L69.3001 83.3001L73.3001 87.2L90.1001 70.4001L73.3001 53.4001Z" fill="#1a1a1a"/>
<path d="M72.1 39.8C72.1 35.1 70.5 31.1 67.2 27.7001C63.9 24.5001 59.9 22.8 55.1 22.8C50.4 22.8 46.5 24.4001 43.3 27.7001C40 31.0001 38.3 35 38.3 39.8C38.3 42.1 38.9001 44.8001 40.2001 47.9001C41.5001 50.9001 42.8 53.6 44.3 56C45.8 58.4001 47.5 60.9001 49.5 63.4001C51.4 66 52.7001 67.7 53.4001 68.6C54.0001 69.2 54.4 69.7 54.8 70.1C55 70.3 55.2001 70.5 55.2001 70.6L57.1 68.6C58.2 67.4 59.6 65.6 61.2001 63.3C62.8001 61 64.5 58.6 66.2 56C67.9 53.5 69.3001 50.7001 70.4001 47.7001C71.6001 44.8001 72.1 42.1 72.1 39.8ZM51.3 35.6C52.4 34.5 53.8 34 55.3 34C56.9 34 58.2 34.5 59.3 35.6C60.4 36.7 60.9001 38.1 60.9001 39.6C60.9001 41.2 60.4 42.5 59.3 43.6C58.2 44.7 56.8 45.2001 55.3 45.2001C53.7 45.2001 52.4 44.7 51.3 43.6C50.2 42.5 49.7001 41.1 49.7001 39.6C49.7001 38.1 50.2 36.8 51.3 35.6Z" fill="#FF5959"/>
<path d="M91.4 108.1H19C17.7 108.1 16.4 108 15.2 107.8C9 106.8 4.7 103.4 3 97.8C2.3 96 2 93.6 2 91V18.7C2 7.89995 8.2 1.69995 19 1.69995H91.4C102.2 1.69995 108.4 7.89995 108.4 18.7V91.1C108.4 101.9 102.2 108.1 91.4 108.1ZM19 10.1C12.8 10.1 10.4 12.5 10.4 18.7V91.1C10.4 92.7 10.6 94.1 11 95.2C11.6 97.1 12.7 99 16.4 99.6C17.1 99.7 18 99.8 18.9 99.8H91.3C97.5 99.8 99.9 97.3999 99.9 91.2V18.7C99.9 12.5 97.5 10.1 91.3 10.1H19Z" fill="#FF5959"/>
</svg>
