<svg width="107" height="107" viewBox="0 0 107 107" fill="none" xmlns="http://www.w3.org/2000/svg">
<rect x="7" y="7" width="93" height="93" fill="#181C56"/>
<path d="M18.3 68.6001L35.1 85.4001L39.1 81.5001L29.1 71.3001H52.3C51.9 70.9001 51.4001 70.3001 50.9001 69.7001C50.3001 69.0001 49.2 67.7001 47.8 65.8001H29.1L39.1 55.6001L35.1 51.6001L18.3 68.6001ZM71.3001 51.7001L67.3001 55.7001L77.3001 65.9001H59C57.8 67.5001 56.7001 68.8001 55.7001 69.8001L54.3 71.4001H77.3001L67.3001 81.6001L71.3001 85.5001L88.1001 68.7001L71.3001 51.7001Z" fill="white"/>
<path d="M70.1 38.1001C70.1 33.4001 68.5 29.4001 65.2 26.0001C61.9 22.8001 57.9 21.1001 53.1 21.1001C48.4 21.1001 44.5 22.7001 41.3 26.0001C38 29.3001 36.3 33.3001 36.3 38.1001C36.3 40.4001 36.9001 43.1001 38.2001 46.2001C39.5001 49.2001 40.8 51.9001 42.3 54.3001C43.8 56.7001 45.5 59.2001 47.5 61.7001C49.4 64.3001 50.7001 66.0001 51.4001 66.9001C52.0001 67.5001 52.4 68.0001 52.8 68.4001C53 68.6001 53.2001 68.8001 53.2001 68.9001L55.1 66.9001C56.2 65.7001 57.6001 63.9001 59.2001 61.6001C60.8001 59.3001 62.5 56.9001 64.2 54.3001C65.9 51.8001 67.3001 49.0001 68.4001 46.0001C69.6001 43.1001 70.1 40.4001 70.1 38.1001ZM49.3 33.9001C50.4 32.8001 51.8 32.3001 53.3 32.3001C54.9 32.3001 56.2 32.8001 57.3 33.9001C58.4 35.0001 58.9001 36.4001 58.9001 37.9001C58.9001 39.5001 58.4 40.8001 57.3 41.9001C56.2 43.0001 54.8 43.5001 53.3 43.5001C51.7 43.5001 50.4 43.0001 49.3 41.9001C48.2 40.8001 47.7001 39.4001 47.7001 37.9001C47.7001 36.4001 48.2 35.1001 49.3 33.9001Z" fill="#FF5959"/>
<path d="M89.4 106.4H17C15.7 106.4 14.4 106.3 13.2 106.1C7 105.1 2.7 101.7 1 96.1C0.3 94.3 0 91.9 0 89.3V17C0 6.2 6.2 0 17 0H89.4C100.2 0 106.4 6.2 106.4 17V89.4C106.4 100.2 100.2 106.4 89.4 106.4ZM17 8.4C10.8 8.4 8.4 10.8 8.4 17V89.4C8.4 91 8.6 92.4 9 93.5C9.6 95.4 10.7 97.3 14.4 97.9C15.1 98 16 98.1 16.9 98.1H89.3C95.5 98.1 97.9 95.7 97.9 89.5V17C97.9 10.8 95.5 8.4 89.3 8.4H17Z" fill="#FF5959"/>
</svg>
